<svg width="40" height="40" viewBox="0 0 40 40" fill="none" xmlns="http://www.w3.org/2000/svg">
<g clip-path="url(#clip0)">
<path d="M20.0001 31.3333C22.4254 31.3346 24.618 29.8893 25.5734 27.66L25.8734 26.9933L24.5068 26.8333C23.8334 26.752 23.3288 26.178 23.3334 25.5V22H16.6669V25.48C16.6715 26.1579 16.1669 26.732 15.4935 26.8133L14.1602 26.9733L14.4602 27.64C15.4041 29.866 17.5821 31.3174 20.0001 31.3333Z" fill="#FEDAC6"/>
<path d="M29.3731 27.3802L25.8731 26.9668L25.5731 27.6334C24.2498 30.7114 20.6818 32.1341 17.6039 30.8108C16.1773 30.1974 15.0406 29.0601 14.4266 27.6334L14.1266 26.9668L10.6266 27.3802C7.97733 27.7341 6 29.9941 6 32.6668V40.0001H33.9998V32.6668C33.9997 29.9941 32.0217 27.7341 29.3731 27.3802Z" fill="#DE4C3C"/>
<path d="M6 32.6668V40.0001H8.66662V28.0535C7.01796 29.0048 6.00195 30.7628 6 32.6668Z" fill="#C94536"/>
<path d="M11.3333 36.6666H6V40H11.3333V36.6666Z" fill="#FEDAC6"/>
<path d="M8.66662 36.6667H6V40.0001H8.66662V36.6667Z" fill="#F5C4B0"/>
<path d="M23.3331 24.6667V22.0001H16.6665V24.6667C19.1664 26.0001 20.8331 26.0001 23.3331 24.6667Z" fill="#F5C4B0"/>
<path d="M33.9998 36.6667H28.6665V40.0001H33.9998V36.6667Z" fill="#FEDAC6"/>
<path d="M27.333 14.0002C27.3244 16.5862 26.377 19.0808 24.6664 21.0201L24.3931 21.3335C23.2831 22.5988 21.6831 23.3274 19.9997 23.3334C18.3071 23.3348 16.6958 22.6061 15.5798 21.3335L15.3331 21.0135C13.6245 19.0755 12.6765 16.5835 12.6665 14.0002V6.66687H27.333V14.0002Z" fill="#FEDAC6"/>
<path d="M15.6731 6.66687H12.6665V14.0002C12.6752 16.5862 13.6225 19.0808 15.3331 21.0201L15.6065 21.3335C15.8625 21.6268 16.1485 21.8928 16.4598 22.1268C14.7131 16.2934 15.2398 9.84685 15.6731 6.66687Z" fill="#F5C4B0"/>
<path d="M27.9999 11.3335H26.6665V15.3335H27.9999C29.1045 15.3335 29.9998 14.4382 29.9998 13.3335C29.9998 12.2289 29.1045 11.3335 27.9999 11.3335Z" fill="#FEDAC6"/>
<path d="M10 13.3335C10 14.4382 10.8953 15.3335 12 15.3335H13.3333V11.3335H12C10.8953 11.3335 10 12.2289 10 13.3335Z" fill="#F5C4B0"/>
<path d="M23.3333 2.00022H15.88C14.9653 2.00092 14.1293 1.48491 13.72 0.66687L12.1933 1.4335C10.8294 2.12147 10.2813 3.78552 10.9694 5.14949C11.3147 5.8348 11.9294 6.3455 12.6667 6.56018V11.3335C12.6667 11.3335 14.4267 8.82688 16 6.6669H24.6666L27.3332 10.6669V6.00019C27.3331 3.79083 25.5425 2.00022 23.3333 2.00022Z" fill="#5C5E6F"/>
<path d="M17.3331 5.33361C14.9958 5.09096 12.8892 3.81433 11.5932 1.85364C10.4558 2.86293 10.3532 4.60362 11.3625 5.74025C11.7104 6.13228 12.1624 6.41626 12.6664 6.56024V11.3336C12.6664 11.3336 14.4264 8.82694 15.9998 6.66696H24.6663L27.333 10.6669V6.46032C24.9531 6.2136 20.8531 5.77361 17.3331 5.33361Z" fill="#525463"/>
<path d="M16.0003 14.0002C16.7367 14.0002 17.3337 13.4032 17.3337 12.6668C17.3337 11.9305 16.7367 11.3335 16.0003 11.3335C15.264 11.3335 14.667 11.9305 14.667 12.6668C14.667 13.4032 15.264 14.0002 16.0003 14.0002Z" fill="black"/>
<path d="M23.9999 14.0002C24.7362 14.0002 25.3332 13.4032 25.3332 12.6668C25.3332 11.9305 24.7362 11.3335 23.9999 11.3335C23.2635 11.3335 22.6665 11.9305 22.6665 12.6668C22.6665 13.4032 23.2635 14.0002 23.9999 14.0002Z" fill="black"/>
<path d="M20.6666 16.6668H18.6666C18.4526 16.6668 18.2513 16.5642 18.1259 16.3895C18.0006 16.2155 17.9666 15.9921 18.0339 15.7888L19.3672 11.7888L20.6319 12.2108L19.5912 15.3335H20.6665V16.6668H20.6666Z" fill="black"/>
<path d="M18.7799 19.3335H18.6665V18.0001H18.7799C19.8178 17.9994 20.7938 17.5954 21.5285 16.8615L22.4712 17.8048C21.4845 18.7895 20.1745 19.3328 18.7799 19.3335Z" fill="black"/>
<path d="M28.0001 16.0001H27.3335V14.6668H28.0001C28.7354 14.6668 29.3335 14.0688 29.3335 13.3334C29.3335 12.5981 28.7355 12.0001 28.0001 12.0001H27.3335V10.6667H28.0001C29.4708 10.6667 30.6668 11.8628 30.6668 13.3334C30.6668 14.804 29.4707 16.0001 28.0001 16.0001Z" fill="black"/>
<path d="M12.6667 16.0002H12.0001C10.5294 16.0002 9.3335 14.8042 9.3335 13.3336C9.3335 11.863 10.5295 10.667 12.0001 10.667H12.6667V12.0003H12.0001C11.2648 12.0003 10.6668 12.5983 10.6668 13.3337C10.6668 14.0691 11.2647 14.667 12.0001 14.667H12.6667V16.0002Z" fill="black"/>
<path d="M27.3332 11.3335C27.1146 11.3335 26.9039 11.2255 26.7785 11.0369L24.31 7.33354H13.4334C12.1268 7.33354 10.9501 6.60753 10.3641 5.43886C9.5168 3.73153 10.2081 1.67491 11.8968 0.836244L13.4208 0.070938C13.5787 -0.00835823 13.7615 -0.0217175 13.93 0.0335946C14.098 0.0896097 14.2367 0.209609 14.3161 0.368279C14.614 0.963587 15.2127 1.33358 15.8781 1.33358C15.8781 1.33358 15.8788 1.33358 15.8794 1.33358H23.3333C25.906 1.33358 27.9999 3.42693 27.9999 6.00019V10.6668C27.9999 10.9601 27.8079 11.2201 27.5266 11.3048C27.4626 11.3242 27.3979 11.3335 27.3332 11.3335ZM13.4867 1.5296L12.492 2.02889C11.4587 2.54225 11.0367 3.79685 11.548 4.82754C11.914 5.55621 12.634 6.00019 13.4333 6.00019H24.6666C24.8893 6.00019 25.0973 6.11152 25.2213 6.29683L26.6666 8.46478V6.00027C26.6666 4.16231 25.1713 2.66693 23.3333 2.66693H15.88C15.8792 2.66693 15.8786 2.66693 15.8779 2.66693C14.932 2.66693 14.0633 2.24358 13.4867 1.5296Z" fill="black"/>
<path d="M13.2102 11.7176L16.542 7.05017L15.4568 6.27549L12.125 10.9429L13.2102 11.7176Z" fill="black"/>
<path d="M19.9972 24.0001C18.1125 24.0001 16.3206 23.1888 15.0793 21.7728L14.8053 21.4201C13.0166 19.3948 12.0106 16.7488 12 14.0028V6.66687H13.3333V14.0002C13.3426 16.4202 14.2307 18.7554 15.8333 20.5721L16.108 20.9261C17.07 22.0208 18.4967 22.6661 19.9953 22.6661C19.9967 22.6661 19.998 22.6661 19.9993 22.6661C21.4893 22.6601 22.9086 22.0141 23.8919 20.8935L24.1646 20.5808C25.7706 18.7595 26.6586 16.4222 26.6666 13.9975V9.33349H27.9999V14.0001C27.9907 16.7501 26.9853 19.3993 25.1666 21.4607L24.8953 21.7721C23.6593 23.1807 21.8766 23.9927 20.0027 24C20.0005 24.0001 19.9985 24.0001 19.9972 24.0001Z" fill="black"/>
<path d="M6.66684 40H5.3335V32.6667C5.3335 29.6733 7.57082 27.1167 10.5388 26.7194L15.4154 26.1447C15.7501 26.104 16.0027 25.8181 16.0001 25.4781V22.6667H17.3334V25.4734C17.3407 26.4867 16.5841 27.3467 15.5734 27.4687L10.7048 28.042C8.40683 28.3494 6.66614 30.338 6.66684 32.6667V40Z" fill="black"/>
<path d="M34.6665 39.9999H33.3332V32.6666C33.3305 30.342 31.5898 28.3553 29.2845 28.0474L24.4286 27.4753C23.4152 27.3527 22.6593 26.4927 22.6666 25.4747V22H23.9999V25.48C23.9972 25.8247 24.2492 26.1107 24.5865 26.1513L29.4512 26.7247C32.4251 27.122 34.6625 29.6753 34.6665 32.6659V39.9999H34.6665Z" fill="black"/>
<path d="M20.0032 32C20.0005 32 19.9979 32 19.9958 32C17.3012 32 14.8752 30.4 13.8138 27.9227L13.3872 26.9301L14.6125 26.4041L15.0391 27.3974C15.8905 29.3834 17.8358 30.6667 19.9964 30.6667C19.9985 30.6667 20.0004 30.6667 20.0025 30.6667C22.1632 30.6667 24.1091 29.3833 24.9611 27.3974L25.3877 26.4041L26.613 26.9301L26.1864 27.9234C25.1238 30.3993 22.6972 32 20.0032 32Z" fill="black"/>
<path d="M11.9999 34.6666H10.6665V39.9999H11.9999V34.6666Z" fill="black"/>
<path d="M11.3333 36.0001H6V37.3335H11.3333V36.0001Z" fill="black"/>
<path d="M29.3333 34.6666H28V39.9999H29.3333V34.6666Z" fill="black"/>
<path d="M33.9998 36.0001H28.6665V37.3335H33.9998V36.0001Z" fill="black"/>
</g>
<defs>
<clipPath id="clip0">
<rect width="40" height="40" fill="white"/>
</clipPath>
</defs>
</svg>
