<svg width="40" height="40" viewBox="0 0 40 40" fill="none" xmlns="http://www.w3.org/2000/svg">
<g clip-path="url(#clip0)">
<path d="M10.6636 14.6666V18.6666C10.6636 20.6666 7.99699 24 8.66363 28C16.0629 30.1733 23.931 30.1733 31.3303 28C31.9969 24 30.3236 20.6666 29.9969 18.6666C29.5556 15.3513 29.3329 12.0113 29.3303 8.66663C29.3303 4.24663 26.4169 0.666626 21.9969 0.666626H17.9969C13.9469 0.666626 10.6636 3.94999 10.6636 7.99999C10.6636 7.99999 10.6636 14.6666 10.6636 14.6666Z" fill="#FECB66"/>
<path d="M17.737 0.666626C13.789 0.806626 10.661 4.04928 10.6636 7.99999V18.6666C10.6636 20.6666 7.99699 24 8.66363 28C12.0763 29.002 15.6076 29.5466 19.1636 29.62C13.997 12.6666 14.6637 5.33334 17.737 0.666626Z" fill="#F5AD76"/>
<path d="M19.997 35.3334C23.0177 35.3327 25.5304 33.0107 25.7704 30L25.997 27L24.517 26.8134C23.8463 26.7287 23.345 26.156 23.3504 25.48V22H16.6637V25.4866C16.669 26.1627 16.1677 26.7353 15.4971 26.82L13.9971 27L14.2237 30C14.4637 33.0107 16.977 35.3327 19.997 35.3334Z" fill="#FEDAC6"/>
<path d="M11.3305 34.6666L10.7238 27.4066L9.50383 27.56C7.48914 27.81 5.9818 29.53 5.99719 31.56V40H9.33055C9.33055 38.2693 9.89188 36.5847 10.9305 35.2L11.3305 34.6666Z" fill="#FEDAC6"/>
<path d="M30.4907 27.56L29.2707 27.4066L28.6641 34.6666L29.0641 35.2C30.1027 36.5847 30.6641 38.2693 30.6641 40H33.9974V31.5333C33.9994 29.5133 32.4954 27.8094 30.4907 27.56Z" fill="#FEDAC6"/>
<path d="M28.6634 34.6666L29.2701 27.4066L25.9967 27L25.7701 30C25.5048 33.1887 22.7041 35.558 19.5161 35.2927C16.6961 35.058 14.4587 32.82 14.2234 30L13.9968 27L10.7034 27.4066L11.3301 34.6666L10.9301 35.2C9.89141 36.5847 9.33008 38.2693 9.33008 40H30.6634C30.6634 38.2693 30.1021 36.5847 29.0634 35.2L28.6634 34.6666Z" fill="#E56B2E"/>
<path d="M5.99707 31.4466V39.9133H7.99707V28C6.76512 28.7113 6.00379 30.024 5.99707 31.4466Z" fill="#F5C4B0"/>
<path d="M23.3307 25.0266V22H16.6641V25.0266C19.1641 26.3266 20.8307 26.3266 23.3307 25.0266Z" fill="#F5C4B0"/>
<path d="M11.9971 11.3334C10.8924 11.3334 9.99707 12.2287 9.99707 13.3334C9.99707 14.4381 10.8924 15.3334 11.9971 15.3334H13.3304V11.3334H11.9971Z" fill="#F5C4B0"/>
<path d="M25.3698 20.6666C24.7218 21.4173 23.9311 22.0313 23.0432 22.4733L21.7832 23.1066C20.6585 23.668 19.3345 23.668 18.2098 23.1066L16.8764 22.44C14.6544 21.332 13.1257 19.1947 12.7964 16.7334L12.6631 11.3334V8L13.3297 7.33336C14.1684 6.48469 15.3104 6.00469 16.5031 6H21.5697C24.6631 6 24.6631 6 25.3297 8C25.3297 8 24.6631 16.6666 24.6631 18C24.7085 18.9287 24.9491 19.8373 25.3698 20.6666Z" fill="#FEDAC6"/>
<path d="M15.3297 9.33341C15.3297 8.22873 15.4824 7.12943 15.7831 6.06677C14.8524 6.22013 13.9938 6.66341 13.3297 7.33341L12.6631 8.00005V11.3334L12.8031 16.7334C13.0811 18.7741 14.1851 20.6108 15.8564 21.8134C14.9697 17.4401 15.3297 12.2934 15.3297 9.33341Z" fill="#F5C4B0"/>
<path d="M10.2034 36.3734C9.63211 37.4968 9.33273 38.7394 9.33008 40.0001H13.7834C11.4634 39.0267 10.5501 37.5334 10.2034 36.3734Z" fill="#D65B25"/>
<path d="M23.9964 14C24.7328 14 25.3298 13.403 25.3298 12.6666C25.3298 11.9302 24.7328 11.3333 23.9964 11.3333C23.2601 11.3333 22.6631 11.9302 22.6631 12.6666C22.6631 13.403 23.2601 14 23.9964 14Z" fill="black"/>
<path d="M19.7865 17.2994L17.7865 16.6327C17.6031 16.5714 17.4552 16.4341 17.3818 16.2554C17.3078 16.0767 17.3152 15.8747 17.4011 15.702L19.4011 11.702L20.5937 12.2987L18.9377 15.6113L20.2084 16.0347L19.7865 17.2994Z" fill="black"/>
<path d="M6.66357 40H5.33021V31.5334C5.31225 29.17 7.07092 27.1641 9.42154 26.8721L15.4215 26.1254C15.7555 26.0834 16.0062 25.7967 16.0042 25.4588V22.6667H17.3376V25.4534C17.3455 26.4627 16.5929 27.3227 15.5876 27.4481L9.58686 28.1947C7.90756 28.4034 6.65154 29.8367 6.6642 31.5281V40H6.66357Z" fill="black"/>
<path d="M34.6699 40H33.3365V31.5666C33.3499 29.87 32.0931 28.4373 30.4145 28.228L24.4145 27.4819C23.4078 27.3553 22.6552 26.4953 22.6631 25.4819V22.6666H23.9965V25.4866C23.9939 25.83 24.2445 26.1159 24.5799 26.1587L30.5785 26.9047C32.9292 27.1967 34.6878 29.2033 34.6699 31.5713V40Z" fill="black"/>
<path d="M19.1718 19.3333C19.1711 19.3333 19.1704 19.3333 19.1697 19.3333H18.6631V18H19.1697C19.1704 18 19.1711 18 19.1718 18C20.0444 18 20.9178 17.7939 21.6984 17.4033L22.295 18.596C21.3304 19.0786 20.2504 19.3333 19.1718 19.3333Z" fill="black"/>
<path d="M18.7645 6.35333C18.2418 5.51669 17.4318 4.90864 16.4824 4.642L16.8438 3.35864C18.113 3.71599 19.1964 4.52864 19.8951 5.64731L18.7645 6.35333Z" fill="black"/>
<path d="M15.5267 7.13866C15.2074 6.82202 14.1901 5.99999 13.3301 5.99999V4.66663C14.8948 4.66663 16.3121 6.03866 16.468 6.1953L15.5267 7.13866Z" fill="black"/>
<path d="M15.3304 14C16.0668 14 16.6638 13.403 16.6638 12.6666C16.6638 11.9302 16.0668 11.3333 15.3304 11.3333C14.594 11.3333 13.9971 11.9302 13.9971 12.6666C13.9971 13.403 14.594 14 15.3304 14Z" fill="black"/>
<path d="M25.4184 23.6639C23.5891 20.4626 24.0984 15.7199 24.5064 11.9092C24.7043 10.0659 24.8911 8.32456 24.6843 7.49456C24.5643 7.01721 24.3377 6.69792 23.9904 6.51987C23.2224 6.12323 21.987 6.45721 21.577 6.61917L21.083 5.3805C21.2904 5.29784 23.151 4.59315 24.595 5.3312C25.2871 5.68518 25.765 6.3212 25.9771 7.1712C26.2418 8.23049 26.0611 9.91721 25.8324 12.0512C25.4437 15.6712 24.9604 20.1759 26.5757 23.0019L25.4184 23.6639Z" fill="black"/>
<path d="M25.3708 21.3334H25.3301V20L25.3708 21.3334Z" fill="black"/>
<path d="M19.9967 24.1913C19.2807 24.1913 18.5654 24.0287 17.9134 23.7034L16.5794 23.0367C14.1567 21.8287 12.496 19.5054 12.1367 16.822C12.1334 16.798 12.1314 16.7741 12.1314 16.75L11.998 11.35V8H13.3314V11.3334L13.4641 16.68C13.7741 18.91 15.1594 20.838 17.1761 21.844L18.5101 22.5106C19.4414 22.9753 20.5548 22.9753 21.488 22.5106L22.746 21.878C23.56 21.474 24.2727 20.9193 24.868 20.2313L25.8773 21.1027C25.1666 21.926 24.3134 22.5887 23.3427 23.0706L22.0853 23.7027C21.4301 24.0287 20.7127 24.1913 19.9967 24.1913Z" fill="black"/>
<path d="M8.00558 28.1093C7.55691 25.4159 8.49222 23.0653 9.24355 21.1759C9.6469 20.1606 9.9962 19.2839 9.9962 18.6666V14.6666H11.3296V18.6666C11.3296 19.5393 10.9369 20.5259 10.4822 21.6687C9.79151 23.4047 8.93222 25.564 9.32019 27.8907L8.00558 28.1093Z" fill="black"/>
<path d="M31.9877 28.1093L30.6724 27.8906C31.1311 25.1353 30.4217 22.7206 29.8524 20.7813C29.6284 20.0193 29.435 19.362 29.3384 18.774C28.8937 15.4227 28.6671 12.0287 28.6637 8.66734C28.6637 4.41734 25.8597 1.33336 21.9971 1.33336H17.9971C14.1344 1.33336 11.3304 4.41734 11.3304 8.66672V12H9.99707V8.66664C9.99699 3.64469 13.3617 0 17.997 0H21.997C26.6323 0 29.997 3.64469 29.997 8.66664C30.0004 11.97 30.2223 15.3046 30.6577 18.5787C30.7377 19.0653 30.9203 19.686 31.1311 20.4047C31.7083 22.3666 32.4977 25.0527 31.9877 28.1093Z" fill="black"/>
<path d="M12.6634 16H11.9967C10.526 16 9.33008 14.804 9.33008 13.3334C9.33008 11.8628 10.5261 10.6667 11.9967 10.6667H12.6634V12H11.9967C11.2614 12 10.6634 12.598 10.6634 13.3334C10.6634 14.0687 11.2613 14.6667 11.9967 14.6667H12.6634V16Z" fill="black"/>
<path d="M19.9966 36C16.652 35.9993 13.824 33.3866 13.5587 30.0526L13.332 27.39L14.6607 27.2766L14.8873 29.9433C15.098 32.5933 17.342 34.6659 19.996 34.6666C22.65 34.6659 24.8947 32.5933 25.1047 29.9473L25.332 27.2766L26.66 27.39L26.4334 30.0566C26.1693 33.3866 23.342 35.9993 19.9966 36Z" fill="black"/>
<path d="M9.99645 40H8.66309C8.66309 38.1366 9.2784 36.2907 10.3971 34.8L10.6411 34.4747L9.9998 28.0666L11.3264 27.934L11.9931 34.6006C12.0097 34.7666 11.9631 34.9333 11.8631 35.0666L11.4631 35.6C10.5171 36.8607 9.99645 38.424 9.99645 40Z" fill="black"/>
<path d="M31.3305 40H29.9971C29.9971 38.4234 29.4764 36.8607 28.5311 35.5994L28.1304 35.0668C28.0304 34.9328 27.9837 34.7668 28.0004 34.6001L28.667 27.9335L29.9937 28.0661L29.353 34.4735L29.5969 34.7988C30.7151 36.2907 31.3305 38.1367 31.3305 40Z" fill="black"/>
</g>
<defs>
<clipPath id="clip0">
<rect width="40" height="40" fill="white"/>
</clipPath>
</defs>
</svg>
