<svg width="40" height="40" viewBox="0 0 40 40" fill="none" xmlns="http://www.w3.org/2000/svg">
<g clip-path="url(#clip0)">
<path d="M28 8.66663C26 7.99999 24.6666 4.66663 24.6666 4.66663C21.8934 7.89999 15.6066 7.93334 12 7.64663V18.6666C12.0007 19.9913 12.4153 21.2826 13.1866 22.36L13.4333 22.7066C14.6246 24.3766 16.5486 25.37 18.5999 25.3733H21.6466C23.9259 25.3753 26.0312 24.1533 27.1599 22.1733C27.7186 21.2026 28.0086 20.0999 27.9999 18.9799V8.66663H28Z" fill="#FEDAC6"/>
<path d="M14.6666 15.9534V7.75337C13.6933 7.75337 12.78 7.71337 12 7.64673V18.6667C12.0007 19.9914 12.4153 21.2827 13.1866 22.3601L13.4333 22.7067C14.3759 23.9947 15.768 24.882 17.3333 25.1934L17.0666 24.7334C15.5027 22.0713 14.6747 19.0407 14.6666 15.9534Z" fill="#F5C4B0"/>
<path d="M34 39.3334V32.6668C34 29.9941 32.022 27.7341 29.3734 27.3801L25.4934 26.8668C24.6394 26.7501 24.002 26.0221 24 25.1601V23.3335H16V25.1601C15.998 26.0222 15.3607 26.7501 14.5066 26.8668L10.6266 27.3801C7.97797 27.7341 6 29.9941 6 32.6668V39.3334H34Z" fill="#FEDAC6"/>
<path d="M24.5669 26.4267C24.2069 26.104 24.0009 25.6433 24.0002 25.16V23.3334H16.0002V25.16C15.9995 25.6434 15.7936 26.104 15.4336 26.4267C18.3002 27.898 21.7002 27.898 24.5669 26.4267Z" fill="#F5C4B0"/>
<path d="M27.9996 8.66663V5.99999C27.9996 4.15928 26.507 2.66663 24.6663 2.66663C23.3856 1.38663 21.6496 0.667954 19.8396 0.666626H17.9996C14.0463 0.666626 10.6663 3.99999 9.33301 7.33327C9.33301 7.33327 20.6664 9.33327 24.6664 4.66663C24.6663 4.66663 25.9996 7.99999 27.9996 8.66663Z" fill="#A15D30"/>
<path d="M25.68 16.7334C25.3473 17.3067 24.6127 17.5007 24.0393 17.1681C23.882 17.0767 23.748 16.9507 23.6466 16.8001C23.03 15.8874 22.002 15.3381 20.9 15.3334H19.1C17.998 15.3381 16.97 15.8874 16.3534 16.8001C15.9834 17.3501 15.238 17.4961 14.688 17.1261C14.5373 17.0248 14.4114 16.8901 14.3201 16.7334L12 12.4534V18.6667C12.0007 19.9914 12.4153 21.2827 13.1866 22.3601L13.4333 22.7067C14.6246 24.3767 16.5486 25.3701 18.5999 25.3734H21.6466C25.1592 25.37 28.0039 22.5194 27.9999 19.0067C27.9999 18.9981 27.9999 18.9888 27.9999 18.9801V12.4534L25.68 16.7334Z" fill="#A15D30"/>
<path d="M27.9996 8.66663H27.333V12.6666H27.9996C29.1043 12.6666 29.9996 11.7713 29.9996 10.6666C29.9996 9.56194 29.1043 8.66663 27.9996 8.66663Z" fill="#FEDAC6"/>
<path d="M10 10.6666C10 11.7713 10.8953 12.6666 12 12.6666H12.6666V8.66663H12C10.8953 8.66663 10 9.56202 10 10.6666Z" fill="#F5C4B0"/>
<path d="M29.3733 27.38L25.4933 26.8666C25.274 26.84 25.0613 26.7719 24.8666 26.6666L19.9999 33.3333L15.1333 26.6667C14.9406 26.7794 14.7273 26.854 14.5066 26.8867L10.6266 27.4001C7.98531 27.7534 6.01 30.0021 6 32.6667V40H34V32.6666C33.9999 29.994 32.022 27.734 29.3733 27.38Z" fill="#2E6AA3"/>
<path d="M17.333 30L19.9996 33.3334L22.6663 30H17.333Z" fill="#EBEBEB"/>
<path d="M11.3336 37.3334H4.66699V40H11.3336V37.3334Z" fill="#2E6AA3"/>
<path d="M35.3336 37.3334H28.667V40H35.3336V37.3334Z" fill="#2E6AA3"/>
<path d="M15.773 1.02002C12.813 2.00002 10.4064 4.66666 9.33301 7.33338C11.097 7.61338 12.8803 7.75603 14.6664 7.76002V6.00002C14.6543 4.27799 15.0323 2.57533 15.773 1.02002Z" fill="#8F4F24"/>
<path d="M14.7066 17.1334C14.5513 17.0287 14.4193 16.8927 14.32 16.7334L12 12.4534V18.6667C12.0007 19.9914 12.4153 21.2827 13.1866 22.3601L13.4333 22.7067C14.3759 23.9947 15.768 24.882 17.3333 25.1934L17.0666 24.7334C15.7053 22.4153 14.8973 19.8147 14.7066 17.1334Z" fill="#8F4F24"/>
<path d="M18.0004 29.3334H16.667V40H18.0004V29.3334Z" fill="#215280"/>
<path d="M14.6664 27.3334H13.333V40H14.6664V27.3334Z" fill="#215280"/>
<path d="M11.3334 27.3334H10V40H11.3334V27.3334Z" fill="#215280"/>
<path d="M8.00035 29.3334H6.66699V40H8.00035V29.3334Z" fill="#215280"/>
<path d="M17.3336 30H6.66699V31.3334H17.3336V30Z" fill="#215280"/>
<path d="M20 33.3334H6V34.6667H20V33.3334Z" fill="#215280"/>
<path d="M20.6664 36.6666H7.33301V38H20.6664V36.6666Z" fill="#215280"/>
<path d="M23.3334 29.3334H22V40H23.3334V29.3334Z" fill="#215280"/>
<path d="M26.6664 27.3334H25.333V40H26.6664V27.3334Z" fill="#215280"/>
<path d="M30.0003 27.3334H28.667V40H30.0003V27.3334Z" fill="#215280"/>
<path d="M33.3334 29.3334H32V40H33.3334V29.3334Z" fill="#215280"/>
<path d="M33.3336 30H22.667V31.3334H33.3336V30Z" fill="#215280"/>
<path d="M34 33.3334H20V34.6667H34V33.3334Z" fill="#215280"/>
<path d="M32.6664 36.6666H19.333V38H32.6664V36.6666Z" fill="#215280"/>
<path d="M16.0004 12C16.7367 12 17.3337 11.403 17.3337 10.6666C17.3337 9.93022 16.7367 9.33325 16.0004 9.33325C15.264 9.33325 14.667 9.93022 14.667 10.6666C14.667 11.403 15.264 12 16.0004 12Z" fill="black"/>
<path d="M24.0004 12C24.7367 12 25.3337 11.403 25.3337 10.6666C25.3337 9.93022 24.7367 9.33325 24.0004 9.33325C23.264 9.33325 22.667 9.93022 22.667 10.6666C22.667 11.403 23.264 12 24.0004 12Z" fill="black"/>
<path d="M19.9997 16H19.333C19.1417 16 18.9597 15.918 18.833 15.7747C18.7064 15.6313 18.6477 15.4407 18.671 15.2507L19.3377 9.91736L20.6603 10.0827L19.9997 15.3753V16Z" fill="black"/>
<path d="M27.9996 13.3334H27.333V12H27.9996C28.735 12 29.333 11.402 29.333 10.6666C29.333 9.93125 28.735 9.33328 27.9996 9.33328H27.333V8H27.9996C29.4704 8 30.6663 9.19602 30.6663 10.6666C30.6663 12.1373 29.4704 13.3334 27.9996 13.3334Z" fill="black"/>
<path d="M12.6663 13.3334H11.9997C10.5289 13.3334 9.33301 12.1373 9.33301 10.6667C9.33301 9.19609 10.5289 8 11.9997 8H12.6663V9.33336H11.9997C11.2643 9.33336 10.6663 9.93133 10.6663 10.6667C10.6663 11.402 11.2643 12.0001 11.9997 12.0001H12.6663V13.3334Z" fill="black"/>
<path d="M21.6517 26.04C21.6496 26.04 21.6477 26.04 21.6457 26.04H18.5996C16.337 26.036 14.2036 24.9353 12.8904 23.094L12.643 22.7467C11.787 21.5506 11.333 20.1393 11.333 18.6667V7.33337H12.6664V18.6667C12.6664 19.8594 13.0337 21.002 13.7284 21.972L13.9764 22.3194C15.0404 23.8107 16.769 24.7034 18.6011 24.706H21.6464C21.6477 24.706 21.6497 24.706 21.6511 24.706C23.6857 24.706 25.5744 23.6087 26.5811 21.8427C27.0818 20.9734 27.3418 19.986 27.3337 18.9847V8.00002H28.6671V18.98C28.6764 20.2127 28.355 21.4334 27.7384 22.506C26.495 24.6847 24.163 26.04 21.6517 26.04Z" fill="black"/>
<path d="M27.9999 9.33336C27.9292 9.33336 27.8579 9.32203 27.7892 9.29937C26.2139 8.77406 25.0499 6.93273 24.4665 5.80805C19.8345 9.80602 9.67122 8.07008 9.21786 7.99008C9.02052 7.95539 8.84856 7.83344 8.75122 7.65742C8.65388 7.48211 8.63989 7.27211 8.71458 7.08539C10.1225 3.56469 13.7646 0 17.9999 0H19.8399C21.7519 0.000703125 23.5539 0.712656 24.9459 2.01C27.0212 2.15336 28.6666 3.88867 28.6666 6V8.66664C28.6666 8.88062 28.564 9.08195 28.39 9.20734C28.2746 9.2907 28.1379 9.33336 27.9999 9.33336ZM24.6665 4C24.7025 4 24.7386 4.00266 24.7752 4.00867C25.0052 4.04664 25.1986 4.20203 25.2852 4.41797C25.5518 5.08062 26.3372 6.63266 27.3332 7.50062V6C27.3332 4.5293 26.1372 3.33336 24.6665 3.33336C24.4899 3.33336 24.3199 3.26336 24.1952 3.13867C23.0312 1.97531 21.4845 1.33398 19.8392 1.33336H17.9999C14.6625 1.33336 11.7279 3.97133 10.3046 6.8007C12.9599 7.14203 21.0672 7.84141 24.1606 4.23273C24.2886 4.08336 24.4739 4 24.6665 4Z" fill="black"/>
<path d="M24.6216 18.0007C24.0116 18.0007 23.4363 17.6914 23.0903 17.1673C22.601 16.4426 21.7796 16.0039 20.8969 16.0007H19.1003C18.2103 15.9793 17.3782 16.436 16.8796 17.174C16.5389 17.6893 15.9609 18 15.3362 18C15.3349 18 15.3336 18 15.3315 18C14.6702 17.986 14.0668 17.628 13.7422 17.0667L11.4209 12.9974L12.5789 12.3367L14.8989 16.4033C14.9896 16.5607 15.1622 16.6633 15.3475 16.6673H15.3482C15.5109 16.6673 15.6729 16.5799 15.7703 16.4333C16.5203 15.324 17.7582 14.6667 19.0882 14.6667C19.0929 14.6667 19.0975 14.6667 19.1022 14.6667H20.8996C22.2256 14.6727 23.4582 15.3307 24.1989 16.4274C24.3022 16.584 24.4489 16.6634 24.6502 16.6674C24.8575 16.6674 25.0336 16.5653 25.1289 16.4007L27.4196 12.3394L28.5809 12.9941L26.2875 17.0607C25.9522 17.6421 25.3328 18 24.6675 18C24.6656 17.9999 24.6369 18.0007 24.6216 18.0007Z" fill="black"/>
<path d="M20.0004 18.9893C19.2511 18.9893 18.5017 18.87 17.7891 18.632L18.2117 17.3673C19.3651 17.7526 20.6357 17.7526 21.7897 17.3673L22.2117 18.632C21.4984 18.8707 20.7497 18.9893 20.0004 18.9893Z" fill="black"/>
<path d="M6.66629 37.3334H5.33301V32.6668C5.33301 29.6734 7.57035 27.1168 10.5383 26.7194L14.419 26.2055C14.9377 26.1347 15.3324 25.6848 15.3337 25.1588L16.6671 25.1615C16.6644 26.3494 15.7744 27.3668 14.5971 27.5275L10.7144 28.0415C8.40645 28.3494 6.66645 30.3381 6.66645 32.6668V37.3334H6.66629Z" fill="black"/>
<path d="M34.6666 37.3334H33.3333V32.6668C33.3333 30.3381 31.5933 28.3494 29.2846 28.0415L25.4066 27.5275C24.2259 27.3668 23.3366 26.3495 23.334 25.1615L24.6673 25.1588C24.6687 25.6848 25.0627 26.1348 25.584 26.2055L29.4606 26.7194C32.4293 27.1161 34.6666 29.6734 34.6666 32.6668V37.3334Z" fill="black"/>
<path d="M12.0004 34.6666H10.667V40H12.0004V34.6666Z" fill="black"/>
<path d="M29.3334 34.6666H28V40H29.3334V34.6666Z" fill="black"/>
<path d="M19.9998 34C19.7824 34 19.5784 33.894 19.4537 33.7153L14.7871 27.0487L15.8798 26.2847L19.9998 32.1707L24.1205 26.2847L25.2131 27.0487L20.5465 33.7153C20.4211 33.894 20.2171 34 19.9998 34Z" fill="black"/>
<path d="M14.6671 34.6666C14.5791 34.6666 14.4905 34.6493 14.4064 34.614C14.1998 34.526 14.0511 34.34 14.0111 34.1193L12.6777 26.7859L13.9898 26.548L15.1418 32.8833L18.2978 30.7793L19.0371 31.8886L15.0371 34.5552C14.9258 34.6287 14.7965 34.6666 14.6671 34.6666Z" fill="black"/>
<path d="M25.3329 34.6667C25.2036 34.6667 25.0742 34.6287 24.9629 34.5546L20.9629 31.888L21.7022 30.7787L24.8575 32.8827L26.0102 26.5474L27.3215 26.7853L25.9881 34.1187C25.9481 34.3394 25.8002 34.5253 25.5928 34.6134C25.5102 34.6493 25.4216 34.6667 25.3329 34.6667Z" fill="black"/>
<path d="M20.6664 33.3334H19.333V40H20.6664V33.3334Z" fill="black"/>
<path d="M22.6664 29.3334H17.333V30.6667H22.6664V29.3334Z" fill="black"/>
<path d="M12 40H10.6666V38H5.33336V40H4V37.3334C4 36.9647 4.29867 36.6667 4.66664 36.6667H11.3333C11.7013 36.6667 11.9999 36.9647 11.9999 37.3334V40H12Z" fill="black"/>
<path d="M36 40H34.6666V38H29.3333V40H28V37.3334C28 36.9647 28.298 36.6667 28.6666 36.6667H35.3333C35.702 36.6667 35.9999 36.9647 35.9999 37.3334V40H36Z" fill="black"/>
<path d="M17.667 36.6666C17.1157 36.6666 16.667 36.218 16.667 35.6666C16.667 35.1153 17.1157 34.6666 17.667 34.6666C18.2183 34.6666 18.667 35.1153 18.667 35.6666C18.667 36.218 18.2183 36.6666 17.667 36.6666ZM17.667 35.3333C17.483 35.3333 17.3336 35.4833 17.3336 35.6667C17.3336 35.8501 17.4829 36.0001 17.667 36.0001C17.8511 36.0001 18.0004 35.8501 18.0004 35.6667C18.0004 35.4833 17.8511 35.3333 17.667 35.3333Z" fill="black"/>
</g>
<defs>
<clipPath id="clip0">
<rect width="40" height="40" fill="white"/>
</clipPath>
</defs>
</svg>
