<svg width="40" height="40" viewBox="0 0 40 40" fill="none" xmlns="http://www.w3.org/2000/svg">
<g clip-path="url(#clip0)">
<path d="M29.3729 28.7133L25.1595 28.1533C22.9048 31.0033 18.7662 31.4854 15.9169 29.2307C15.5176 28.9146 15.1562 28.5533 14.8395 28.1533L10.6262 28.7133C7.97748 29.0673 5.99951 31.3273 5.99951 34V40H33.9995V34C33.9996 31.3273 32.0215 29.0673 29.3729 28.7133Z" fill="#E56B2E"/>
<path d="M25.1598 28.1533C24.4919 28.0659 23.9938 27.494 23.9998 26.8199V23.3333H15.9998V26.8333C16.0059 27.5072 15.5078 28.0793 14.8398 28.1666C17.0985 31.0133 21.2372 31.4906 24.0845 29.2319C24.4831 28.9152 24.8445 28.5533 25.1598 28.1533Z" fill="#FEDAC6"/>
<path d="M23.9995 26.9467V23.3334H15.9995V26.9467C18.9995 28.3534 20.9995 28.3534 23.9995 26.9467Z" fill="#F5C4B0"/>
<path d="M27.3331 11.9999H26.6665V15.9999H27.3331C28.4378 15.9999 29.3331 15.1046 29.3331 13.9999C29.3331 12.8952 28.4378 11.9999 27.3331 11.9999Z" fill="#FEDAC6"/>
<path d="M12.6665 11.9999C11.5618 11.9999 10.6665 12.8952 10.6665 13.9999C10.6665 15.1046 11.5618 15.9999 12.6665 15.9999H13.3331V11.9999H12.6665Z" fill="#FEDAC6"/>
<path d="M26.6667 9.33325L27.3333 11.9999V19.1665C27.342 20.1465 26.9913 21.0952 26.3467 21.8332L23.4667 25.0865C22.9627 25.6645 22.2333 25.9972 21.4667 25.9999H18.5467C17.78 25.9972 17.0506 25.6646 16.5467 25.0865L13.6533 21.7999C13.0086 21.0619 12.658 20.1133 12.6667 19.1333V11.9999L13.3333 9.33325H26.6667Z" fill="#FEDAC6"/>
<path d="M15.333 17.9999L15.9996 9.33325H12.6663L12.4062 18.8266C12.4096 20.3593 13.0729 21.8166 14.2262 22.8266C14.2262 22.8266 16.9396 25.8 17.3329 26L15.8729 21.82C15.429 20.5979 15.245 19.2972 15.333 17.9999Z" fill="#F5C4B0"/>
<path d="M12.6665 12H18.6665V14.6666C18.6665 15.7713 17.7712 16.6666 16.6665 16.6666H14.6665C13.5618 16.6666 12.6665 15.7713 12.6665 14.6666V12Z" fill="#EBEBEB"/>
<path d="M25.333 16.6666H23.333C22.2283 16.6666 21.333 15.7713 21.333 14.6666V12H27.333V14.6666C27.333 15.7713 26.4377 16.6666 25.333 16.6666Z" fill="#EBEBEB"/>
<path d="M28.6665 12.6667L29.3331 8.66675C29.3331 4.24878 25.7511 0.666748 21.3331 0.666748H18.6665C14.2485 0.666748 10.6665 4.24878 10.6665 8.66675V9.33339L11.3331 12.6667L12.6665 14.6667L13.3331 9.33339H26.6665L27.3331 14L28.6665 12.6667Z" fill="#FECB66"/>
<path d="M16.8399 0.886597C13.2265 1.73394 10.6706 4.95527 10.6665 8.6666V9.33324L11.3331 12.6666L12.6665 14.6666L13.3331 9.33324H14.6665C13.8731 5.57332 14.6665 3.33332 16.8399 0.886597Z" fill="#F5AD76"/>
<path d="M5.99951 34V40H8.66615V29.3866C7.01748 30.3386 6.00146 32.0966 5.99951 34Z" fill="#D65B25"/>
<path d="M27.3331 16.6666H26.6665V15.3332H27.3331C28.0685 15.3332 28.6665 14.7352 28.6665 13.9998C28.6665 13.2645 28.0685 12.6665 27.3331 12.6665H26.6665V11.3331H27.3331C28.8038 11.3331 29.9998 12.5291 29.9998 13.9998C29.9998 15.4704 28.8038 16.6666 27.3331 16.6666Z" fill="black"/>
<path d="M13.3328 16.6665H12.6662C11.1954 16.6665 9.99951 15.4705 9.99951 13.9999C9.99951 12.5293 11.1955 11.3333 12.6662 11.3333H13.3328V12.6666H12.6662C11.9308 12.6666 11.3328 13.2646 11.3328 14C11.3328 14.7354 11.9308 15.3333 12.6662 15.3333H13.3328V16.6665Z" fill="black"/>
<path d="M20.6661 18H18.6661C18.4747 18 18.2927 17.918 18.1661 17.7747C18.0394 17.6314 17.9807 17.4407 18.004 17.2507L18.6707 11.9174L19.9933 12.0827L19.4213 16.6667H20.666V18H20.6661Z" fill="black"/>
<path d="M16.6662 17.3333H14.6662C13.1955 17.3333 11.9995 16.1372 11.9995 14.6666V11.9999C11.9995 11.6319 12.2982 11.3333 12.6662 11.3333H18.6662C19.0341 11.3333 19.3328 11.6319 19.3328 11.9999V14.6665C19.3328 16.1372 18.1369 17.3333 16.6662 17.3333ZM13.3328 12.6665V14.6665C13.3328 15.4018 13.9308 15.9999 14.6662 15.9999H16.6662C17.4015 15.9999 17.9995 15.4019 17.9995 14.6665V12.6665H13.3328Z" fill="black"/>
<path d="M25.3331 17.3333H23.3331C21.8624 17.3333 20.6665 16.1372 20.6665 14.6666V11.9999C20.6665 11.6319 20.9645 11.3333 21.3331 11.3333H27.3332C27.7018 11.3333 27.9998 11.6319 27.9998 11.9999V14.6665C27.9999 16.1372 26.8039 17.3333 25.3331 17.3333ZM21.9999 12.6665V14.6665C21.9999 15.4018 22.5978 15.9999 23.3332 15.9999H25.3332C26.0685 15.9999 26.6666 15.4019 26.6666 14.6665V12.6665H21.9999Z" fill="black"/>
<path d="M21.3329 11.3333H17.9995V12.6666H21.3329V11.3333Z" fill="black"/>
<path d="M10.6795 12.7973L10.0129 9.46398C10.0036 9.42062 9.99951 9.37734 9.99951 9.33328V8.66664C9.99951 3.88797 13.8875 0 18.6662 0H21.3328C26.1115 0 29.9994 3.88797 29.9994 8.66664C29.9994 8.70328 29.9961 8.74 29.9901 8.77664L29.3235 12.7766L28.0082 12.5573L28.6661 8.61266C28.6369 4.59398 25.3582 1.33336 21.3328 1.33336H18.6662C14.6228 1.33336 11.3328 4.62336 11.3328 8.66672V9.26742L11.9862 12.5361L10.6795 12.7973Z" fill="black"/>
<path d="M18.5462 26.6667C17.5855 26.6634 16.6742 26.2475 16.0442 25.5247L13.1529 22.2407C12.3982 21.376 11.9895 20.2714 12.0002 19.1274V12.0001C12.0002 11.9454 12.0068 11.8914 12.0202 11.8381L12.6868 9.17144C12.7602 8.87542 13.0268 8.66675 13.3329 8.66675H26.6662C26.9722 8.66675 27.2383 8.87542 27.3129 9.17144L27.9795 11.8381C27.9929 11.8914 27.9995 11.9454 27.9995 12.0001V19.1667C28.0102 20.3041 27.6008 21.4088 26.8475 22.2714L23.9654 25.5288C23.3381 26.2475 22.4268 26.6635 21.4681 26.6667H18.5462ZM13.3329 12.0821V19.1335C13.3255 19.9561 13.6175 20.7455 14.1549 21.3621L17.0462 24.6461C17.4262 25.0814 17.9736 25.3314 18.5483 25.3335H21.4662C22.0389 25.3314 22.5855 25.0814 22.9642 24.6488L25.8462 21.3914C26.3815 20.7788 26.6736 19.9894 26.6655 19.1728V12.0821L26.1456 10.0001H13.8536L13.3329 12.0821Z" fill="black"/>
<path d="M21.9995 19.3333H17.9995V20.6666H21.9995V19.3333Z" fill="black"/>
<path d="M14.4717 9.80469L13.5283 8.86266C14.2617 8.12797 14.6663 7.15133 14.667 6.11336V6H16.0004V6.11336C15.999 7.50734 15.4564 8.81797 14.4717 9.80469Z" fill="black"/>
<path d="M17.8052 9.80469L16.8618 8.86266C17.5952 8.12797 17.9998 7.15133 18.0005 6.11336V6H19.3338V6.11336C19.3325 7.50734 18.7899 8.81797 17.8052 9.80469Z" fill="black"/>
<path d="M21.1377 9.80469L20.1943 8.86266C20.9277 8.12797 21.3323 7.15195 21.333 6.11336V6H22.6664V6.11336C22.6657 7.50797 22.123 8.81867 21.1377 9.80469Z" fill="black"/>
<path d="M24.471 9.80469L23.5283 8.86266C24.2617 8.12797 24.6657 7.15195 24.6663 6.11336V6H25.9996V6.11336C25.9989 7.50797 25.4563 8.81867 24.471 9.80469Z" fill="black"/>
<path d="M6.66637 40H5.33301V34C5.33301 31.0067 7.57035 28.45 10.5383 28.0527L14.7517 27.4927C15.0864 27.4487 15.3357 27.162 15.333 26.826V24.6667H16.6664V26.8201C16.675 27.8228 15.9271 28.6828 14.9264 28.8141L10.7143 29.3741C8.40637 29.6828 6.66637 31.6714 6.66637 34.0001V40Z" fill="black"/>
<path d="M34.6663 40H33.3329V34C33.3269 31.6793 31.5869 29.6953 29.2843 29.3873L25.0722 28.8273C24.0729 28.6973 23.3249 27.8373 23.3336 26.8273V24.6666H24.6669V26.8333C24.6636 27.1759 24.9129 27.4619 25.2469 27.5059L29.4609 28.0659C32.4216 28.4619 34.6596 31.0119 34.6669 33.9986V40H34.6663Z" fill="black"/>
<path d="M11.9999 34.6666H10.6665V40H11.9999V34.6666Z" fill="black"/>
<path d="M29.3329 34.6666H27.9995V40H29.3329V34.6666Z" fill="black"/>
<path d="M20.0069 31.3139C17.8662 31.3139 15.7449 30.3726 14.3169 28.5673L15.3622 27.7406C17.3849 30.2973 21.1122 30.7293 23.6688 28.708C24.0268 28.424 24.3528 28.0987 24.6375 27.74L25.6815 28.568C25.3342 29.0073 24.9349 29.4059 24.4962 29.7533C23.1675 30.8039 21.5815 31.3139 20.0069 31.3139Z" fill="black"/>
</g>
<defs>
<clipPath id="clip0">
<rect width="40" height="40" fill="white"/>
</clipPath>
</defs>
</svg>
