<svg width="40" height="40" viewBox="0 0 40 40" fill="none" xmlns="http://www.w3.org/2000/svg">
<g clip-path="url(#clip0)">
<path d="M19.9997 31.3372C22.4237 31.3386 24.6152 29.894 25.5701 27.6658L25.8899 26.9262L25.157 26.8263C24.4893 26.739 23.9916 26.1673 23.9976 25.4936V22.0088H16.0017V25.5069C16.0077 26.1806 15.51 26.7523 14.8423 26.8396L14.1094 26.9395L14.4292 27.6792C15.3881 29.9026 17.5782 31.3412 19.9997 31.3372Z" fill="#FEDAC6"/>
<path d="M29.3679 27.3859L25.8897 26.9261L25.5699 27.6658C24.2472 30.7421 20.6811 32.1641 17.6047 30.8414C16.1788 30.2284 15.0428 29.0916 14.4291 27.6658L14.1092 26.9261L10.6311 27.3859C7.9838 27.7397 6.00684 29.9985 6.00684 32.6698V39.9993H33.9921V32.6698C33.9921 29.9992 32.0152 27.7404 29.3679 27.3859Z" fill="#2E6AA3"/>
<path d="M23.9977 25.7001V22.3685H16.002V25.7001C19.0003 26.9995 20.9993 26.9995 23.9977 25.7001Z" fill="#F5C4B0"/>
<path d="M6.00684 32.6697V39.9992H8.67209V28.0588C7.02434 29.0103 6.00887 30.7675 6.00684 32.6697Z" fill="#245E8F"/>
<path d="M11.3401 36.6671H8.6748V39.9987H11.3401V36.6671Z" fill="#FEDAC6"/>
<path d="M8.67502 36.6671H6.00977V39.9987H8.67502V36.6671Z" fill="#F5C4B0"/>
<path d="M33.9955 36.6671H28.665V39.9987H33.9955V36.6671Z" fill="#FEDAC6"/>
<path d="M27.3293 17.8709C27.338 18.8504 26.9875 19.7986 26.3432 20.5362L23.4647 23.7945C22.9596 24.3695 22.2313 24.7 21.4658 24.7007H18.5473C17.7817 24.7 17.0534 24.3695 16.5484 23.7945L13.6699 20.5029C13.0256 19.7653 12.6752 18.8171 12.6837 17.8376V12.014L24.6641 5.35083L27.3293 10.6813V17.8709Z" fill="#FEDAC6"/>
<path d="M27.3294 11.3477H26.6631V15.3456H27.3294C28.4335 15.3456 29.3283 14.4507 29.3283 13.3467C29.3284 12.2426 28.4335 11.3477 27.3294 11.3477Z" fill="#FEDAC6"/>
<path d="M10.6709 14.0129C10.6709 15.117 11.5657 16.0118 12.6698 16.0118H13.3362V12.0139H12.6698C11.5657 12.0139 10.6709 12.9095 10.6709 14.0129Z" fill="#F5C4B0"/>
<path d="M15.595 16.6782L15.3352 8.01611H12.9298L12.6699 17.5045C12.6733 19.0364 13.3363 20.4929 14.489 21.5024C14.489 21.5024 17.2009 24.4741 17.594 24.6741L16.1282 20.4963C15.6903 19.2742 15.5085 17.9742 15.595 16.6782Z" fill="#F5C4B0"/>
<path d="M28.6617 12.014L28.9615 8.05607C29.1674 5.77996 27.5843 3.72971 25.3301 3.35189C23.3278 0.950467 20.0436 0.0469449 17.0944 1.08641L16.115 1.43289C12.908 2.56626 10.8691 5.71933 11.1509 9.10889L11.3375 12.6803H12.6702L24.6638 5.35081L27.329 12.014H28.6617Z" fill="#A15D30"/>
<path d="M17.4076 1.01978L17.0944 1.11306L16.115 1.45954C12.908 2.59291 10.8691 5.74598 11.1509 9.13554L11.3375 12.6803H12.6702L15.7751 10.7813C15.6218 5.82395 16.4947 2.79885 17.4076 1.01978Z" fill="#8F4F24"/>
<path d="M27.3294 16.0118H26.6631V14.6792H27.3294C28.0643 14.6792 28.6621 14.0815 28.6621 13.3465C28.6621 12.6116 28.0644 12.0138 27.3294 12.0138H26.6631V10.6812H27.3294C28.7994 10.6812 29.9947 11.8766 29.9947 13.3464C29.9947 14.8163 28.7994 16.0118 27.3294 16.0118Z" fill="black"/>
<path d="M13.3365 16.6782H12.6701C11.2003 16.6782 10.0049 15.4828 10.0049 14.0129C10.0049 12.5431 11.2003 11.3477 12.6701 11.3477H13.3365V12.6803H12.6701C11.9352 12.6803 11.3375 13.278 11.3375 14.013C11.3375 14.748 11.9351 15.3457 12.6701 15.3457H13.3365V16.6782Z" fill="black"/>
<path d="M20.6656 16.7049H18.6667C18.4754 16.7049 18.2935 16.6229 18.1669 16.4796C18.0403 16.3363 17.9817 16.1458 18.005 15.9559L18.6714 10.6254L19.9933 10.7906L19.421 15.3722H20.665V16.7049H20.6656Z" fill="black"/>
<path d="M22.0008 18.0369H18.0029V19.3695H22.0008V18.0369Z" fill="black"/>
<path d="M21.4667 25.3677H18.547C17.5888 25.3664 16.6786 24.9533 16.0476 24.235L13.1685 20.9421C12.4162 20.0805 12.0078 18.9764 12.0178 17.8323V12.0147C12.0178 11.7728 12.149 11.5503 12.3603 11.4324L24.3399 4.7692C24.4991 4.68123 24.6884 4.6606 24.8603 4.71459C25.0342 4.76857 25.1788 4.89052 25.2601 5.0531L27.9253 10.3836C27.9713 10.4763 27.9953 10.5781 27.9953 10.6814V17.869C28.0053 19.0104 27.5962 20.1138 26.8439 20.9747L23.9634 24.2363C23.3338 24.9533 22.4229 25.3663 21.4667 25.3677ZM13.3496 12.4058V17.8377C13.3423 18.6606 13.6342 19.4488 14.1712 20.0638L17.049 23.3554C17.4269 23.7859 17.9732 24.0331 18.5476 24.0344H21.4654C22.0378 24.0331 22.5848 23.7859 22.9639 23.3541L25.8431 20.0945C26.3782 19.4815 26.67 18.6925 26.662 17.8763C26.662 17.8743 26.662 17.8723 26.662 17.8703V10.8387L24.3786 6.27179L13.3496 12.4058Z" fill="black"/>
<path d="M16.0045 13.3726C16.7406 13.3726 17.3372 12.776 17.3372 12.0399C17.3372 11.3039 16.7406 10.7073 16.0045 10.7073C15.2685 10.7073 14.6719 11.3039 14.6719 12.0399C14.6719 12.776 15.2685 13.3726 16.0045 13.3726Z" fill="black"/>
<path d="M23.3336 13.3726C24.0697 13.3726 24.6663 12.776 24.6663 12.0399C24.6663 11.3039 24.0697 10.7073 23.3336 10.7073C22.5976 10.7073 22.001 11.3039 22.001 12.0399C22.001 12.776 22.5976 13.3726 23.3336 13.3726Z" fill="black"/>
<path d="M10.6716 12.7156L10.4851 9.1442C10.1792 5.4755 12.4027 2.03859 15.8929 0.805225L16.8724 0.458738C19.9921 -0.639317 23.5009 0.277487 25.6844 2.74219C28.1378 3.27923 29.8536 5.59136 29.6257 8.11606L29.3265 12.0647L27.9979 11.9641L28.2978 8.00614C28.4717 6.07847 27.1197 4.32744 25.2207 4.00955C25.0634 3.98291 24.9209 3.90158 24.8183 3.779C23.0039 1.60211 19.9882 0.773897 17.3162 1.71539L16.3374 2.06188C13.4176 3.09337 11.5586 5.96917 11.8151 9.0542L12.003 12.6463L10.6716 12.7156Z" fill="black"/>
<path d="M19.3356 22.0348H18.0029V24.7001H19.3356V22.0348Z" fill="black"/>
<path d="M22.0016 22.0348H20.6689V24.0337H22.0016V22.0348Z" fill="black"/>
<path d="M16.5955 23.0001L17.2617 21.6676L16.0698 21.0717L15.4036 22.4042L16.5955 23.0001Z" fill="black"/>
<path d="M23.3653 23.5803L24.6289 23.1592L23.9627 21.1604L22.6991 21.5815L23.3653 23.5803Z" fill="black"/>
<path d="M6.67349 40H5.34082V32.6705C5.34082 29.678 7.57701 27.1227 10.5434 26.7256L14.7546 26.1659C15.089 26.1226 15.3382 25.836 15.3356 25.4996V23.342H16.6683V25.4935C16.6769 26.497 15.9293 27.3565 14.9285 27.4865L10.7194 28.0462C8.41327 28.3547 6.67349 30.3423 6.67349 32.6698C6.67349 32.6699 6.67349 40 6.67349 40Z" fill="black"/>
<path d="M34.6588 40H33.3262V32.6705C33.3202 30.351 31.5811 28.3681 29.2797 28.0602L25.0699 27.5005C24.0704 27.3693 23.3234 26.5097 23.3321 25.5016V23.342H24.6648V25.5076C24.6614 25.8494 24.9113 26.1353 25.2452 26.18L29.4563 26.7396C32.4154 27.1354 34.6522 29.6841 34.6595 32.6692V40.0001H34.6588V40Z" fill="black"/>
<path d="M20.0011 32.0042C19.9998 32.0035 19.9978 32.0035 19.9978 32.0042C17.3039 32.0042 14.8771 30.4051 13.817 27.9283L13.3906 26.9368L14.6153 26.4111L15.0417 27.4033C15.892 29.3889 17.8376 30.6716 19.9978 30.6716C19.9998 30.6709 19.9998 30.6709 20.0004 30.6716C22.1606 30.6716 24.1063 29.3889 24.9572 27.404L25.3836 26.4111L26.6083 26.9368L26.1819 27.929C25.1211 30.4044 22.6957 32.0042 20.0011 32.0042Z" fill="black"/>
<path d="M12.0065 34.6681H10.6738V39.9986H12.0065V34.6681Z" fill="black"/>
<path d="M11.3403 36.0007H6.00977V37.3334H11.3403V36.0007Z" fill="black"/>
<path d="M29.3307 34.6681H27.998V39.9986H29.3307V34.6681Z" fill="black"/>
<path d="M33.9946 36.0007H28.6641V37.3334H33.9946V36.0007Z" fill="black"/>
</g>
<defs>
<clipPath id="clip0">
<rect width="40" height="40" fill="white"/>
</clipPath>
</defs>
</svg>
