<svg width="40" height="40" viewBox="0 0 40 40" fill="none" xmlns="http://www.w3.org/2000/svg">
<g clip-path="url(#clip0)">
<path d="M25.9999 31.3334H13.9999C11.9912 30.5207 10.6738 28.5734 10.6665 26.4067V9.99999C10.6665 4.8453 14.8452 0.666626 19.9999 0.666626C25.1546 0.666626 29.3332 4.8453 29.3332 9.99999V26.4066C29.3265 28.5734 28.0085 30.5207 25.9999 31.3334Z" fill="#F5AD76"/>
<path d="M11.3331 34.6666H8.6665V40H11.3331V34.6666Z" fill="#FEDAC6"/>
<path d="M8.66664 34.6666H6V40H8.66664V34.6666Z" fill="#F5C4B0"/>
<path d="M34.0004 34.6666H28.667V40H34.0004V34.6666Z" fill="#FEDAC6"/>
<path d="M34.0004 31.5334C34.0158 29.5034 32.5084 27.7834 30.4938 27.5334L25.8672 26.9534L24.5338 26.7867C23.8631 26.702 23.3618 26.1294 23.3672 25.4534V22H16.6672V25.4866C16.6725 26.1627 16.1712 26.7353 15.5005 26.82L14.1339 26.9866L9.50725 27.5666C7.49256 27.8166 5.98521 29.5366 6.00061 31.5666V34.6666H11.334L11.194 34.9466C10.4093 36.5153 10.0006 38.2459 10.0006 40H30.0006C30.0013 38.246 29.5926 36.5153 28.8072 34.9466L28.6672 34.6666H34.0006V31.5334H34.0004Z" fill="#3CACDE"/>
<path d="M23.3336 25.6934V22H16.667V25.6934C19.1669 26.9934 20.8336 26.9934 23.3336 25.6934Z" fill="#FEDAC6"/>
<path d="M10.6671 36.1399C10.2138 37.3759 9.98785 38.6832 10.0005 39.9999H14.4539C12.6825 39.3372 11.2958 37.9239 10.6671 36.1399Z" fill="#329AC7"/>
<path d="M23.3336 24V22H16.667V25.3334C18.3269 25.44 20.0003 25.3334 23.3336 24Z" fill="#F5C4B0"/>
<path d="M8.66664 27.7666C7.07 28.3313 6.00195 29.84 6 31.5332V34.6666H8.66664V27.7666Z" fill="#329AC7"/>
<path d="M25.9999 31.3334V9.99999C24.7232 9.65866 23.5685 8.966 22.6665 7.99999C21.6878 6.96397 20.7958 5.84866 19.9999 4.66663C19.2039 5.84866 18.3119 6.96397 17.3332 7.99999C16.2972 8.97866 15.1819 9.87069 13.9999 10.6666V31.3333C11.9912 30.5206 10.6738 28.5733 10.6665 26.4066V9.99999C10.6665 4.8453 14.8452 0.666626 19.9999 0.666626C25.1546 0.666626 29.3332 4.8453 29.3332 9.99999V26.4066C29.3265 28.5734 28.0085 30.5207 25.9999 31.3334Z" fill="#FECB66"/>
<path d="M17.3799 1.04651C13.4025 2.20987 10.6685 5.85588 10.6665 9.99987V26.4065C10.6738 28.5732 11.9912 30.5205 13.9999 31.3332V10.6665C14.9865 9.99721 15.9306 9.26651 16.8265 8.47987C16.6332 5.98854 16.8199 3.4819 17.3799 1.04651Z" fill="#F5AD76"/>
<path d="M26.0001 19.8933C25.2767 20.98 24.2814 21.858 23.1134 22.44L21.7801 23.1066L23.0401 22.4733L21.7801 23.1066C20.6554 23.668 19.3314 23.668 18.2067 23.1066L16.8734 22.44C15.806 21.7647 14.8394 20.9433 14 20V10.6666C15.182 9.87061 16.2973 8.97866 17.3334 7.99999C18.312 6.96397 19.2041 5.84866 20 4.66663C20.796 5.84866 21.688 6.96397 22.6667 7.99999C23.5687 8.966 24.7233 9.65866 26 9.99999V19.8933H26.0001Z" fill="#FEDAC6"/>
<path d="M16.6666 8.62C15.8187 9.35398 14.928 10.0373 14 10.6666V20C14.8434 20.9447 15.8147 21.766 16.8866 22.44L17.8733 22.94C17.1259 20.7 16.7186 18.3607 16.6666 16V8.62Z" fill="#F5C4B0"/>
<path d="M24.0004 14C24.7368 14 25.3337 13.403 25.3337 12.6666C25.3337 11.9302 24.7368 11.3333 24.0004 11.3333C23.264 11.3333 22.667 11.9302 22.667 12.6666C22.667 13.403 23.264 14 24.0004 14Z" fill="black"/>
<path d="M18.8623 17.138L17.529 15.8047C17.2683 15.544 17.2683 15.1227 17.529 14.862L18.8624 13.5287L19.805 14.4713L18.943 15.3334L19.805 16.1954L18.8623 17.138Z" fill="black"/>
<path d="M14.0827 27.6614L13.918 26.3387L15.418 26.1521C15.7527 26.11 16.0033 25.8234 16.0006 25.4854V22.6667H17.334V25.4801C17.342 26.4894 16.59 27.3494 15.5833 27.4748L14.0827 27.6614Z" fill="black"/>
<path d="M6.66691 40H5.33363V31.5334C5.31566 29.17 7.07433 27.1641 9.42495 26.8721L10.5536 26.6768L10.7803 27.9907L9.62027 28.1907C7.91027 28.4041 6.65426 29.8374 6.66691 31.5287V40Z" fill="black"/>
<path d="M34.667 40H33.3336V31.56C33.347 29.8634 32.0903 28.4307 30.4116 28.2214L29.2056 27.9874L29.4609 26.6787L30.6209 26.9054C32.9262 27.1907 34.6849 29.1974 34.6662 31.5647V40H34.667Z" fill="black"/>
<path d="M25.9205 27.662L24.4205 27.482C23.4112 27.3547 22.6585 26.4947 22.6666 25.4813V22.6666H23.9999V25.4866C23.9973 25.83 24.2479 26.1159 24.5833 26.1587L26.0793 26.338L25.9205 27.662Z" fill="black"/>
<path d="M19.1752 19.3333C19.1745 19.3333 19.1738 19.3333 19.1731 19.3333H18.6665V18H19.1731C19.1738 18 19.1745 18 19.1752 18C20.0478 18 20.9212 17.7939 21.7018 17.4033L22.2985 18.596C21.3339 19.0786 20.2539 19.3333 19.1752 19.3333Z" fill="black"/>
<path d="M16.0004 14C16.7367 14 17.3337 13.403 17.3337 12.6666C17.3337 11.9302 16.7367 11.3333 16.0004 11.3333C15.264 11.3333 14.667 11.9302 14.667 12.6666C14.667 13.403 15.264 14 16.0004 14Z" fill="black"/>
<path d="M25.3741 21.3334H25.3335V20L25.3741 21.3334Z" fill="black"/>
<path d="M14 32C13.9153 32 13.8307 31.984 13.75 31.9513C11.48 31.0334 10.008 28.858 10 26.4093V10C10 4.48602 14.486 0 20 0C25.514 0 30 4.48602 30 10V26.4066C29.9921 28.858 28.52 31.0327 26.25 31.9506C26.044 32.0333 25.8113 32.0099 25.6274 31.8853C25.4434 31.7627 25.3334 31.5546 25.3334 31.3333V10.494C24.132 10.0853 23.0494 9.38664 22.1794 8.45469C21.4007 7.63 20.6701 6.74867 20.0001 5.82867C19.3301 6.75 18.5981 7.63133 17.8181 8.45734C16.8201 9.40133 15.7681 10.2547 14.6667 11.018V31.3334C14.6667 31.5547 14.5567 31.7627 14.3727 31.886C14.2613 31.9613 14.1306 32 14 32ZM20 4C20.222 4 20.4293 4.1107 20.5534 4.29398C21.326 5.44133 22.2 6.53398 23.152 7.54195C23.9713 8.41992 25.0154 9.04664 26.172 9.35531C26.4634 9.43398 26.6667 9.69797 26.6667 10V30.2207C27.902 29.3654 28.6614 27.9554 28.6667 26.4047V10C28.6667 5.22133 24.7788 1.33336 20.0001 1.33336C15.2214 1.33336 11.3334 5.22133 11.3334 10V26.4066C11.3387 27.9553 12.098 29.3653 13.3334 30.2206V10.6666C13.3334 10.4446 13.4441 10.2373 13.6273 10.1133C14.776 9.33992 15.8687 8.46531 16.8753 7.51531C17.7987 6.53602 18.6733 5.44328 19.4466 4.29398C19.5706 4.1107 19.778 4 20 4Z" fill="black"/>
<path d="M19.9929 24.1914C19.2769 24.1914 18.5616 24.0287 17.9096 23.7034L16.5756 23.0368C16.5556 23.0268 16.5363 23.0161 16.5176 23.0034C15.3983 22.2954 14.3836 21.4341 13.5029 20.4434L14.4989 19.5574C15.2903 20.4467 16.1996 21.2214 17.2029 21.8594L18.5063 22.5115C19.4376 22.9761 20.5516 22.9754 21.4829 22.5115L22.7422 21.8788C22.7615 21.8688 22.7815 21.8608 22.8009 21.8528L22.8162 21.8448C23.8802 21.3148 24.7889 20.5128 25.4455 19.5255L26.5562 20.2635C25.7696 21.4455 24.6822 22.4048 23.4115 23.0382L22.0789 23.7042C22.0775 23.7049 22.0762 23.7055 22.0749 23.7062C21.4222 24.0293 20.7076 24.1914 19.9929 24.1914Z" fill="black"/>
<path d="M9.3335 40C9.3335 38.1521 9.77014 36.3014 10.5975 34.6487L10.6668 34.5094V32.6667H12.0001V34.6667C12.0001 34.7701 11.9762 34.8728 11.9301 34.9647L11.7901 35.2447C11.0548 36.7134 10.6668 38.3581 10.6668 40H9.3335Z" fill="black"/>
<path d="M30.6667 40H29.3334C29.3341 38.358 28.946 36.714 28.21 35.2447L28.07 34.9647C28.024 34.8727 28 34.77 28 34.6667V32.6667H29.3334V34.5094L29.4027 34.6487C30.2307 36.3021 30.6674 38.1527 30.6667 40Z" fill="black"/>
<path d="M19.9998 27.2621C18.6825 27.2621 17.3651 26.8481 16.2651 26.02L17.0672 24.9547C18.7938 26.2554 21.2052 26.2554 22.9319 24.9547L23.7339 26.02C22.6352 26.8474 21.3178 27.2621 19.9998 27.2621Z" fill="black"/>
<path d="M11.3334 34H6V35.3334H11.3334V34Z" fill="black"/>
<path d="M34.0004 34H28.667V35.3334H34.0004V34Z" fill="black"/>
</g>
<defs>
<clipPath id="clip0">
<rect width="40" height="40" fill="white"/>
</clipPath>
</defs>
</svg>
