<svg width="40" height="40" viewBox="0 0 40 40" fill="none" xmlns="http://www.w3.org/2000/svg">
<g clip-path="url(#clip0)">
<path d="M23.9938 25.7469C28.6534 24.2624 31.3161 19.7559 31.3161 19.7559C30.07 18.9245 29.3205 17.526 29.3191 16.0282V9.98406C29.3191 5.58871 26.2484 1.7911 21.9503 0.871173C20.6642 0.598281 19.3356 0.598281 18.0494 0.871173C13.7513 1.7911 10.6806 5.58871 10.6806 9.98406V16.0282C10.6792 17.526 9.9297 18.9245 8.68359 19.7559C8.68359 19.7559 10.6806 25.0812 16.0059 25.7469H23.9938Z" fill="#DBDBDB"/>
<path d="M18.522 0.797791C18.3623 0.797791 18.2025 0.837713 18.0494 0.870994C13.7513 1.79092 10.6806 5.58853 10.6806 9.98388V16.0281C10.6792 17.5258 9.9297 18.9243 8.68359 19.7558C8.68359 19.7558 10.6806 25.081 16.0059 25.7467H18.9282C16.8838 17.5718 16.7454 9.03598 18.522 0.797791Z" fill="#BFBFBF"/>
<path d="M29.3591 27.3376L24.5331 26.672L19.9999 29.288L15.4668 26.6986L10.6407 27.3643C8.00601 27.7164 6.03436 29.9576 6.021 32.6163V39.9387H33.9788V32.6163C33.9795 29.9484 32.0045 27.6918 29.3591 27.3376Z" fill="#DBDBDB"/>
<path d="M24.5331 26.6987L23.9939 26.6255V21.9659H16.0059V26.6255L15.4668 26.6987L20 29.2881L24.5331 26.6987Z" fill="#FEDAC6"/>
<path d="M16.0061 31.9508L20.0001 29.2881L16.0061 26.6255H14.6748L16.0061 31.9508Z" fill="#EAEAEA"/>
<path d="M20 29.2881L23.9939 31.9508L25.3253 26.6255H23.9939L20 29.2881Z" fill="#EAEAEA"/>
<path d="M18.0029 39.9387L18.6686 32.6164L18.0029 30.6194L19.9999 29.2881L21.9969 30.6194L21.3312 32.6164L21.9969 39.9387" fill="#2E6AA3"/>
<path d="M6.021 32.6164V39.9387H8.68367V28.01C7.03811 28.9606 6.02303 30.716 6.021 32.6164Z" fill="#BFBFBF"/>
<path d="M16.0059 21.9659V24.6286L16.5916 25.2143C17.4956 26.1183 18.7217 26.6255 19.9998 26.6255C21.2779 26.6255 22.504 26.1183 23.4079 25.2143L23.9937 24.6286V21.9659H16.0059Z" fill="#F5C4B0"/>
<path d="M27.3222 8.17335V17.5925C27.3309 18.571 26.9807 19.5183 26.337 20.2552L23.4614 23.5103C22.9569 24.0847 22.2293 24.4149 21.4644 24.4156H18.5489C17.784 24.4149 17.0564 24.0847 16.5519 23.5103L13.6762 20.2219C13.0326 19.485 12.6824 18.5377 12.6911 17.5592V8.17335C12.6918 7.07037 13.5857 6.17638 14.6887 6.177C14.8092 6.177 14.9291 6.18763 15.0475 6.20966L16.2058 6.41599C18.7233 6.87529 21.3034 6.87529 23.8209 6.41599L24.9792 6.20966C26.0656 6.01864 27.1007 6.74419 27.2924 7.83053C27.3123 7.94366 27.3222 8.05881 27.3222 8.17335Z" fill="#FEDAC6"/>
<path d="M27.3224 11.1023H26.6567V15.0962H27.3224C28.4253 15.0962 29.3193 14.2022 29.3193 13.0993C29.3193 11.9963 28.4254 11.1023 27.3224 11.1023Z" fill="#FEDAC6"/>
<path d="M10.6807 13.0993C10.6807 14.2022 11.5747 15.0962 12.6776 15.0962H13.3433V11.1023H12.6776C11.5747 11.1023 10.6807 11.9969 10.6807 13.0993Z" fill="#FEDAC6"/>
<path d="M24.6596 19.0902H15.3403V18.4246C15.3403 16.9541 16.5325 15.7619 18.003 15.7619H21.9969C23.4674 15.7619 24.6596 16.9541 24.6596 18.4246V19.0902Z" fill="#DBDBDB"/>
<path d="M15.3405 6.26285L15.0343 6.20956C13.9493 6.0112 12.9088 6.72941 12.7105 7.8145C12.6885 7.93302 12.6779 8.05278 12.6779 8.17325V17.5924C12.6692 18.5709 13.0194 19.5182 13.6631 20.2551L15.3405 22.1323V6.26285Z" fill="#F5C4B0"/>
<path d="M27.3224 15.7625H26.6567V14.4312H27.3224C28.0566 14.4312 28.6537 13.8341 28.6537 13.0999C28.6537 12.3656 28.0566 11.7685 27.3224 11.7685H26.6567V10.4372H27.3224C28.7908 10.4372 29.9851 11.6314 29.9851 13.0999C29.9851 14.5683 28.7908 15.7625 27.3224 15.7625Z" fill="black"/>
<path d="M13.3434 15.7625H12.6778C11.2094 15.7625 10.0151 14.5683 10.0151 13.0999C10.0151 11.6314 11.2094 10.4372 12.6778 10.4372H13.3434V11.7685H12.6778C11.9436 11.7685 11.3465 12.3656 11.3465 13.0999C11.3465 13.8341 11.9436 14.4312 12.6778 14.4312H13.3434V15.7625Z" fill="black"/>
<path d="M20.6654 16.4282H18.6684C18.4774 16.4282 18.2957 16.3463 18.1692 16.2032C18.0427 16.06 17.9841 15.8696 18.0075 15.68L18.6731 10.3547L19.9937 10.5198L19.4219 15.0968H20.6648V16.4282H20.6654Z" fill="black"/>
<path d="M21.4658 25.0819H18.5489C17.5917 25.0805 16.6824 24.6678 16.052 23.9502L13.1757 20.6612C12.4241 19.8005 12.0161 18.6968 12.0261 17.5545V8.17337C12.0261 7.4618 12.3036 6.79344 12.8062 6.29086C13.3088 5.78828 13.9771 5.51202 14.688 5.51202C14.6887 5.51202 14.6887 5.51202 14.6894 5.51202C14.8498 5.51202 15.0102 5.52601 15.1687 5.55531L16.3229 5.76101C18.7732 6.20703 21.2548 6.20836 23.7018 5.76101L24.8627 5.55398C26.3138 5.29702 27.6931 6.2682 27.9481 7.71407C27.9747 7.8672 27.9887 8.02025 27.9887 8.17275V17.5919C27.9993 18.7275 27.5906 19.8312 26.8384 20.6919L23.9608 23.9503C23.331 24.6672 22.4211 25.0805 21.4658 25.0819ZM14.688 6.84336C14.3319 6.84336 13.9984 6.9818 13.7468 7.23274C13.4951 7.48368 13.3567 7.81853 13.3567 8.174V17.5599C13.3493 18.382 13.6409 19.1701 14.1775 19.7852L17.0525 23.0729C17.4299 23.5029 17.9758 23.7505 18.5495 23.7512H21.4645C22.0363 23.7504 22.5828 23.5029 22.9615 23.0715L25.8379 19.8151C26.3724 19.2027 26.664 18.4145 26.656 17.5991V8.17337C26.656 8.09618 26.6487 8.01962 26.636 7.94368C26.5089 7.22344 25.8173 6.73883 25.095 6.86532L23.9381 7.07165C21.3347 7.54626 18.6927 7.54563 16.0859 7.07165L14.931 6.86532C14.8484 6.85 14.7686 6.84336 14.688 6.84336C14.6887 6.84336 14.688 6.84336 14.688 6.84336Z" fill="black"/>
<path d="M16.0096 13.1C16.7448 13.1 17.3409 12.5039 17.3409 11.7687C17.3409 11.0334 16.7448 10.4373 16.0096 10.4373C15.2743 10.4373 14.6782 11.0334 14.6782 11.7687C14.6782 12.5039 15.2743 13.1 16.0096 13.1Z" fill="black"/>
<path d="M23.3318 13.1C24.0671 13.1 24.6632 12.5039 24.6632 11.7687C24.6632 11.0334 24.0671 10.4373 23.3318 10.4373C22.5966 10.4373 22.0005 11.0334 22.0005 11.7687C22.0005 12.5039 22.5966 13.1 23.3318 13.1Z" fill="black"/>
<path d="M24.6597 19.7566H15.3404C14.973 19.7566 14.6748 19.4583 14.6748 19.0909V18.4253C14.6748 16.59 16.1679 15.097 18.0031 15.097H21.997C23.8323 15.097 25.3254 16.59 25.3254 18.4253V19.0909C25.3254 19.4583 25.0279 19.7566 24.6597 19.7566ZM16.0061 18.4252H23.994C23.994 17.3242 23.0981 16.4282 21.997 16.4282H18.0031C16.9021 16.4282 16.0061 17.3235 16.0061 18.4252Z" fill="black"/>
<path d="M21.3346 21.0878H18.6719V22.4191H21.3346V21.0878Z" fill="black"/>
<path d="M11.3465 14.4313H10.0151V9.98469C10.0151 5.30645 13.3355 1.19994 17.9099 0.220788C19.2972 -0.0734332 20.7023 -0.0734332 22.0883 0.220788C26.664 1.20001 29.9844 5.30645 29.9844 9.98469V13.7657H28.653V9.98469C28.653 5.93013 25.7753 2.37088 21.8107 1.52283C20.6092 1.2672 19.3904 1.26791 18.1875 1.52283C14.2235 2.37088 11.3465 5.93021 11.3465 9.98469V14.4313Z" fill="black"/>
<path d="M20.6692 3.11493H19.3379V7.10887H20.6692V3.11493Z" fill="black"/>
<path d="M18.0061 3.78064H16.6748V6.44332H18.0061V3.78064Z" fill="black"/>
<path d="M23.3318 3.78064H22.0005V6.44332H23.3318V3.78064Z" fill="black"/>
<path d="M24.1965 26.3818L23.7925 25.1131C27.2606 24.0081 29.5997 21.0752 30.4198 19.9069C29.3048 18.9364 28.6558 17.5292 28.6545 16.0295V13.7656H29.9858V16.0288C29.9871 17.3062 30.6229 18.4931 31.6866 19.2026C31.9808 19.399 32.0701 19.7905 31.891 20.0953C31.7758 20.2877 29.0419 24.8368 24.1965 26.3818Z" fill="black"/>
<path d="M28.9225 22.76C27.7463 21.8861 26.861 20.6945 26.3638 19.3166L27.6159 18.8646C28.0246 19.9963 28.7508 20.9735 29.7167 21.6917L28.9225 22.76Z" fill="black"/>
<path d="M26.9154 24.9433C25.9262 24.1792 25.1614 23.16 24.7061 21.9964L25.9448 21.5105C26.3136 22.4504 26.93 23.2725 27.7294 23.8889L26.9154 24.9433Z" fill="black"/>
<path d="M15.9235 26.4078C10.264 25.7002 8.14788 20.2231 8.05999 19.9901C7.95147 19.6999 8.05663 19.3737 8.31358 19.202C9.37734 18.4924 10.013 17.3055 10.0144 16.0275V13.7656H11.3457V16.0288C11.3444 17.5625 10.6661 18.9976 9.50718 19.9695C10.1109 21.203 12.1139 24.5906 16.0879 25.0871L15.9235 26.4078Z" fill="black"/>
<path d="M11.0783 22.76L10.2842 21.6917C11.25 20.9741 11.9763 19.9963 12.385 18.8646L13.6371 19.3166C13.1392 20.6951 12.2545 21.886 11.0783 22.76Z" fill="black"/>
<path d="M13.0844 24.9434L12.271 23.889C13.0705 23.2726 13.6869 22.4505 14.055 21.5113L15.2945 21.9965C14.8391 23.1601 14.0743 24.1792 13.0844 24.9434Z" fill="black"/>
<path d="M6.68681 39.9394H5.35547V32.6171C5.35547 29.6276 7.58939 27.0748 10.5529 26.6781L15.3404 26.0431V22.6323H16.6717V26.6262C16.6717 26.9597 16.4241 27.2426 16.0933 27.2859L10.728 27.9975C8.42416 28.3057 6.6861 30.2913 6.68681 32.6165V39.9394Z" fill="black"/>
<path d="M34.6444 39.9394H33.313V32.617C33.313 30.2919 31.5757 28.3055 29.2705 27.998L23.9059 27.2864C23.5751 27.2432 23.3281 26.9603 23.3281 26.6268V22.6328H24.6595V26.0437L29.4462 26.6787C32.4098 27.0748 34.6444 29.6283 34.6444 32.6177V39.9394Z" fill="black"/>
<path d="M12.0154 34.6141H10.6841V39.9394H12.0154V34.6141Z" fill="black"/>
<path d="M29.3225 34.6141H27.9912V39.9394H29.3225V34.6141Z" fill="black"/>
<path d="M16.0059 32.6171C15.9247 32.6171 15.8434 32.6025 15.7655 32.5725C15.5638 32.4946 15.4127 32.3229 15.3601 32.1132L14.0288 26.7879L15.3202 26.4657L16.4226 30.8744L19.6304 28.7356L20.3686 29.8433L16.3747 32.506C16.2648 32.5791 16.1357 32.6171 16.0059 32.6171Z" fill="black"/>
<path d="M20.0001 29.9545C19.8862 29.9545 19.7724 29.9252 19.6699 29.8666L15.0103 27.2039L15.6706 26.0483L20.0001 28.5226L24.3295 26.0483L24.9899 27.2039L20.3302 29.8666C20.2283 29.9252 20.1145 29.9545 20.0001 29.9545Z" fill="black"/>
<path d="M23.9938 32.6172C23.8646 32.6172 23.7355 32.5792 23.6243 32.5054L19.6304 29.8427L20.3686 28.735L23.5764 30.8738L24.6788 26.4651L25.9695 26.7873L24.6381 32.1126C24.5862 32.3222 24.4345 32.494 24.2327 32.5719C24.1562 32.6019 24.075 32.6172 23.9938 32.6172Z" fill="black"/>
<path d="M18.6659 40L17.3398 39.8789L17.9929 32.6957L17.3712 30.8305L18.6339 30.4092L19.2995 32.4061C19.3281 32.4933 19.3395 32.5859 19.3308 32.6771L18.6659 40Z" fill="black"/>
<path d="M21.3342 40L20.6686 32.6777C20.6606 32.5858 20.6712 32.4939 20.7005 32.4068L21.3662 30.4098L22.6283 30.8311L22.0066 32.6963L22.6596 39.8795L21.3342 40Z" fill="black"/>
<path d="M21.3346 31.9514H18.6719V33.2828H21.3346V31.9514Z" fill="black"/>
</g>
<defs>
<clipPath id="clip0">
<rect width="40" height="40" fill="white"/>
</clipPath>
</defs>
</svg>
