<svg width="40" height="40" viewBox="0 0 40 40" fill="none" xmlns="http://www.w3.org/2000/svg">
<g clip-path="url(#clip0)">
<path d="M27.9964 14.6666V19.28C27.9971 21.6193 29.6891 23.6153 31.9964 24V6C31.9964 3.7907 30.2057 2 27.9964 2H24.6631L27.9964 8.66664V14.6666Z" fill="#5C3724"/>
<path d="M28.6634 10.6666V9.33327C28.6634 4.54663 24.7834 0.666626 19.9967 0.666626C15.2101 0.666626 11.3301 4.54663 11.3301 9.33327V12.6666H28.6634V10.6666H28.6634Z" fill="#70432C"/>
<path d="M16.8367 1.26666C13.5167 2.56666 11.3314 5.76799 11.3301 9.33331V12.6667H15.0501C15.0127 8.79401 15.6161 4.94205 16.8367 1.26666Z" fill="#5C3724"/>
<path d="M11.3297 34.6666H8.66309V40H11.3297V34.6666Z" fill="#FEDAC6"/>
<path d="M8.66371 34.6666H5.99707V40H8.66371V34.6666Z" fill="#F5C4B0"/>
<path d="M33.9964 34.6666H28.6631V40H33.9964V34.6666Z" fill="#FEDAC6"/>
<path d="M33.9971 31.5334C34.0124 29.5034 32.5051 27.7834 30.4905 27.5334L25.8638 26.9534L25.5705 27.62C24.2471 30.698 20.6791 32.1207 17.6012 30.7974C16.1745 30.184 15.0378 29.0467 14.4238 27.62L14.1305 26.9534L9.50383 27.5334C7.48914 27.7834 5.9818 29.5034 5.99719 31.5334V34.6667H11.3305L11.1905 34.9467C10.4052 36.5154 9.99656 38.246 9.99719 40.0001H29.9972C29.9979 38.2461 29.5892 36.5154 28.8038 34.9467L28.6638 34.6667H33.9972V31.5334H33.9971Z" fill="#2E6AA3"/>
<path d="M8.66371 27.7666C7.06707 28.3313 5.99902 29.84 5.99707 31.5332V34.6666H8.66371V27.7666Z" fill="#245E8F"/>
<path d="M19.9964 31.3334C22.4218 31.3347 24.6144 29.8894 25.5698 27.66L25.8632 26.9934L24.5298 26.8267C23.8591 26.742 23.3578 26.1694 23.3632 25.4934V22H16.6632V25.4866C16.6685 26.1627 16.1671 26.7353 15.4965 26.82L14.1299 26.9866L14.4232 27.6533C15.3764 29.8853 17.5698 31.3334 19.9964 31.3334Z" fill="#FEDAC6"/>
<path d="M23.3297 25.6934V22H16.6631V25.6934C19.1631 26.9934 20.8297 26.9934 23.3297 25.6934Z" fill="#F5C4B0"/>
<path d="M10.6632 36.14C10.2099 37.376 9.98394 38.6834 9.9966 40H14.45C12.6786 39.3373 11.2919 37.924 10.6632 36.14Z" fill="#245E8F"/>
<path d="M23.9964 14C24.7328 14 25.3298 13.4031 25.3298 12.6667C25.3298 11.9303 24.7328 11.3333 23.9964 11.3333C23.2601 11.3333 22.6631 11.9303 22.6631 12.6667C22.6631 13.4031 23.2601 14 23.9964 14Z" fill="black"/>
<path d="M19.7865 17.2993L17.7865 16.6327C17.6031 16.5713 17.4552 16.434 17.3818 16.2553C17.3078 16.0767 17.3152 15.8746 17.4011 15.702L19.4011 11.702L20.5937 12.2986L18.9377 15.6113L20.2084 16.0346L19.7865 17.2993Z" fill="black"/>
<path d="M15.3304 14C16.0668 14 16.6638 13.4031 16.6638 12.6667C16.6638 11.9303 16.0668 11.3333 15.3304 11.3333C14.594 11.3333 13.9971 11.9303 13.9971 12.6667C13.9971 13.4031 14.594 14 15.3304 14Z" fill="black"/>
<path d="M27.3299 10.6666L27.2032 15.8533C27.2225 18.654 25.6299 21.2166 23.1099 22.4399L21.7765 23.1065L23.0365 22.4732L21.7765 23.1065C20.6518 23.6679 19.3279 23.6679 18.2032 23.1065L16.8698 22.4399C14.3498 21.2165 12.7571 18.6539 12.7764 15.8533L12.6631 11.3333L14.3164 7.47327C14.5271 6.98327 15.0098 6.66592 15.5431 6.66663H24.5031C25.0091 6.66663 25.4711 6.95327 25.6964 7.40663L27.3299 10.6666Z" fill="#FEDAC6"/>
<path d="M9.99707 12.6666C9.99707 13.7713 10.8924 14.6666 11.9971 14.6666H13.3304V10.6666H11.9971C10.8925 10.6666 9.99707 11.562 9.99707 12.6666Z" fill="#F5C4B0"/>
<path d="M27.9964 10.6666H26.6631V14.6666H27.9964C29.1011 14.6666 29.9965 13.7713 29.9965 12.6666C29.9965 11.562 29.1011 10.6666 27.9964 10.6666Z" fill="#FEDAC6"/>
<path d="M15.3297 16.6266C14.9757 13.3066 15.095 9.95328 15.6831 6.66664H15.5431C14.9984 6.65594 14.5024 6.97797 14.2897 7.48L12.6631 11.3334L12.7897 15.8534C12.7704 18.6541 14.3631 21.2167 16.8831 22.44L17.1231 22.5666L16.6631 21.7C15.7831 20.1466 15.6097 18.5734 15.3297 16.6266Z" fill="#F5C4B0"/>
<path d="M23.9964 14C24.7328 14 25.3298 13.4031 25.3298 12.6667C25.3298 11.9303 24.7328 11.3333 23.9964 11.3333C23.2601 11.3333 22.6631 11.9303 22.6631 12.6667C22.6631 13.4031 23.2601 14 23.9964 14Z" fill="black"/>
<path d="M19.7865 17.2993L17.7865 16.6327C17.6031 16.5713 17.4552 16.434 17.3818 16.2553C17.3078 16.0767 17.3152 15.8746 17.4011 15.702L19.4011 11.702L20.5937 12.2986L18.9377 15.6113L20.2084 16.0346L19.7865 17.2993Z" fill="black"/>
<path d="M15.3304 14C16.0668 14 16.6638 13.4031 16.6638 12.6667C16.6638 11.9303 16.0668 11.3333 15.3304 11.3333C14.594 11.3333 13.9971 11.9303 13.9971 12.6667C13.9971 13.4031 14.594 14 15.3304 14Z" fill="black"/>
<path d="M25.3708 21.3334H25.3301V20L25.3708 21.3334Z" fill="black"/>
<path d="M11.9964 11.3334H10.6631V9.33336C10.6632 4.18664 14.8498 0 19.9964 0C25.1431 0 29.3298 4.18664 29.3298 9.33336V10.6667H27.9964V9.33336C27.9964 4.92203 24.4078 1.33336 19.9964 1.33336C15.5851 1.33336 11.9964 4.92203 11.9964 9.33336V11.3334Z" fill="black"/>
<path d="M19.9895 24.1913C19.2734 24.1913 18.5581 24.0287 17.9061 23.7034L16.5721 23.0367C13.8434 21.712 12.0895 18.8894 12.1108 15.8487L12.0988 15.3334H11.9967C10.526 15.3334 9.33008 14.1374 9.33008 12.6668C9.33008 11.1962 10.5262 10 11.9968 10H12.6634C13.0261 10 13.3221 10.29 13.3301 10.652L13.4434 15.8387C13.4261 18.3873 14.8855 20.736 17.1608 21.8407L18.5015 22.5107C19.4328 22.9754 20.5468 22.9747 21.4781 22.5107L22.7374 21.878C22.7567 21.868 22.7767 21.8601 22.7961 21.852L22.8114 21.8441C25.0941 20.7361 26.5534 18.3874 26.5367 15.858L26.6627 10.6507C26.672 10.2894 26.9674 10 27.3294 10H27.996C29.4667 10 30.6627 11.196 30.6627 12.6666C30.6627 14.1373 29.4666 15.3333 27.996 15.3333H27.8827L27.8693 15.8693C27.8893 18.8893 26.1353 21.712 23.4 23.0393L22.074 23.7027C22.0727 23.7034 22.0713 23.704 22.07 23.7047C21.4188 24.0293 20.7041 24.1913 19.9895 24.1913ZM27.9162 14H27.9969C28.7322 14 29.3302 13.402 29.3302 12.6666C29.3302 11.9313 28.7323 11.3333 27.9969 11.3333H27.9809L27.9162 14ZM11.9968 11.3334C11.2615 11.3334 10.6634 11.9313 10.6634 12.6667C10.6634 13.402 11.2614 14.0001 11.9968 14.0001H12.0695L11.9968 11.3334Z" fill="black"/>
<path d="M19.3304 6.66661H17.9971C17.9971 5.80661 17.175 4.78997 16.8584 4.4706L17.8024 3.52856C17.9584 3.68466 19.3304 5.102 19.3304 6.66661Z" fill="black"/>
<path d="M21.9964 6.66666H20.6631C20.6631 5.10197 22.0357 3.68462 22.1918 3.52869L23.1351 4.47072C22.8191 4.79001 21.9964 5.80666 21.9964 6.66666Z" fill="black"/>
<path d="M25.1559 7.11535L24.1699 6.21739C24.6286 5.7134 25.2552 5.40004 25.9333 5.33606L26.0593 6.6634C25.7126 6.69668 25.3919 6.85739 25.1559 7.11535Z" fill="black"/>
<path d="M15.5032 7.11528C15.2679 6.85731 14.9479 6.69661 14.6006 6.66395L14.7259 5.33661C15.4046 5.40059 16.0306 5.71395 16.4899 6.21864L15.5032 7.11528Z" fill="black"/>
<path d="M13.2826 11.5811L14.6162 8.24823L13.3784 7.75292L12.0447 11.0858L13.2826 11.5811Z" fill="black"/>
<path d="M26.7333 10.9645L27.9258 10.3682L26.5926 7.7018L25.4001 8.29804L26.7333 10.9645Z" fill="black"/>
<path d="M31.9964 24.6666C31.9598 24.6666 31.9238 24.6632 31.8871 24.6573C29.2471 24.2173 27.3305 21.9553 27.3298 19.28V14.6666H28.6632V19.28C28.6639 21.0279 29.7471 22.5426 31.3298 23.1346V5.99995C31.3298 4.16199 29.8345 2.66659 27.9964 2.66659H24.6631V1.33331H27.9964C30.5691 1.33331 32.6631 3.42667 32.6631 5.99995V24C32.6631 24.196 32.5771 24.382 32.4271 24.5086C32.3064 24.6113 32.1532 24.6666 31.9964 24.6666Z" fill="black"/>
<path d="M20.3904 19.3334H18.6631V18H20.3897C20.8118 18 21.2257 17.828 21.5244 17.5287L22.4684 18.4707C21.9217 19.0187 21.1644 19.3334 20.3904 19.3334Z" fill="black"/>
<path d="M6.66357 40H5.33021V31.5333C5.31225 29.17 7.07092 27.164 9.42154 26.872L15.4215 26.1254C15.7555 26.0833 16.0062 25.7967 16.0042 25.4587V22.6667H17.3376V25.4533C17.3455 26.4626 16.5929 27.3226 15.5876 27.448L9.58686 28.1947C7.90756 28.4033 6.65154 29.8367 6.6642 31.528V40H6.66357Z" fill="black"/>
<path d="M34.6699 40H33.3365V31.5666C33.3499 29.87 32.0931 28.4373 30.4145 28.228L24.4145 27.4819C23.4078 27.3553 22.6552 26.4953 22.6631 25.4819V22.6666H23.9965V25.4866C23.9939 25.83 24.2445 26.1159 24.5799 26.1587L30.5785 26.9047C32.9292 27.1967 34.6878 29.2033 34.6699 31.5713V40Z" fill="black"/>
<path d="M19.9998 31.9999C19.9971 31.9999 19.9945 31.9999 19.9925 31.9999C17.2985 31.9999 14.8718 30.3999 13.8104 27.9226L13.3838 26.9299L14.6091 26.4039L15.0357 27.3973C15.8871 29.3833 17.8331 30.6666 19.9931 30.6666C19.9951 30.6666 19.9971 30.6666 19.9991 30.6666C22.1604 30.6666 24.1064 29.3839 24.9578 27.3979L25.3844 26.4039L26.6097 26.9299L26.1831 27.9233C25.1218 30.3999 22.6945 31.9999 19.9998 31.9999Z" fill="black"/>
<path d="M9.33008 40C9.33008 38.1521 9.76672 36.3014 10.5941 34.6487L10.6634 34.5094V32.6667H11.9967V34.6667C11.9967 34.7701 11.9727 34.8728 11.9267 34.9647L11.7867 35.2447C11.0514 36.7134 10.6634 38.3581 10.6634 40H9.33008Z" fill="black"/>
<path d="M11.3304 34H5.99707V35.3334H11.3304V34Z" fill="black"/>
<path d="M33.9964 34H28.6631V35.3334H33.9964V34Z" fill="black"/>
<path d="M30.6638 40H29.3304C29.3311 38.358 28.9431 36.714 28.2071 35.2447L28.0671 34.9647C28.0211 34.8721 27.9971 34.77 27.9971 34.6667V32.6667H29.3304V34.5094L29.3997 34.6487C30.2278 36.3021 30.6644 38.1527 30.6638 40Z" fill="black"/>
</g>
<defs>
<clipPath id="clip0">
<rect width="40" height="40" fill="white"/>
</clipPath>
</defs>
</svg>
