<svg width="65" height="65" viewBox="0 0 65 65" fill="none" xmlns="http://www.w3.org/2000/svg">
<g opacity="0.75" clip-path="url(#clip0)">
<path d="M51.2241 28.2604C50.5847 28.3546 49.9346 28.4073 49.2845 28.4073C47.995 28.4073 46.7475 28.2077 45.5737 27.8514C43.5921 27.2432 41.8096 26.1529 40.3839 24.717C38.9475 23.2908 37.8572 21.5089 37.249 19.5273C36.8927 18.3529 36.6936 17.1054 36.6936 15.8159C36.6936 15.1658 36.7458 14.5162 36.8405 13.8763C37.249 11.2451 38.4863 8.79204 40.3942 6.8944L43.9274 3.37145C45.3326 1.96677 47.2507 1.18048 49.243 1.18048H49.3055C51.2978 1.18048 53.2159 1.97752 54.6211 3.3822L61.75 10.511C63.1552 11.9162 63.9517 13.8343 63.9517 15.8267C63.9517 17.8185 63.1654 19.7371 61.7607 21.1418L58.2065 24.7062C57.0322 25.8908 55.6378 26.8138 54.1179 27.4424C53.1955 27.8304 52.2203 28.1032 51.2241 28.2604Z" fill="#E6E9ED"/>
<path d="M56.6862 15.5748C57.3051 16.1932 57.6614 17.0532 57.6614 17.9234C57.6614 18.8141 57.3154 19.6531 56.6862 20.2823L55.2396 21.7392C53.6777 23.3117 51.5072 24.2137 49.2845 24.2137C44.6508 24.2137 40.8872 20.4497 40.8872 15.8159C40.8872 13.5932 41.7887 11.4232 43.3613 9.86086L44.7874 8.44595C45.4161 7.81681 46.2551 7.47076 47.1463 7.47076C48.1 7.47076 48.9283 7.81681 49.5574 8.44595L56.6862 15.5748Z" fill="#69D6F4"/>
<path d="M47.5655 35.0852C47.3454 35.4839 47.0725 35.8505 46.7475 36.1755L42.4597 40.4638L38.172 44.7515C37.2281 45.695 35.9386 46.2299 34.5968 46.2299C33.4435 46.2299 32.3429 45.8209 31.4517 45.1078C31.4517 46.041 31.2838 46.9635 30.9485 47.8235C30.6024 48.7771 30.0572 49.6684 29.3447 50.4234L19.9194 46.2299L18.871 45.1815L14.6775 35.7563C15.4326 35.0432 16.3233 34.498 17.2775 34.1525C18.137 33.8166 19.0599 33.6493 19.9926 33.6493C19.2801 32.758 18.871 31.6569 18.871 30.5041C18.871 29.1619 19.4055 27.8724 20.3494 26.9289L24.6372 22.6412L28.9249 18.3529C29.25 18.0279 29.617 17.7555 30.0153 17.5354C30.7596 17.1054 31.6196 16.8751 32.5001 16.8751C33.8418 16.8751 35.1313 17.4095 36.0752 18.3529L37.249 19.5273C37.8572 21.5088 38.9475 23.2908 40.384 24.717C41.8096 26.1529 43.5921 27.2432 45.5737 27.8514L46.7475 29.0257C47.6914 29.9691 48.2259 31.2586 48.2259 32.6009C48.2259 33.4813 47.995 34.3408 47.5655 35.0852Z" fill="#CCD1D9"/>
<path d="M31.4515 22.117L42.9838 33.6493L35.6451 40.988L24.1128 29.4557L31.4515 22.117Z" fill="#B4DD7F"/>
<path d="M35.6452 31.5525C35.6452 32.7104 34.7064 33.6492 33.5484 33.6492C32.3905 33.6492 31.4517 32.7104 31.4517 31.5525C31.4517 30.394 32.3905 29.4557 33.5484 29.4557C34.7064 29.4557 35.6452 30.394 35.6452 31.5525Z" fill="#FCD770"/>
<path d="M46.1289 44.1331L40.2685 49.9934C39.3246 50.9369 38.0351 51.4718 36.6934 51.4718C35.3517 51.4718 34.0622 50.9369 33.1182 49.9934L30.9482 47.8234C31.2835 46.9634 31.4514 46.041 31.4514 45.1078C32.3427 45.8209 33.4433 46.2299 34.5966 46.2299C35.9383 46.2299 37.2278 45.6949 38.1718 44.7515L42.4595 40.4637L46.1289 44.1331Z" fill="#F5E0CD"/>
<path d="M53.0376 30.0741C53.9816 31.0175 54.516 32.307 54.516 33.6492C54.516 34.991 53.9816 36.2805 53.0376 37.2239L51.3708 38.8912L47.5653 35.0852C47.9948 34.3408 48.2257 33.4813 48.2257 32.6009C48.2257 31.2586 47.6912 29.9691 46.7473 29.0257L45.5735 27.8514C46.7473 28.2077 47.9948 28.4073 49.2843 28.4073C49.9344 28.4073 50.5845 28.3546 51.2239 28.2604L53.0376 30.0741Z" fill="#F5E0CD"/>
<path d="M37.2488 19.5272L36.075 18.3529C35.131 17.4095 33.8415 16.875 32.4998 16.875C31.6193 16.875 30.7593 17.1054 30.015 17.5354L26.2095 13.7299L27.8762 12.0626C28.8202 11.1191 30.1097 10.5847 31.4514 10.5847C32.7931 10.5847 34.0826 11.1191 35.0266 12.0626L36.8403 13.8763C36.7456 14.5162 36.6933 15.1658 36.6933 15.8159C36.6933 17.1054 36.8925 18.3529 37.2488 19.5272Z" fill="#F5E0CD"/>
<path d="M24.637 22.6412L20.3492 26.9289C19.4053 27.8723 18.8708 29.1618 18.8708 30.5041C18.8708 31.6569 19.2799 32.758 19.9924 33.6492C19.0597 33.6492 18.1368 33.8166 17.2773 34.1524L15.1073 31.9819C14.1633 31.0385 13.6289 29.749 13.6289 28.4073C13.6289 27.0651 14.1633 25.7756 15.1073 24.8321L20.9676 18.9718L24.637 22.6412Z" fill="#F5E0CD"/>
<path d="M54.5162 42.0363L49.2742 47.2783L42.4597 40.4638L46.7475 36.1755C47.0725 35.8504 47.3454 35.4839 47.5655 35.0851L51.371 38.8912L54.5162 42.0363Z" fill="#E6E9ED"/>
<path d="M26.2096 13.7299L30.0151 17.5354C29.6169 17.7555 29.2498 18.0279 28.9248 18.3529L24.637 22.6412L17.8225 15.8267L23.0644 10.5847L26.2096 13.7299Z" fill="#E6E9ED"/>
<path d="M56.5709 44.0911C57.2732 44.7934 57.6613 45.7369 57.6613 46.7121C57.6613 48.7669 56.0047 50.4234 53.9499 50.4234C52.9748 50.4234 52.0313 50.0354 51.329 49.333L49.2742 47.2782L54.5161 42.0363L56.5709 44.0911Z" fill="#FFEAA7"/>
<path d="M23.0646 10.5847L17.8227 15.8267L15.7679 13.7719C15.0655 13.069 14.6775 12.1256 14.6775 11.1509C14.6775 9.0956 16.334 7.43958 18.3888 7.43958C19.364 7.43958 20.3075 7.82709 21.0098 8.52994L23.0646 10.5847Z" fill="#FFEAA7"/>
<path d="M20.4436 59.3347L16.8162 62.9621C16.1138 63.6644 15.1704 64.0525 14.1952 64.0525C12.1404 64.0525 10.4839 62.3959 10.4839 60.3411V60.0473C10.4839 59.24 10.746 58.4645 11.2282 57.8246L14.5305 53.4217L20.4436 59.3347Z" fill="#FFEAA7"/>
<path d="M11.6791 50.5698L7.2757 53.8727C6.63632 54.3549 5.86027 54.617 5.05299 54.617H4.75967C2.70487 54.617 1.04834 52.9604 1.04834 50.9056C1.04834 49.9304 1.43637 48.987 2.1387 48.2847L5.76608 44.6573L11.6791 50.5698Z" fill="#FFEAA7"/>
<path d="M19.9194 46.2299L29.3446 50.4234C29.2919 50.4859 29.2289 50.5488 29.1767 50.6016L20.4436 59.3347L14.5305 53.4217L19.9194 46.2299Z" fill="#E6E9ED"/>
<path d="M14.6774 35.7562L18.871 45.1815L11.6792 50.5698L5.76611 44.6573L14.4993 35.9241C14.5515 35.8714 14.6144 35.8084 14.6774 35.7562Z" fill="#E6E9ED"/>
<path d="M62.4881 9.76566L55.3654 2.64297C53.7457 1.0233 51.5921 0.131042 49.2394 0.131042C46.9542 0.131042 44.8037 1.02023 43.185 2.63274L39.6565 6.15005C38.0721 7.72878 36.9096 9.68836 36.2543 11.8082L35.7711 11.3244C34.6188 10.1716 33.0841 9.53632 31.4516 9.53632C29.8191 9.53632 28.2844 10.1716 27.1311 11.326L26.2097 12.2474L21.7469 7.78406C20.8485 6.88566 19.6542 6.39116 18.3847 6.39116C15.7627 6.39116 13.629 8.52428 13.629 11.1463C13.629 12.4158 14.124 13.6111 15.0224 14.5085L19.4853 18.9718L14.3703 24.0868C13.2159 25.2401 12.5806 26.7748 12.5806 28.4073C12.5806 30.0392 13.2159 31.5745 14.3703 32.7273L15.496 33.8535C14.8725 34.2256 14.2802 34.6597 13.7529 35.187L1.39239 47.5475C0.495015 48.4459 0 49.6402 0 50.9097C0 53.5317 2.13363 55.6653 4.75562 55.6653H5.05509C6.07737 55.6653 7.09043 55.3275 7.90897 54.7142L17.8226 47.2783L10.3866 57.1939C9.77283 58.0104 9.43548 59.024 9.43548 60.0463V60.3462C9.43548 62.9672 11.5691 65.1008 14.1911 65.1008C15.4606 65.1008 16.6559 64.6058 17.5533 63.7074L29.9138 51.3469C30.4411 50.8196 30.8752 50.2274 31.2474 49.6033L32.373 50.7295C33.5264 51.8849 35.0611 52.5202 36.6935 52.5202C38.326 52.5202 39.8607 51.8849 41.014 50.7306L42.9839 48.7602L46.0021 51.7789C46.4111 52.1874 46.4111 52.8524 46.0021 53.2614L44.7735 54.49C43.547 55.7155 43.547 57.7114 44.7735 58.937L50.6297 64.7937L52.1122 63.3112L46.256 57.455C45.847 57.046 45.847 56.381 46.256 55.9725L47.4846 54.7434C48.7111 53.5179 48.7111 51.522 47.4846 50.2965L44.4664 47.2783L46.129 45.6151L50.5918 50.0784C51.4902 50.9768 52.6845 51.4718 53.9541 51.4718C56.576 51.4718 58.7097 49.3382 58.7097 46.7162C58.7097 45.4466 58.2147 44.2513 57.3163 43.354L52.8535 38.8912L53.7749 37.9692C54.9292 36.8164 55.5645 35.2812 55.5645 33.6492C55.5645 32.0167 54.9292 30.482 53.7749 29.3287L53.2916 28.8455C55.4115 28.1913 57.371 27.0282 58.9498 25.4433L62.4973 21.883C64.1108 20.2644 65 18.1149 65 15.8297C65 13.5389 64.1077 11.3853 62.4881 9.76566ZM28.6136 12.8079C30.1294 11.2922 32.7739 11.2922 34.2896 12.8079L35.744 14.2623C35.6841 14.7772 35.6452 15.2927 35.6452 15.8128C35.6452 16.123 35.6713 16.4261 35.6912 16.7312C34.7406 16.1461 33.6456 15.8266 32.5 15.8266C31.7086 15.8266 30.9412 15.9787 30.2271 16.2648L27.6922 13.7299L28.6136 12.8079ZM24.6371 21.1587L19.3051 15.8266L23.0645 12.0667L28.4073 17.4095C28.3315 17.4786 28.2522 17.5426 28.1795 17.6163L24.6371 21.1587ZM15.7258 11.1463C15.7258 9.68068 16.9191 8.48794 18.3847 8.48794C19.0942 8.48794 19.7622 8.76437 20.2644 9.26655L21.582 10.5847L17.8226 14.3442L16.5049 13.026C16.0027 12.5238 15.7258 11.8563 15.7258 11.1463ZM15.8528 31.2453C15.0946 30.4872 14.6774 29.4787 14.6774 28.4073C14.6774 27.3359 15.0946 26.3269 15.8528 25.5693L20.9677 20.4538L23.1546 22.6412L19.6122 26.1836C18.4579 27.3369 17.8226 28.8716 17.8226 30.5041C17.8226 31.2755 17.9787 32.0459 18.2746 32.7672C18.0345 32.8143 17.8036 32.8942 17.5687 32.9612L15.8528 31.2453ZM17.5743 44.8436L11.7805 49.1892L7.24861 44.6573L14.3401 37.5658L17.5743 44.8436ZM6.64968 53.0367C6.19306 53.3797 5.62587 53.5686 5.05407 53.5686H4.75562C3.29003 53.5686 2.09677 52.3753 2.09677 50.9097C2.09677 50.1997 2.37372 49.5322 2.8759 49.03L5.76613 46.1393L10.0866 50.4598L6.64968 53.0367ZM20.2567 47.5265L27.535 50.7608L20.4435 57.8522L15.9111 53.3198L20.2567 47.5265ZM16.0708 62.2249C15.5687 62.7271 14.9006 63.0041 14.1911 63.0041C12.7255 63.0041 11.5323 61.8108 11.5323 60.3452V60.0452C11.5323 59.4739 11.7212 58.9078 12.0636 58.4506L14.6406 55.0142L18.9611 59.3347L16.0708 62.2249ZM29.0497 49.1411L20.5234 45.3509L19.7494 44.5774L15.9597 36.0511C17.0102 35.2592 18.2587 34.7979 19.583 34.7186L23.4095 38.5461L24.892 37.0636L20.7968 32.9674C20.2326 32.2471 19.9194 31.3738 19.9194 30.5041C19.9194 29.4326 20.3366 28.4237 21.0947 27.666L29.662 19.0982C31.1777 17.5825 33.8223 17.5825 35.338 19.0982L36.3485 20.1093C37.703 24.1779 40.9219 27.3963 44.9905 28.7508L46.0011 29.7618C46.7602 30.5204 47.1774 31.5294 47.1774 32.6008C47.1774 33.6723 46.7602 34.6807 46.0021 35.4389L37.4348 44.0061C36.0603 45.3796 33.7373 45.5608 32.1319 44.3015L28.0382 40.2078L26.5557 41.6903L30.3833 45.5168C30.3024 46.8421 29.8412 48.0906 29.0497 49.1411ZM47.4846 36.9208C47.5578 36.8476 47.6218 36.7688 47.6914 36.6935L53.0336 42.0363L49.2742 45.7958L43.9422 40.4637L47.4846 36.9208ZM39.5316 49.2481C38.0158 50.7638 35.3713 50.7638 33.8555 49.2481L32.1391 47.5316C32.2067 47.2967 32.286 47.0663 32.3331 46.8262C34.5819 47.7487 37.2188 47.1892 38.9173 45.4886L42.4597 41.9457L44.6465 44.1331L39.5316 49.2481ZM56.6129 46.7162C56.6129 48.1818 55.4196 49.375 53.9541 49.375C53.2445 49.375 52.5765 49.0981 52.0743 48.5959L50.7567 47.2783L54.5161 43.5183L55.8338 44.8365C56.336 45.3386 56.6129 46.0062 56.6129 46.7162ZM52.2924 30.8112C53.0505 31.5688 53.4677 32.5778 53.4677 33.6492C53.4677 34.7206 53.0505 35.7291 52.2924 36.4872L51.371 37.4087L48.836 34.8737C49.1222 34.1596 49.2742 33.3922 49.2742 32.6008C49.2742 31.4547 48.9543 30.3602 48.3686 29.4091C48.6732 29.4291 48.9773 29.4557 49.288 29.4557C49.8076 29.4557 50.3246 29.4168 50.8386 29.3569L52.2924 30.8112ZM61.0127 20.4036L57.4652 23.9639C55.3152 26.1216 52.3334 27.3589 49.288 27.3589C42.9209 27.3589 37.7419 22.1794 37.7419 15.8128C37.7419 12.7659 38.9792 9.78562 41.1364 7.63561L44.6655 4.11829C45.8889 2.89893 47.5127 2.22782 49.3003 2.22782C51.0311 2.22782 52.6584 2.902 53.8819 4.12546L61.0046 11.2481C62.228 12.4716 62.9022 14.099 62.9022 15.8297C62.9032 17.5564 62.2321 19.1802 61.0127 20.4036Z" fill="black"/>
<path d="M50.3015 7.70372C49.462 6.8647 48.3696 6.42139 47.1425 6.42139C45.9738 6.42139 44.8753 6.87545 44.0521 7.69808L42.6178 9.12119C40.8512 10.8801 39.8386 13.3188 39.8386 15.8128C39.8386 21.0236 44.0772 25.2621 49.2879 25.2621C51.7819 25.2621 54.2202 24.2491 55.9816 22.4815L57.4303 21.02C58.2555 20.1943 58.7096 19.0952 58.7096 17.9255C58.7096 16.7722 58.2422 15.6429 57.4262 14.8284L50.3015 7.70372ZM55.9438 19.5411L54.494 21.0036C53.1257 22.3781 51.227 23.1654 49.2879 23.1654C45.2336 23.1654 41.9354 19.8672 41.9354 15.8128C41.9354 13.8722 42.7227 11.9746 44.0962 10.6078L45.5315 9.18364C45.9621 8.75415 46.5349 8.51816 47.1435 8.51816C47.8024 8.51816 48.3829 8.75005 48.8211 9.18722L55.9458 16.312C56.3697 16.7363 56.6128 17.3255 56.6128 17.9265C56.6128 18.5357 56.3758 19.109 55.9438 19.5411Z" fill="black"/>
<path d="M44.4663 33.6492L31.4516 20.6345L22.6304 29.4557L35.6451 42.4699L44.4663 33.6492ZM31.4516 23.5989L41.5013 33.6492L35.6451 39.5054L25.5953 29.4557L31.4516 23.5989Z" fill="black"/>
<path d="M36.6936 31.5525C36.6936 29.8181 35.2823 28.4073 33.5485 28.4073C31.8146 28.4073 30.4033 29.8181 30.4033 31.5525C30.4033 33.2863 31.8146 34.6976 33.5485 34.6976C35.2823 34.6976 36.6936 33.2863 36.6936 31.5525ZM33.5485 32.6008C32.971 32.6008 32.5001 32.1299 32.5001 31.5525C32.5001 30.9745 32.971 30.5041 33.5485 30.5041C34.1259 30.5041 34.5969 30.9745 34.5969 31.5525C34.5969 32.1299 34.1259 32.6008 33.5485 32.6008Z" fill="black"/>
</g>
<defs>
<clipPath id="clip0">
<rect width="65" height="65" fill="white"/>
</clipPath>
</defs>
</svg>
