<svg width="85" height="85" viewBox="0 0 85 85" fill="none" xmlns="http://www.w3.org/2000/svg">
<path d="M57.5806 15.0806H83.6289V45.2419H54.8386C53.3304 45.2419 52.0967 44.0082 52.0967 42.5C52.0967 41.7462 52.3986 41.0607 52.9053 40.5667C53.3994 40.06 54.0849 39.7581 54.8386 39.7581C55.5924 39.7581 56.2779 39.4561 56.7719 38.9494C57.2786 38.4554 57.5806 37.7699 57.5806 37.0161V15.0806Z" fill="#FCD770"/>
<path d="M54.8386 39.758C54.0849 39.758 53.3994 40.0599 52.9053 40.5667C52.3986 41.0607 52.0967 41.7462 52.0967 42.5V34.2742H54.8386C55.5924 34.2742 56.2779 34.5761 56.7719 35.0828C57.2786 35.5769 57.5806 36.2623 57.5806 37.0161C57.5806 37.7699 57.2786 38.4554 56.7719 38.9494C56.2779 39.4561 55.5924 39.758 54.8386 39.758Z" fill="#FCD770"/>
<path d="M57.5806 15.0807V37.0161C57.5806 36.2624 57.2787 35.5769 56.7719 35.0829C56.2779 34.5761 55.5924 34.2742 54.8387 34.2742H26.0483V4.11292H54.8387C56.3469 4.11292 57.5806 5.34665 57.5806 6.85485V15.0807Z" fill="#FFEAA7"/>
<path d="M31.5322 58.9516H45.0638C43.8301 49.0255 35.9604 41.129 26.0483 39.7581H20.5645C13.6139 41.129 7.6775 44.9266 4.31836 50.7258H12.3387C13.0924 50.7258 13.7779 51.0277 14.2719 51.5345C14.7787 52.0285 15.0806 52.714 15.0806 53.4677C15.0806 54.9759 13.8469 56.2097 12.3387 56.2097H9.59672C8.84295 56.2097 8.15747 56.5116 7.66344 57.0183C7.15669 57.5124 6.85478 58.1978 6.85478 58.9516C6.85478 60.4598 8.08852 61.6935 9.59672 61.6935H16.4516C17.2053 61.6935 17.8908 61.9954 18.3848 62.5022C18.8916 62.9962 19.1935 63.6817 19.1935 64.4355C19.1935 65.9437 17.9598 67.1774 16.4516 67.1774H2.0564C4.49642 76.637 13.079 83.629 23.3064 83.629C30.2295 83.629 36.3989 80.4212 40.4301 75.4166L40.416 75.4032H27.4193C26.6655 75.4032 25.9801 75.1013 25.486 74.5946C24.9793 74.1005 24.6774 73.4151 24.6774 72.6613C24.6774 71.1531 25.9111 69.9193 27.4193 69.9193H35.6451C36.3989 69.9193 37.0844 69.6174 37.5784 69.1107C38.0851 68.6167 38.387 67.9312 38.387 67.1774C38.387 65.6692 37.1533 64.4355 35.6451 64.4355H31.5322C30.7784 64.4355 30.093 64.1336 29.5989 63.6268C29.0922 63.1328 28.7903 62.4473 28.7903 61.6935C28.7903 60.1853 30.024 58.9516 31.5322 58.9516Z" fill="#69D6F4"/>
<path d="M26.0483 39.9502V50.7258H20.5645V4.11291C20.5645 2.60471 21.7982 1.37097 23.3064 1.37097C24.8146 1.37097 26.0483 2.60471 26.0483 4.11291V39.9502Z" fill="#DFB28B"/>
<path d="M45.0639 58.9516C45.1871 59.8426 45.242 60.761 45.242 61.6935C45.242 66.8896 43.4326 71.6605 40.4302 75.4166L40.4162 75.4032H27.4194C26.6657 75.4032 25.9802 75.1013 25.4861 74.5946C24.9794 74.1005 24.6775 73.415 24.6775 72.6613C24.6775 71.1531 25.9112 69.9193 27.4194 69.9193H35.6452C36.399 69.9193 37.0845 69.6174 37.5785 69.1107C38.0853 68.6167 38.3872 67.9312 38.3872 67.1774C38.3872 65.6692 37.1534 64.4355 35.6452 64.4355H31.5323C30.7786 64.4355 30.0931 64.1336 29.5991 63.6268C29.0923 63.1328 28.7904 62.4473 28.7904 61.6935C28.7904 60.1853 30.0241 58.9516 31.5323 58.9516H45.0639Z" fill="#B4DD7F"/>
<path d="M18.3848 62.5022C18.8915 62.9963 19.1934 63.6817 19.1934 64.4355C19.1934 65.9437 17.9597 67.1774 16.4515 67.1774H2.05633C1.60381 65.4229 1.37085 63.5853 1.37085 61.6936C1.37085 57.6905 2.43991 53.9477 4.3183 50.7258H12.3386C13.0924 50.7258 13.7778 51.0277 14.2719 51.5345C14.7786 52.0285 15.0805 52.714 15.0805 53.4678C15.0805 54.976 13.8468 56.2097 12.3386 56.2097H9.59666C8.84289 56.2097 8.15741 56.5116 7.66338 57.0184C7.15663 57.5124 6.85472 58.1979 6.85472 58.9516C6.85472 60.4598 8.08846 61.6936 9.59666 61.6936H16.4515C17.2053 61.6936 17.8907 61.9955 18.3848 62.5022Z" fill="#B4DD7F"/>
<path d="M58.9516 13.7097V6.85484C58.9516 4.58752 57.106 2.74194 54.8387 2.74194H27.167C26.5993 1.15006 25.0911 0 23.3065 0C21.0391 0 19.1935 1.84558 19.1935 4.1129V38.7954C8.17359 40.7602 0 50.3831 0 61.6936C0 74.545 10.455 85 23.3065 85C36.1579 85 46.6129 74.545 46.6129 61.6936C46.6129 50.3831 38.4393 40.7602 27.4194 38.7954V35.6452H50.7258V42.5C50.7258 44.7673 52.5714 46.6129 54.8387 46.6129H85V13.7097H58.9516ZM21.9355 4.1129C21.9355 3.35646 22.5513 2.74194 23.3065 2.74194C24.0616 2.74194 24.6774 3.35646 24.6774 4.1129V49.3548H21.9355V4.1129ZM5.14782 52.0968H12.3387C13.0938 52.0968 13.7097 52.7113 13.7097 53.4677C13.7097 54.2242 13.0938 54.8387 12.3387 54.8387H9.59677C7.32946 54.8387 5.48387 56.6843 5.48387 58.9516C5.48387 61.2189 7.32946 63.0645 9.59677 63.0645H16.4516C17.2067 63.0645 17.8226 63.679 17.8226 64.4355C17.8226 65.1919 17.2067 65.8064 16.4516 65.8064H3.15564C2.88586 64.4763 2.74194 63.1013 2.74194 61.6936C2.74194 58.2427 3.61954 54.9773 5.14782 52.0968ZM39.7199 74.0323H27.4194C26.6643 74.0323 26.0484 73.4177 26.0484 72.6613C26.0484 71.9048 26.6643 71.2903 27.4194 71.2903H35.6452C37.9125 71.2903 39.7581 69.4447 39.7581 67.1774C39.7581 64.9101 37.9125 63.0645 35.6452 63.0645H31.5323C30.7772 63.0645 30.1613 62.45 30.1613 61.6936C30.1613 60.9371 30.7772 60.3226 31.5323 60.3226H43.8067C43.8382 60.7778 43.871 61.2317 43.871 61.6936C43.871 66.3259 42.3132 70.5915 39.7199 74.0323ZM43.4432 57.5806H31.5323C29.2649 57.5806 27.4194 59.4262 27.4194 61.6936C27.4194 63.9609 29.2649 65.8064 31.5323 65.8064H35.6452C36.4003 65.8064 37.0161 66.421 37.0161 67.1774C37.0161 67.9339 36.4003 68.5484 35.6452 68.5484H27.4194C25.152 68.5484 23.3065 70.394 23.3065 72.6613C23.3065 74.9286 25.152 76.7742 27.4194 76.7742H37.2411C33.572 80.1661 28.6846 82.2581 23.3065 82.2581C14.3731 82.2581 6.77384 76.5232 3.94153 68.5484H16.4516C18.7189 68.5484 20.5645 66.7028 20.5645 64.4355C20.5645 62.1682 18.7189 60.3226 16.4516 60.3226H9.59677C8.84167 60.3226 8.22581 59.7081 8.22581 58.9516C8.22581 58.1952 8.84167 57.5806 9.59677 57.5806H12.3387C14.606 57.5806 16.4516 55.7351 16.4516 53.4677C16.4516 51.2004 14.606 49.3548 12.3387 49.3548H6.88228C9.83241 45.4381 14.1582 42.5957 19.1935 41.5749V52.0968H27.4194V41.5749C35.5394 43.2223 41.8105 49.6112 43.4432 57.5806ZM27.4194 5.48387H54.8387C55.5938 5.48387 56.2097 6.0984 56.2097 6.85484V33.1556C55.7792 33.0016 55.3214 32.9032 54.8387 32.9032H27.4194V5.48387ZM54.8387 35.6452C55.5938 35.6452 56.2097 36.2597 56.2097 37.0161C56.2097 37.7726 55.5938 38.3871 54.8387 38.3871C54.3561 38.3871 53.8982 38.4855 53.4677 38.6395V35.6452H54.8387ZM82.2581 43.871H54.8387C54.0836 43.871 53.4677 43.2564 53.4677 42.5C53.4677 41.7436 54.0836 41.129 54.8387 41.129C57.106 41.129 58.9516 39.2834 58.9516 37.0161V16.4516H82.2581V43.871Z" fill="black"/>
<path d="M76.7742 19.1935H79.5161V21.9355H76.7742V19.1935Z" fill="black"/>
<path d="M76.7742 24.6774H79.5161V27.4194H76.7742V24.6774Z" fill="black"/>
<path d="M76.7742 30.1613H79.5161V32.9033H76.7742V30.1613Z" fill="black"/>
<path d="M30.1614 8.22583H32.9033V10.9678H30.1614V8.22583Z" fill="black"/>
<path d="M35.6453 8.22583H53.4678V10.9678H35.6453V8.22583Z" fill="black"/>
</svg>
