<svg width="65" height="65" viewBox="0 0 65 65" fill="none" xmlns="http://www.w3.org/2000/svg">
<g opacity="0.75" clip-path="url(#clip0)">
<path d="M63.3332 1.66679C63.7207 2.04457 63.9515 2.56877 63.9515 3.14517C62.9554 7.13959 61.5717 10.9978 59.821 14.6774C59.8 14.6774 59.779 14.6774 59.758 14.6774C54.5473 14.6774 50.3225 10.4527 50.3225 5.24195C50.3225 5.22096 50.3225 5.19997 50.3225 5.17898C54.0021 3.42826 57.8604 2.04457 61.8548 1.0484C62.4312 1.0484 62.9554 1.27927 63.3332 1.66679Z" fill="#E6E9ED"/>
<path d="M62.9033 20.9677C61.75 24.4169 59.947 27.5933 57.5984 30.3402L53.5308 26.2726C56.2777 23.924 59.454 22.121 62.9033 20.9677Z" fill="#CCD1D9"/>
<path d="M59.758 14.6774H59.821C58.8146 16.8264 57.6822 18.9129 56.424 20.9257C56.1409 20.9467 55.8578 20.9677 55.5645 20.9677C49.1902 20.9677 44.0322 15.8097 44.0322 9.43547C44.0322 9.14214 44.0532 8.85906 44.0742 8.57597C44.7873 8.12498 45.5106 7.69498 46.2339 7.28648C47.5654 6.53142 48.9281 5.82908 50.3225 5.17896V5.24192C50.3225 10.4526 54.5473 14.6774 59.758 14.6774Z" fill="#69D6F4"/>
<path d="M59.758 7.33872C59.758 8.49665 58.8192 9.43549 57.6612 9.43549C56.5033 9.43549 55.5645 8.49665 55.5645 7.33872C55.5645 6.18078 56.5033 5.24194 57.6612 5.24194C58.8192 5.24194 59.758 6.18078 59.758 7.33872Z" fill="#FF826E"/>
<path d="M53.5306 26.2726L57.5983 30.3403C57.1268 30.8962 56.6338 31.4306 56.1199 31.9446L54.5161 33.5484L50.3225 29.3548L51.9263 27.751C52.4403 27.2371 52.9747 26.7441 53.5306 26.2726Z" fill="#FCD770"/>
<path d="M55.5644 20.9677C49.1902 20.9677 44.0322 15.8098 44.0322 9.43548C44.0322 9.14216 44.0532 8.85907 44.0742 8.57599C40.0275 11.0813 36.2635 14.059 32.8562 17.4663L18.3887 31.9338L33.0661 46.6112L47.5336 32.1437C50.9409 28.7365 53.9187 24.9724 56.4239 20.9258C56.1408 20.9468 55.8578 20.9677 55.5644 20.9677Z" fill="#E6E9ED"/>
<path d="M54.5161 33.5484L34.1775 53.887C34.1458 53.7611 34.0935 53.6357 34.0516 53.5097C33.3492 51.6853 33.0032 49.7774 33.0032 47.9008C33.0032 47.4708 33.0242 47.0413 33.0661 46.6113L50.3225 29.3549L54.5161 33.5484Z" fill="#CCD1D9"/>
<path d="M39.8284 21.387C35.771 21.796 31.9757 23.5887 29.0927 26.4717L28.1492 27.4152C25.4755 30.0889 22.0058 31.6405 18.3887 31.9338C16.0928 32.1329 13.7339 31.8079 11.4902 30.9484C11.3643 30.9064 11.2389 30.8542 11.1129 30.8224C10.4316 30.6023 9.73948 30.4974 9.03714 30.4974C8.859 30.4974 8.68034 30.5081 8.5022 30.5184L34.4815 56.4977C34.4918 56.3195 34.5025 56.1409 34.5025 55.9627C34.5025 55.2604 34.3976 54.5683 34.1774 53.887C34.1457 53.761 34.0935 53.6356 34.0515 53.5097C33.3492 51.6852 33.0031 49.7774 33.0031 47.9007C33.0031 47.4707 33.0241 47.0412 33.0661 46.6112C33.3594 42.9941 34.911 39.5244 37.5847 36.8507L38.5281 35.9072C41.4112 33.0242 43.2039 29.2289 43.6129 25.1715L44.0322 20.9677L39.8284 21.387Z" fill="#AAB2BD"/>
<path d="M44.0322 2.0968C42.8789 5.54604 41.0759 8.72242 38.7273 11.4693L34.6597 7.4017C37.4066 5.05307 40.583 3.25013 44.0322 2.0968Z" fill="#CCD1D9"/>
<path d="M34.6598 7.40167L38.7274 11.4693C38.2559 12.0252 37.763 12.5597 37.249 13.0736L35.6452 14.6774L31.4517 10.4839L33.0555 8.88006C33.5694 8.36611 34.1039 7.87314 34.6598 7.40167Z" fill="#FCD770"/>
<path d="M36.5676 26.2097C37.7941 26.2097 38.7903 27.2058 38.7903 28.4324C38.7903 29.0195 38.5594 29.5857 38.1401 30.0049L32.1017 36.0434C31.6824 36.4627 31.1163 36.6935 30.5291 36.6935C29.921 36.6935 29.3548 36.4417 28.9565 36.0434C28.5583 35.6451 28.3064 35.079 28.3064 34.4708C28.3064 33.8837 28.5373 33.3175 28.9565 32.8982L34.995 26.8598C35.4142 26.4405 35.9804 26.2097 36.5676 26.2097Z" fill="#FF826E"/>
<path d="M35.6452 14.6774L18.3888 31.9338C16.0929 32.133 13.734 31.8079 11.4903 30.9484C11.3644 30.9064 11.239 30.8542 11.113 30.8225L31.4516 10.4839L35.6452 14.6774Z" fill="#CCD1D9"/>
<path d="M26.2097 48.2258L34.4816 56.4978C34.3557 58.0913 33.6846 59.6219 32.5001 60.8065L4.1936 32.5C5.37816 31.3155 6.90876 30.6444 8.50233 30.5184L26.2097 48.2258Z" fill="#FCD770"/>
<path d="M28.3064 44.0323L26.2097 48.2258L16.7742 38.7903L20.9677 36.6935L28.3064 44.0323Z" fill="#E6E9ED"/>
<path d="M28.3064 56.6129L23.1904 61.7289C21.7642 63.1551 19.8353 63.9516 17.8225 63.9516C17.8225 61.9388 18.619 60.01 20.0452 58.5838L25.1612 53.4678L28.3064 56.6129Z" fill="#FF826E"/>
<path d="M23.0646 51.371L14.6775 55.5645L9.43555 50.3226L13.6291 41.9355L23.0646 51.371Z" fill="#E6E9ED"/>
<path d="M11.5322 39.8387L6.4162 44.9547C4.99003 46.3809 3.06116 47.1774 1.04834 47.1774C1.04834 45.1646 1.84487 43.2357 3.27104 41.8095L8.38705 36.6935L11.5322 39.8387Z" fill="#FF826E"/>
<path d="M32.844 36.7837L38.8804 30.7473C39.4978 30.1294 39.8387 29.3078 39.8387 28.4334C39.8387 26.629 38.3711 25.1613 36.5666 25.1613C35.6922 25.1613 34.8706 25.5022 34.2528 26.1196L28.2163 32.156C27.599 32.7739 27.2581 33.5955 27.2581 34.4698C27.2581 36.2743 28.7257 37.742 30.5302 37.742C31.4045 37.742 32.2261 37.401 32.844 36.7837ZM29.3548 34.4698C29.3548 34.1555 29.4777 33.8607 29.6988 33.6385L35.7352 27.6021C35.9574 27.3809 36.2523 27.2581 36.5666 27.2581C37.2147 27.2581 37.7419 27.7854 37.7419 28.4334C37.7419 28.7477 37.6191 29.0426 37.3979 29.2648L31.3615 35.3012C31.1393 35.5223 30.8445 35.6452 30.5302 35.6452C29.8821 35.6452 29.3548 35.1179 29.3548 34.4698Z" fill="black"/>
<path d="M65 3.14516C65 1.41133 63.5887 0 61.8548 0L61.5999 0.0312263C54.6543 1.76762 48.082 4.66194 42.1474 8.56012C43.3402 6.63535 44.3112 4.5739 45.0264 2.429L45.6888 0.440241L43.7 1.10265C39.4307 2.52575 35.4931 4.95987 32.3111 8.14189L10.8018 29.6507C8.17926 29.0477 5.38988 29.8202 3.45231 31.7577L2.71106 32.5L6.90461 36.6935L2.53087 41.0673C0.898398 42.6998 0 44.8687 0 47.1774V48.2258H1.04839C3.35709 48.2258 5.52604 47.3274 7.15852 45.6949L11.5323 41.3212L12.3534 42.1418L8.15981 50.5289L14.4711 56.8402L22.8582 52.6466L23.6788 53.4677L19.3051 57.8415C17.6726 59.474 16.7742 61.6429 16.7742 63.9516V65H17.8226C20.1313 65 22.3002 64.1016 23.9327 62.4691L28.3064 58.0954L32.5 62.2889L33.2412 61.5477C35.1798 59.6091 35.9523 56.8207 35.3493 54.1972L56.8591 32.6879C60.0411 29.5058 62.4742 25.5683 63.8984 21.2989L64.5608 19.3102L62.572 19.9726C60.4261 20.6877 58.3647 21.6598 56.4409 22.8516C60.3391 16.917 63.2334 10.3446 64.9698 3.39907L65 3.14516ZM25.9225 46.4561L18.5439 39.0775L20.7614 37.9692L27.0308 44.2386L25.9225 46.4561ZM21.174 35.4179L16.9805 37.5146L11.5425 32.0767C17.5804 34.2118 24.3412 32.7043 28.8885 28.1565L29.8278 27.2171C32.5338 24.5112 36.1202 22.8116 39.9278 22.4313L42.86 22.138L42.5667 25.0702C42.1858 28.8777 40.4868 32.4642 37.7808 35.1701L36.8415 36.1095C32.2947 40.6562 30.7872 47.4185 32.9213 53.456L27.4833 48.018L29.5801 43.8244L21.174 35.4179ZM17.9244 30.9156C16.3002 31.0093 14.6544 30.8302 13.0516 30.3664L31.4516 11.9664L34.1627 14.6774L17.9244 30.9156ZM34.0854 47.0745L50.3226 30.8373L53.0336 33.5484L34.6347 51.9474C34.1714 50.3456 33.9917 48.6988 34.0854 47.0745ZM34.7718 43.4231C35.468 41.2664 36.6587 39.2587 38.325 37.593L39.2643 36.6536C42.3107 33.6073 44.2252 29.5678 44.6537 25.2795L45.2025 19.7975L39.7205 20.3463C35.4322 20.7748 31.3938 22.6893 28.3464 25.7356L27.407 26.675C25.7413 28.3413 23.7326 29.533 21.5759 30.2292L33.5955 18.2096C36.4903 15.3147 39.6554 12.7327 43.0371 10.4859C43.5449 16.5843 48.4157 21.4541 54.5141 21.9629C52.2683 25.3435 49.6853 28.5097 46.7904 31.4045L34.7718 43.4231ZM55.8215 19.9055C55.7355 19.9101 55.6515 19.9194 55.5645 19.9194C49.7835 19.9194 45.0806 15.2165 45.0806 9.43548C45.0806 9.34846 45.0899 9.26451 45.0945 9.17851C46.4971 8.32516 47.9366 7.53375 49.4032 6.79455C50.0794 11.3111 53.6428 14.8863 58.2116 15.5855C57.4714 17.0563 56.6769 18.4998 55.8215 19.9055ZM38.6352 9.89466L36.2354 7.49484C38.0711 6.05638 40.0788 4.83599 42.2186 3.91149C41.2941 6.05126 40.0727 8.05896 38.6352 9.89466ZM34.6357 8.8601L37.27 11.4944C37.0145 11.7734 36.7744 12.0667 36.5067 12.3354L35.6452 13.1949L32.9341 10.4839L33.7946 9.62335C34.0623 9.35563 34.3567 9.11554 34.6357 8.8601ZM5.67603 44.2124C4.71467 45.1738 3.5081 45.7989 2.1966 46.0292C2.42695 44.7187 3.05199 43.5111 4.01336 42.5498L8.3871 38.176L10.0498 39.8387L5.67603 44.2124ZM14.8837 54.2888L10.7112 50.1163L13.9162 43.7051L21.2948 51.0838L14.8837 54.2888ZM22.4502 60.9866C21.4889 61.948 20.2823 62.573 18.9708 62.8034C19.2011 61.4929 19.8262 60.2853 20.7875 59.324L25.1613 54.9502L26.824 56.6129L22.4502 60.9866ZM32.4329 59.2559L5.74412 32.5671C6.46335 32.072 7.27984 31.7598 8.12705 31.6246L33.3754 56.873C33.2402 57.7212 32.928 58.5377 32.4329 59.2559ZM54.5161 32.0659L51.8051 29.3548L52.6656 28.4943C52.9333 28.2266 53.2277 27.9865 53.5066 27.7311L56.1409 30.3653C55.8855 30.6443 55.6454 30.9377 55.3777 31.2064L54.5161 32.0659ZM57.5062 28.7656L55.1064 26.3658C56.9421 24.9273 58.9498 23.707 61.0895 22.7825C60.165 24.9222 58.9436 26.9299 57.5062 28.7656ZM59.1668 13.5988C55.0024 13.306 51.675 9.96787 51.3981 5.83421C54.7864 4.27852 58.3196 3.0223 61.9628 2.10189C62.4543 2.15257 62.8474 2.54418 62.8981 3.03715C61.9777 6.67937 60.7215 10.2115 59.1668 13.5988Z" fill="black"/>
<path d="M57.6613 4.19354C55.9274 4.19354 54.5161 5.60487 54.5161 7.3387C54.5161 9.07254 55.9274 10.4839 57.6613 10.4839C59.3951 10.4839 60.8064 9.07254 60.8064 7.3387C60.8064 5.60487 59.3951 4.19354 57.6613 4.19354ZM57.6613 8.38709C57.0838 8.38709 56.6129 7.91614 56.6129 7.3387C56.6129 6.76127 57.0838 6.29032 57.6613 6.29032C58.2387 6.29032 58.7097 6.76127 58.7097 7.3387C58.7097 7.91614 58.2387 8.38709 57.6613 8.38709Z" fill="black"/>
</g>
<defs>
<clipPath id="clip0">
<rect width="65" height="65" fill="white"/>
</clipPath>
</defs>
</svg>
