<svg width="13" height="9" viewBox="0 0 13 9" fill="none" xmlns="http://www.w3.org/2000/svg">
<path d="M11.6615 0C11.3846 0 11.1231 0.107692 10.9231 0.292308L4.86154 6.49231L1.75385 3.30769C1.52308 3.10769 1.29231 3.01538 1.03077 3.01538C0.461538 3.01538 0 3.49231 0 4.06154C0 4.33846 0.107692 4.6 0.292308 4.78462L4.13846 8.70769C4.36923 8.90769 4.6 9 4.86154 9C5.13846 9 5.4 8.89231 5.6 8.70769L12.3846 1.78462C12.5538 1.61538 12.6769 1.35385 12.7077 1.06154C12.6923 0.461538 12.2308 0 11.6615 0Z" fill="#73E24D"/>
</svg>
