<svg width="1492" height="1096" viewBox="0 0 1492 1096" fill="none" xmlns="http://www.w3.org/2000/svg">
<rect x="-27" y="-30.8219" width="1542.91" height="1256.82" fill="#C2DAFF"/>
<ellipse cx="42.807" cy="57.2913" rx="5.36976" ry="5.80965" fill="#D0E3FF"/>
<ellipse cx="172.576" cy="57.2914" rx="5.36976" ry="5.80965" fill="#D0E3FF"/>
<ellipse cx="68.7609" cy="57.2914" rx="5.36976" ry="5.80965" fill="#D0E3FF"/>
<ellipse cx="198.53" cy="57.2914" rx="5.36976" ry="5.80965" fill="#D0E3FF"/>
<ellipse cx="94.7147" cy="57.2914" rx="5.36976" ry="5.80965" fill="#D0E3FF"/>
<ellipse cx="224.484" cy="57.2914" rx="5.36976" ry="5.80965" fill="#D0E3FF"/>
<ellipse cx="120.669" cy="57.2914" rx="5.36976" ry="5.80965" fill="#D0E3FF"/>
<ellipse cx="250.438" cy="57.2914" rx="5.36976" ry="5.80965" fill="#D0E3FF"/>
<ellipse cx="146.622" cy="57.2914" rx="5.36976" ry="5.80965" fill="#D0E3FF"/>
<ellipse cx="276.392" cy="57.2914" rx="5.36976" ry="5.80965" fill="#D0E3FF"/>
<ellipse cx="42.807" cy="112.483" rx="5.36976" ry="5.80965" fill="#D0E3FF"/>
<ellipse cx="172.576" cy="112.483" rx="5.36976" ry="5.80965" fill="#D0E3FF"/>
<ellipse cx="68.7609" cy="112.483" rx="5.36976" ry="5.80965" fill="#D0E3FF"/>
<ellipse cx="198.53" cy="112.483" rx="5.36976" ry="5.80965" fill="#D0E3FF"/>
<ellipse cx="94.7147" cy="112.483" rx="5.36976" ry="5.80965" fill="#D0E3FF"/>
<ellipse cx="224.484" cy="112.483" rx="5.36976" ry="5.80965" fill="#D0E3FF"/>
<ellipse cx="120.669" cy="112.483" rx="5.36976" ry="5.80965" fill="#D0E3FF"/>
<ellipse cx="250.438" cy="112.483" rx="5.36976" ry="5.80965" fill="#D0E3FF"/>
<ellipse cx="146.622" cy="112.483" rx="5.36976" ry="5.80965" fill="#D0E3FF"/>
<ellipse cx="276.392" cy="112.483" rx="5.36976" ry="5.80965" fill="#D0E3FF"/>
<ellipse cx="42.807" cy="167.675" rx="5.36976" ry="5.80965" fill="#D0E3FF"/>
<ellipse cx="172.576" cy="167.675" rx="5.36976" ry="5.80965" fill="#D0E3FF"/>
<ellipse cx="68.7609" cy="167.675" rx="5.36976" ry="5.80965" fill="#D0E3FF"/>
<ellipse cx="198.53" cy="167.675" rx="5.36976" ry="5.80965" fill="#D0E3FF"/>
<ellipse cx="94.7147" cy="167.675" rx="5.36976" ry="5.80965" fill="#D0E3FF"/>
<ellipse cx="224.484" cy="167.675" rx="5.36976" ry="5.80965" fill="#D0E3FF"/>
<ellipse cx="120.669" cy="167.675" rx="5.36976" ry="5.80965" fill="#D0E3FF"/>
<ellipse cx="250.438" cy="167.675" rx="5.36976" ry="5.80965" fill="#D0E3FF"/>
<ellipse cx="146.622" cy="167.675" rx="5.36976" ry="5.80965" fill="#D0E3FF"/>
<ellipse cx="276.392" cy="167.675" rx="5.36976" ry="5.80965" fill="#D0E3FF"/>
<ellipse cx="42.807" cy="222.866" rx="5.36976" ry="5.80965" fill="#D0E3FF"/>
<ellipse cx="172.576" cy="222.867" rx="5.36976" ry="5.80965" fill="#D0E3FF"/>
<ellipse cx="68.7609" cy="222.867" rx="5.36976" ry="5.80965" fill="#D0E3FF"/>
<ellipse cx="198.53" cy="222.867" rx="5.36976" ry="5.80965" fill="#D0E3FF"/>
<ellipse cx="94.7147" cy="222.867" rx="5.36976" ry="5.80965" fill="#D0E3FF"/>
<ellipse cx="224.484" cy="222.867" rx="5.36976" ry="5.80965" fill="#D0E3FF"/>
<ellipse cx="120.669" cy="222.867" rx="5.36976" ry="5.80965" fill="#D0E3FF"/>
<ellipse cx="250.438" cy="222.867" rx="5.36976" ry="5.80965" fill="#D0E3FF"/>
<ellipse cx="146.622" cy="222.867" rx="5.36976" ry="5.80965" fill="#D0E3FF"/>
<ellipse cx="276.392" cy="222.867" rx="5.36976" ry="5.80965" fill="#D0E3FF"/>
<ellipse cx="42.807" cy="278.058" rx="5.36976" ry="5.80965" fill="#D0E3FF"/>
<ellipse cx="172.576" cy="278.058" rx="5.36976" ry="5.80965" fill="#D0E3FF"/>
<ellipse cx="68.7609" cy="278.058" rx="5.36976" ry="5.80965" fill="#D0E3FF"/>
<ellipse cx="198.53" cy="278.058" rx="5.36976" ry="5.80965" fill="#D0E3FF"/>
<ellipse cx="94.7147" cy="278.058" rx="5.36976" ry="5.80965" fill="#D0E3FF"/>
<ellipse cx="224.484" cy="278.058" rx="5.36976" ry="5.80965" fill="#D0E3FF"/>
<ellipse cx="120.669" cy="278.058" rx="5.36976" ry="5.80965" fill="#D0E3FF"/>
<ellipse cx="250.438" cy="278.058" rx="5.36976" ry="5.80965" fill="#D0E3FF"/>
<ellipse cx="146.622" cy="278.058" rx="5.36976" ry="5.80965" fill="#D0E3FF"/>
<ellipse cx="276.392" cy="278.058" rx="5.36976" ry="5.80965" fill="#D0E3FF"/>
<ellipse cx="1182.09" cy="953.916" rx="5.36976" ry="5.80965" fill="#D0E3FF"/>
<ellipse cx="1311.86" cy="953.915" rx="5.36976" ry="5.80965" fill="#D0E3FF"/>
<ellipse cx="1208.05" cy="953.915" rx="5.36976" ry="5.80965" fill="#D0E3FF"/>
<ellipse cx="1337.81" cy="953.915" rx="5.36976" ry="5.80965" fill="#D0E3FF"/>
<ellipse cx="1234" cy="953.915" rx="5.36976" ry="5.80965" fill="#D0E3FF"/>
<ellipse cx="1363.77" cy="953.915" rx="5.36976" ry="5.80965" fill="#D0E3FF"/>
<ellipse cx="1259.95" cy="953.915" rx="5.36976" ry="5.80965" fill="#D0E3FF"/>
<ellipse cx="1389.72" cy="953.915" rx="5.36976" ry="5.80965" fill="#D0E3FF"/>
<ellipse cx="1285.91" cy="953.915" rx="5.36976" ry="5.80965" fill="#D0E3FF"/>
<ellipse cx="1415.68" cy="953.915" rx="5.36976" ry="5.80965" fill="#D0E3FF"/>
<ellipse cx="1182.09" cy="1009.11" rx="5.36976" ry="5.80965" fill="#D0E3FF"/>
<ellipse cx="1311.86" cy="1009.11" rx="5.36976" ry="5.80965" fill="#D0E3FF"/>
<ellipse cx="1208.05" cy="1009.11" rx="5.36976" ry="5.80965" fill="#D0E3FF"/>
<ellipse cx="1337.81" cy="1009.11" rx="5.36976" ry="5.80965" fill="#D0E3FF"/>
<ellipse cx="1234" cy="1009.11" rx="5.36976" ry="5.80965" fill="#D0E3FF"/>
<ellipse cx="1363.77" cy="1009.11" rx="5.36976" ry="5.80965" fill="#D0E3FF"/>
<ellipse cx="1259.95" cy="1009.11" rx="5.36976" ry="5.80965" fill="#D0E3FF"/>
<ellipse cx="1389.72" cy="1009.11" rx="5.36976" ry="5.80965" fill="#D0E3FF"/>
<ellipse cx="1285.91" cy="1009.11" rx="5.36976" ry="5.80965" fill="#D0E3FF"/>
<ellipse cx="1415.68" cy="1009.11" rx="5.36976" ry="5.80965" fill="#D0E3FF"/>
<ellipse cx="1182.09" cy="1064.3" rx="5.36976" ry="5.80965" fill="#D0E3FF"/>
<ellipse cx="1311.86" cy="1064.3" rx="5.36976" ry="5.80965" fill="#D0E3FF"/>
<ellipse cx="1208.05" cy="1064.3" rx="5.36976" ry="5.80965" fill="#D0E3FF"/>
<ellipse cx="1337.81" cy="1064.3" rx="5.36976" ry="5.80965" fill="#D0E3FF"/>
<ellipse cx="1234" cy="1064.3" rx="5.36976" ry="5.80965" fill="#D0E3FF"/>
<ellipse cx="1363.77" cy="1064.3" rx="5.36976" ry="5.80965" fill="#D0E3FF"/>
<ellipse cx="1259.95" cy="1064.3" rx="5.36976" ry="5.80965" fill="#D0E3FF"/>
<ellipse cx="1389.72" cy="1064.3" rx="5.36976" ry="5.80965" fill="#D0E3FF"/>
<ellipse cx="1285.91" cy="1064.3" rx="5.36976" ry="5.80965" fill="#D0E3FF"/>
<ellipse cx="1415.68" cy="1064.3" rx="5.36976" ry="5.80965" fill="#D0E3FF"/>
<ellipse cx="852.009" cy="930.277" rx="210.434" ry="227.673" fill="#D0E3FF"/>
<ellipse cx="81.7114" cy="930.277" rx="33.3899" ry="36.1252" fill="#D0E3FF"/>
<ellipse rx="33.3899" ry="36.1252" transform="matrix(-1 0 0 1 1328.01 628.674)" fill="#D0E3FF"/>
<ellipse rx="33.3899" ry="36.1252" transform="matrix(-1 0 0 1 767.369 219.534)" fill="#D0E3FF"/>
<ellipse cx="48.3215" cy="781.576" rx="20.9658" ry="22.6833" fill="#D0E3FF"/>
<ellipse rx="20.9658" ry="22.6833" transform="matrix(-1 0 0 1 1361.4 479.972)" fill="#D0E3FF"/>
<ellipse rx="20.9658" ry="22.6833" transform="matrix(-1 0 0 1 800.759 70.8328)" fill="#D0E3FF"/>
<ellipse cx="150.821" cy="813.5" rx="62.8973" ry="68.0499" fill="#D0E3FF"/>
<ellipse rx="62.8973" ry="68.0499" transform="matrix(-1 0 0 1 1258.9 511.897)" fill="#D0E3FF"/>
<ellipse rx="62.8973" ry="68.0499" transform="matrix(-1 0 0 1 698.26 102.757)" fill="#D0E3FF"/>
<ellipse cx="1395.57" cy="71.673" rx="210.434" ry="227.673" fill="#D0E3FF"/>
</svg>
