<svg width="426" height="330" viewBox="0 0 426 330" fill="none" xmlns="http://www.w3.org/2000/svg">
<path d="M434.468 209.903C434.468 229.41 418.652 245.226 399.145 245.226C379.639 245.226 363.823 229.41 363.823 209.903C363.823 190.396 379.639 174.581 399.145 174.581C418.652 174.581 434.468 190.396 434.468 209.903Z" fill="#FFEAA7"/>
<path d="M271.984 308.806C271.984 316.609 265.658 322.935 257.855 322.935C250.052 322.935 243.726 316.609 243.726 308.806C243.726 301.004 250.052 294.677 257.855 294.677C265.658 294.677 271.984 301.004 271.984 308.806Z" fill="#FCD770"/>
<path d="M427.404 132.194C427.404 139.996 421.077 146.323 413.275 146.323C405.472 146.323 399.146 139.996 399.146 132.194C399.146 124.391 405.472 118.065 413.275 118.065C421.077 118.065 427.404 124.391 427.404 132.194Z" fill="#FCD770"/>
<path d="M52.984 266.419C60.7557 266.419 67.113 272.777 67.113 280.548C67.113 284.012 65.9126 287.12 63.7912 289.589C61.2489 292.701 57.2924 294.677 52.984 294.677C45.2124 294.677 38.855 288.32 38.855 280.548C38.855 276.24 40.8315 272.283 43.9429 269.741C46.4128 267.62 49.5207 266.419 52.984 266.419Z" fill="#FCD770"/>
<path d="M385.016 287.613C385.016 299.317 375.527 308.806 363.823 308.806C352.119 308.806 342.629 299.317 342.629 287.613C342.629 275.909 352.119 266.419 363.823 266.419C375.527 266.419 385.016 275.909 385.016 287.613Z" fill="#FCD770"/>
<path d="M75.5919 98.6371C82.0907 106.195 91.6975 111 102.436 111C82.9393 111 67.1131 126.826 67.1131 146.323C67.1131 138.41 64.4984 131.062 60.1176 125.198C53.6188 116.581 43.3773 111 31.7905 111C51.2869 111 67.1131 95.1738 67.1131 75.6774C67.1131 84.4391 70.2935 92.4901 75.5919 98.6371Z" fill="#FCD770"/>
<path d="M310.204 83.7319C301.373 55.0495 278.765 32.3727 250.083 23.4007C241.394 20.6445 232.139 19.1613 222.532 19.1613C171.808 19.1613 130.693 60.2755 130.693 111C130.693 120.607 132.177 129.862 134.933 138.551C143.912 167.233 166.582 189.841 195.34 198.672C203.953 201.424 213.067 202.839 222.532 202.839C273.257 202.839 314.371 161.724 314.371 111C314.371 101.535 312.956 92.3487 310.204 83.7319Z" fill="#FF826E"/>
<path d="M257.855 153.387C257.855 161.159 251.497 167.516 243.726 167.516C240.828 167.516 238.144 166.668 235.885 165.184C232.139 162.57 229.597 158.261 229.597 153.387C229.597 145.615 235.954 139.258 243.726 139.258C248.883 139.258 253.405 142.014 255.878 146.181C257.148 148.299 257.855 150.772 257.855 153.387Z" fill="#FCD770"/>
<path d="M137.758 -37.3548C137.758 -2.23922 109.293 26.2258 74.1773 26.2258C39.0617 26.2258 10.5967 -2.23922 10.5967 -37.3548C10.5967 -72.4705 39.0617 -100.935 74.1773 -100.935C109.293 -100.935 137.758 -72.4705 137.758 -37.3548Z" fill="#FCD770"/>
<path d="M144.823 -37.3548C144.823 -76.3097 113.132 -108 74.1774 -108C35.2225 -108 3.53223 -76.3097 3.53223 -37.3548C3.53223 1.60003 35.2225 33.2903 74.1774 33.2903C113.132 33.2903 144.823 1.60003 144.823 -37.3548ZM17.6613 -37.3548C17.6613 -68.5174 43.0149 -93.871 74.1774 -93.871C105.34 -93.871 130.694 -68.5174 130.694 -37.3548C130.694 -6.19233 105.34 19.1613 74.1774 19.1613C43.0149 19.1613 17.6613 -6.19233 17.6613 -37.3548Z" fill="black"/>
<path d="M406.21 174.581H392.081C392.081 190.165 379.407 202.839 363.823 202.839V216.968C379.407 216.968 392.081 229.641 392.081 245.226H406.21C406.21 229.641 418.883 216.968 434.468 216.968V202.839C418.883 202.839 406.21 190.165 406.21 174.581ZM399.145 221.842C396.003 217.109 391.939 213.046 387.207 209.903C391.939 206.761 396.003 202.697 399.145 197.965C402.288 202.697 406.351 206.761 411.084 209.903C406.351 213.046 402.288 217.109 399.145 221.842Z" fill="black"/>
<path d="M257.855 287.613C246.171 287.613 236.661 297.123 236.661 308.806C236.661 320.49 246.171 330 257.855 330C269.538 330 279.048 320.49 279.048 308.806C279.048 297.123 269.538 287.613 257.855 287.613ZM257.855 315.871C253.957 315.871 250.79 312.704 250.79 308.806C250.79 304.909 253.957 301.742 257.855 301.742C261.753 301.742 264.919 304.909 264.919 308.806C264.919 312.704 261.753 315.871 257.855 315.871Z" fill="black"/>
<path d="M349.949 -16.4166C328.189 -38.1517 273.157 -2.53934 248.234 15.6014C240.024 13.3903 231.432 12.0968 222.532 12.0968C167.993 12.0968 123.629 56.4604 123.629 111C123.629 119.9 124.922 128.492 127.134 136.709C109 161.624 73.3805 216.678 95.1087 238.417C99.7379 243.042 106.081 245.146 113.712 245.146C134.636 245.146 165.24 229.289 196.713 206.364C204.964 208.603 213.588 209.903 222.532 209.903C277.072 209.903 321.435 165.54 321.435 111C321.435 102.225 320.176 93.7561 318.017 85.6464C355.295 34.7253 364.026 -2.33582 349.949 -16.4166ZM222.532 26.2258C259.31 26.2258 290.597 49.8064 302.312 82.6074C289.835 99.1752 274.391 117.195 255.878 136.078C252.429 133.649 248.255 132.194 243.726 132.194C232.042 132.194 222.532 141.704 222.532 153.387C222.532 157.526 223.774 161.369 225.837 164.632C214.726 174.512 204.095 183.235 194.105 190.766C161.318 179.044 137.758 147.764 137.758 111C137.758 64.2528 175.785 26.2258 222.532 26.2258ZM236.661 153.387C236.661 149.489 239.828 146.323 243.726 146.323C247.624 146.323 250.79 149.489 250.79 153.387C250.79 157.285 247.624 160.452 243.726 160.452C239.828 160.452 236.661 157.285 236.661 153.387ZM105.105 228.427C97.6613 220.979 105.233 193.025 133.032 152.814C142.846 173.732 159.728 190.631 180.638 200.459C140.507 228.158 112.466 235.781 105.105 228.427ZM307.306 111C307.306 157.747 269.279 195.774 222.532 195.774C218.838 195.774 215.226 195.457 211.653 194.998C220.28 188.178 228.848 180.945 237.213 173.449C239.276 174.122 241.435 174.581 243.726 174.581C255.409 174.581 264.919 165.07 264.919 153.387C264.919 151.48 264.588 149.665 264.105 147.906C280.632 131.224 294.709 115.408 306.592 100.552C307.017 103.984 307.306 107.454 307.306 111ZM312.025 69.1786C302.198 48.2403 285.278 31.3276 264.34 21.5C304.55 -6.31306 332.491 -13.864 339.959 -6.4269C347.865 1.47929 338.99 30.1616 312.025 69.1786Z" fill="black"/>
<path d="M377.386 -43.8467C364.24 -56.9926 341.342 -61.508 313.157 -56.6132L315.585 -42.6877C338.955 -46.765 357.669 -43.5915 367.396 -33.857C377.182 -24.0812 380.318 -5.67832 376.241 17.954L390.166 20.3548C395.12 -8.34131 390.704 -30.5456 377.386 -43.8467Z" fill="black"/>
<path d="M370.349 41.3448C369.942 42.6004 369.525 43.8595 369.086 45.1151L382.446 49.7236C382.905 48.3818 383.357 47.0365 383.788 45.6946C384.954 42.1003 385.992 38.568 386.917 35.1047L373.253 31.469C372.405 34.6977 371.432 37.9954 370.349 41.3448Z" fill="black"/>
<path d="M357.648 72.5901L370.356 78.7647C372.715 73.9182 374.892 69.0786 376.906 64.2769L363.864 58.8302C361.956 63.3939 359.88 67.9851 357.648 72.5901Z" fill="black"/>
<path d="M397.365 -63.8399C372.681 -88.5312 331.877 -93.4329 282.056 -77.9827C278.2 -83.3018 271.977 -86.8064 264.919 -86.8064C253.236 -86.8064 243.726 -77.2962 243.726 -65.6129C243.726 -64.6608 243.881 -63.7467 244.009 -62.8223C204.978 -44.0744 165.961 -15.8646 130.814 19.282C109.917 40.172 91.6422 62.4246 76.023 85.4463C74.8846 82.3901 74.1775 79.1234 74.1775 75.6774H60.0485C60.0485 91.2621 47.3751 103.935 31.7904 103.935V118.065C39.5483 118.065 46.5748 121.207 51.6835 126.288C22.7631 183.325 16.9128 234.657 35.3365 268.841C33.1046 272.197 31.7904 276.219 31.7904 280.548C31.7904 292.232 41.3006 301.742 52.9839 301.742C57.2716 301.742 61.2489 300.441 64.5845 298.251C77.6028 305.253 93.0806 308.631 110.276 308.631C168.997 308.631 247.475 269.5 314.25 202.725C412.284 104.677 448.793 -12.4014 397.365 -63.8399ZM264.919 -72.6774C268.817 -72.6774 271.984 -69.5039 271.984 -65.6129C271.984 -61.7219 268.817 -58.5484 264.919 -58.5484C261.022 -58.5484 257.855 -61.7219 257.855 -65.6129C257.855 -69.5039 261.022 -72.6774 264.919 -72.6774ZM67.113 99.0614C70.2554 103.794 74.3189 107.858 79.0516 111C74.3189 114.142 70.2554 118.206 67.113 122.939C63.9705 118.206 59.907 114.142 55.1744 111C59.907 107.858 63.9705 103.794 67.113 99.0614ZM52.9839 287.613C49.086 287.613 45.9194 284.446 45.9194 280.548C45.9194 276.65 49.086 273.484 52.9839 273.484C56.8818 273.484 60.0485 276.65 60.0485 280.548C60.0485 284.446 56.8818 287.613 52.9839 287.613ZM304.261 192.728C224.481 272.515 124.985 312.487 73.1392 286.771C73.7532 284.795 74.1775 282.732 74.1775 280.548C74.1775 268.865 64.6673 259.355 52.9839 259.355C50.8142 259.355 48.7652 259.779 46.8025 260.386C32.977 232.459 37.7097 189.565 59.638 142.252C59.8311 143.587 60.0485 144.932 60.0485 146.323H74.1775C74.1775 130.738 86.8509 118.065 102.436 118.065V103.935C95.747 103.935 89.676 101.504 84.8295 97.6057C100.535 73.8044 119.255 50.8171 140.804 29.2717C174.926 -4.84357 212.719 -32.1772 250.432 -50.2351C254.223 -46.6511 259.304 -44.4193 264.919 -44.4193C276.196 -44.4193 285.358 -53.2914 285.992 -64.4194C330.649 -78.3518 366.534 -74.6919 387.376 -53.8502C432.44 -8.77941 395.161 101.838 304.261 192.728Z" fill="black"/>
<path d="M363.823 259.355C348.238 259.355 335.564 272.028 335.564 287.613C335.564 303.198 348.238 315.871 363.823 315.871C379.407 315.871 392.081 303.198 392.081 287.613C392.081 272.028 379.407 259.355 363.823 259.355ZM363.823 301.742C356.03 301.742 349.693 295.405 349.693 287.613C349.693 279.821 356.03 273.484 363.823 273.484C371.615 273.484 377.952 279.821 377.952 287.613C377.952 295.405 371.615 301.742 363.823 301.742Z" fill="black"/>
<path d="M95.371 -9.0968H81.242C81.242 -5.2058 78.0753 -2.03228 74.1774 -2.03228C70.2795 -2.03228 67.1129 -5.2058 67.1129 -9.0968H52.9839C52.9839 2.58657 62.4941 12.0968 74.1774 12.0968C85.8608 12.0968 95.371 2.58657 95.371 -9.0968Z" fill="black"/>
<path d="M222.532 54.4839V40.3549C183.577 40.3549 151.887 72.0452 151.887 111H166.016C166.016 79.8375 191.37 54.4839 222.532 54.4839Z" fill="black"/>
<path d="M392.081 132.194C392.081 143.877 401.591 153.387 413.274 153.387C424.958 153.387 434.468 143.877 434.468 132.194C434.468 120.51 424.958 111 413.274 111C401.591 111 392.081 120.51 392.081 132.194ZM420.339 132.194C420.339 136.091 417.172 139.258 413.274 139.258C409.376 139.258 406.21 136.091 406.21 132.194C406.21 128.296 409.376 125.129 413.274 125.129C417.172 125.129 420.339 128.296 420.339 132.194Z" fill="black"/>
</svg>
