<svg width="465" height="465" viewBox="0 0 465 465" fill="none" xmlns="http://www.w3.org/2000/svg">
<g clip-path="url(#clip0)">
<path d="M232.353 11.9162C235.089 11.8815 237.788 12.93 239.848 14.9905C250.566 32.8301 259.412 51.5682 266.307 70.9798C266.232 71.0548 266.157 71.1298 266.082 71.2048C247.455 89.8314 217.251 89.8314 198.624 71.2049C198.549 71.1298 198.474 71.0548 198.399 70.9798C205.294 51.5682 214.14 32.8301 224.858 14.9905C226.918 12.93 229.617 11.8815 232.353 11.9162Z" fill="#E6E9ED"/>
<path d="M299.81 82.4477C308.017 98.9003 312.927 116.7 314.351 134.915L285.27 134.915C286.694 116.7 291.603 98.9003 299.81 82.4477Z" fill="#CCD1D9"/>
<path d="M266.082 71.2049L266.307 70.9798C270.391 82.2593 273.802 93.7657 276.499 105.459C275.562 106.546 274.625 107.633 273.577 108.681C250.791 131.467 213.915 131.467 191.129 108.681C190.081 107.633 189.144 106.546 188.207 105.459C189.144 101.298 190.192 97.1748 191.318 93.1289C193.378 85.6702 195.739 78.2884 198.399 70.9798L198.624 71.2049C217.251 89.8314 247.455 89.8314 266.082 71.2049Z" fill="#69D6F4"/>
<path d="M239.848 44.9715C243.987 49.1107 243.987 55.8228 239.848 59.962C235.709 64.1012 228.997 64.1012 224.858 59.962C220.718 55.8228 220.718 49.1107 224.858 44.9715C228.997 40.8323 235.709 40.8323 239.848 44.9715Z" fill="#FF826E"/>
<path d="M285.27 134.914L314.35 134.914C314.652 138.587 314.801 142.26 314.801 145.934L314.801 157.4L284.82 157.4L284.82 145.934C284.82 142.26 284.968 138.587 285.27 134.914Z" fill="#FCD770"/>
<path d="M273.577 108.681C250.791 131.467 213.915 131.467 191.129 108.681C190.08 107.633 189.143 106.546 188.206 105.459C182.697 128.88 179.886 152.979 179.886 177.339V280.772L284.819 280.772V177.339C284.819 152.979 282.009 128.88 276.499 105.459C275.562 106.546 274.625 107.633 273.577 108.681Z" fill="#E6E9ED"/>
<path d="M314.801 157.4L314.801 302.807C314.237 302.471 313.602 302.209 313.002 301.909C303.969 297.898 295.912 292.315 289.204 285.606C287.667 284.069 286.207 282.459 284.82 280.772L284.82 157.4L314.801 157.4Z" fill="#CCD1D9"/>
<path d="M218.824 166.431C205.783 182.397 198.624 202.372 198.624 222.984L198.624 229.729C198.624 248.844 191.768 266.793 179.886 280.772C172.391 289.691 162.797 296.961 151.704 301.909C151.104 302.209 150.469 302.471 149.905 302.807C146.683 304.456 143.833 306.555 141.323 309.066C140.686 309.702 140.086 310.38 139.486 311.053L325.22 311.053C324.62 310.38 324.02 309.702 323.383 309.066C320.872 306.555 318.023 304.456 314.801 302.807C314.237 302.471 313.602 302.209 313.002 301.909C303.969 297.898 295.912 292.315 289.204 285.606C287.667 284.069 286.207 282.459 284.82 280.772C272.938 266.793 266.081 248.844 266.081 229.729L266.081 222.984C266.081 202.372 258.923 182.397 245.881 166.431L232.353 149.905L218.824 166.431Z" fill="#AAB2BD"/>
<path d="M164.896 82.4477C173.103 98.9003 178.012 116.7 179.436 134.914L150.355 134.915C151.779 116.7 156.689 98.9003 164.896 82.4477Z" fill="#CCD1D9"/>
<path d="M150.355 134.914L179.436 134.914C179.738 138.587 179.886 142.26 179.886 145.934V157.4L149.905 157.4L149.905 145.934C149.905 142.26 150.053 138.587 150.355 134.914Z" fill="#FCD770"/>
<path d="M224.407 195.327C228.792 190.942 235.914 190.942 240.298 195.327C242.397 197.426 243.596 200.275 243.596 203.272V246.443C243.596 249.44 242.397 252.29 240.298 254.388C238.124 256.562 235.2 257.686 232.353 257.686C229.505 257.686 226.581 256.562 224.407 254.388C222.308 252.29 221.11 249.44 221.11 246.443V203.272C221.11 200.275 222.308 197.426 224.407 195.327Z" fill="#FF826E"/>
<path d="M179.886 157.4L179.886 280.772C172.391 289.691 162.797 296.961 151.704 301.909C151.104 302.209 150.469 302.471 149.905 302.807V157.4H179.886Z" fill="#CCD1D9"/>
<path d="M266.082 311.053L325.22 311.053C330.466 317.2 333.539 325.07 333.539 333.539L131.167 333.539C131.167 325.07 134.239 317.2 139.486 311.053L266.082 311.053Z" fill="#FCD770"/>
<path d="M258.586 288.567L266.081 311.053L198.624 311.053L206.119 288.567L258.586 288.567Z" fill="#E6E9ED"/>
<path d="M303.558 333.539L303.558 370.115C303.558 380.311 299.51 390.053 292.315 397.248C285.119 390.053 281.072 380.311 281.072 370.115L281.072 333.539L303.558 333.539Z" fill="#FF826E"/>
<path d="M266.082 333.539L251.091 378.51L213.615 378.51L198.624 333.539L266.082 333.539Z" fill="#E6E9ED"/>
<path d="M183.634 333.539L183.634 370.115C183.634 380.311 179.586 390.053 172.391 397.248C165.196 390.053 161.148 380.311 161.148 370.115L161.148 333.539L183.634 333.539Z" fill="#FF826E"/>
<path d="M248.895 246.436L248.895 203.279C248.893 198.864 247.175 194.708 244.05 191.583C237.599 185.132 227.107 185.132 220.656 191.583C217.531 194.708 215.812 198.864 215.811 203.279L215.811 246.436C215.812 250.851 217.531 255.007 220.656 258.132C227.107 264.583 237.599 264.583 244.05 258.132C247.175 255.007 248.893 250.851 248.895 246.436ZM228.151 250.637C227.028 249.514 226.413 248.02 226.409 246.436L226.409 203.279C226.413 201.695 227.028 200.202 228.151 199.078C230.468 196.761 234.238 196.761 236.554 199.078C237.678 200.202 238.293 201.695 238.296 203.279L238.296 246.436C238.293 248.02 237.678 249.514 236.554 250.637C234.238 252.954 230.468 252.954 228.151 250.637Z" fill="black"/>
<path d="M243.596 11.2429C237.398 5.045 227.308 5.045 221.11 11.2429L220.31 12.2658C201.689 43.3008 188.541 77.1411 181.262 112.29C178.645 101.146 174.748 90.3053 169.637 80.0817L164.896 70.6047L160.154 80.0817C149.98 100.43 144.606 123.207 144.606 145.956L144.604 299.731C133.074 306.95 125.864 319.683 125.864 333.535L125.868 338.838L155.849 338.838L155.849 370.107C155.849 381.778 160.39 392.743 168.643 400.996L172.391 404.744L176.138 400.996C184.391 392.743 188.933 381.778 188.933 370.107V338.838L194.802 338.836L209.792 383.808L254.914 383.808L269.904 338.836L275.773 338.838L275.773 370.107C275.773 381.778 280.314 392.743 288.567 400.996L292.315 404.744L296.062 400.996C304.315 392.743 308.857 381.778 308.857 370.107L308.857 338.838H338.838V333.539C338.838 319.679 331.632 306.95 320.098 299.728L320.1 145.949C320.1 123.2 314.722 100.426 304.551 80.0744L299.81 70.5974L295.069 80.0744C289.954 90.3017 286.06 101.146 283.443 112.282C276.164 77.1337 263.016 43.2935 244.395 12.2584L243.596 11.2429ZM258.729 305.754L205.977 305.754L209.942 293.865H254.764L258.729 305.754ZM202.297 283.27L194.802 305.755L155.924 305.755C185.14 291.804 203.918 262.248 203.916 229.736V223.02C203.916 203.675 210.661 184.779 222.912 169.809L232.345 158.279L241.779 169.809C254.028 184.781 260.775 203.675 260.775 223.02V229.736C260.775 262.242 279.559 291.804 308.769 305.757L269.891 305.757L262.396 283.271L202.297 283.27ZM174.587 278.792C169.115 284.933 162.592 290.176 155.204 294.247L155.204 162.7L174.587 162.7V278.792ZM290.119 278.785L290.119 162.7H309.501L309.501 294.24C302.119 290.17 295.59 284.926 290.119 278.785ZM279.52 263.278C274.299 253.08 271.379 241.647 271.381 229.736V223.02C271.381 201.241 263.785 179.957 249.988 163.097L232.353 141.539L214.718 163.097C200.921 179.957 193.328 201.237 193.325 223.02L193.325 229.736C193.327 241.647 190.406 253.087 185.185 263.285L185.185 177.353C185.185 156.657 187.27 136.113 191.327 115.993C214.941 135.978 249.761 135.974 273.379 115.993C277.436 136.106 279.52 156.657 279.52 177.353V263.278ZM270.698 103.965C270.407 104.289 270.14 104.622 269.829 104.934C249.164 125.599 215.542 125.599 194.877 104.934C194.565 104.622 194.298 104.289 194.007 103.965C195.971 95.9011 198.287 87.9265 200.888 80.0414C219.45 93.7693 244.968 93.8114 263.8 79.9792C266.411 87.8825 268.731 95.8828 270.698 103.965ZM173.478 129.615L156.321 129.615C157.741 117.911 160.555 106.372 164.899 95.418C169.243 106.372 172.054 117.915 173.478 129.615ZM155.483 140.214L174.316 140.214C174.4 142.124 174.59 144.031 174.594 145.949L174.587 152.101H155.204L155.204 145.949C155.204 144.035 155.398 142.124 155.483 140.214ZM178.334 370.107C178.334 376.98 176.256 383.528 172.391 389.039C168.53 383.531 166.447 376.98 166.447 370.107V338.838H178.334V370.107ZM247.268 373.213L217.437 373.213L205.977 338.838L258.729 338.838L247.268 373.213ZM298.258 370.107C298.258 376.98 296.18 383.528 292.315 389.039C288.454 383.531 286.371 376.98 286.371 370.107L286.371 338.838L298.258 338.838L298.258 370.107ZM327.756 328.236L136.949 328.236C137.751 323.895 139.553 319.86 142.099 316.349L322.607 316.349C325.156 319.864 326.958 323.899 327.756 328.236ZM309.501 152.101H290.119L290.119 145.949C290.119 144.035 290.313 142.124 290.397 140.214H309.23C309.315 142.124 309.505 144.031 309.509 145.949L309.501 152.101ZM308.392 129.615H291.235C292.655 117.911 295.47 106.372 299.814 95.418C304.158 106.372 306.969 117.915 308.392 129.615ZM260.112 69.4628C244.179 83.3023 220.352 83.2639 204.586 69.4775C211.137 51.8043 219.276 34.6838 229.01 18.3703C230.947 16.7948 233.753 16.7893 235.696 18.3703C245.426 34.6802 253.561 51.797 260.112 69.4628Z" fill="black"/>
<path d="M221.11 41.2239C214.912 47.4217 214.912 57.5118 221.11 63.7096C227.308 69.9075 237.398 69.9075 243.596 63.7096C249.794 57.5117 249.794 47.4217 243.596 41.2238C237.398 35.026 227.308 35.026 221.11 41.2239ZM236.101 56.2144C234.036 58.2785 230.669 58.2785 228.605 56.2144C226.541 54.1502 226.541 50.7832 228.605 48.7191C230.669 46.655 234.036 46.655 236.101 48.7191C238.165 50.7832 238.165 54.1502 236.101 56.2144Z" fill="black"/>
</g>
<defs>
<clipPath id="clip0">
<rect width="328.596" height="328.596" fill="white" transform="translate(0 232.353) rotate(-45)"/>
</clipPath>
</defs>
</svg>
