<svg width="240" height="240" viewBox="0 0 240 240" fill="none" xmlns="http://www.w3.org/2000/svg">
<g clip-path="url(#clip0)">
<path d="M233.846 6.15424C235.277 7.54915 236.129 9.48463 236.129 11.6129C232.451 26.3615 227.342 40.6074 220.878 54.1936C220.8 54.1936 220.723 54.1936 220.645 54.1936C201.406 54.1936 185.806 38.5944 185.806 19.3548C185.806 19.2773 185.806 19.1999 185.806 19.1224C199.393 12.6581 213.638 7.54915 228.387 3.87097C230.515 3.87097 232.451 4.72342 233.846 6.15424Z" fill="#E6E9ED"/>
<path d="M232.258 77.4194C228 90.155 221.343 101.883 212.671 112.026L197.652 97.0067C207.794 88.3348 219.522 81.6778 232.258 77.4194Z" fill="#CCD1D9"/>
<path d="M220.645 54.1936H220.878C217.162 62.1283 212.981 69.8324 208.335 77.2644C207.289 77.3419 206.244 77.4194 205.161 77.4194C181.625 77.4194 162.581 58.3745 162.581 34.8387C162.581 33.7557 162.658 32.7105 162.736 31.6652C165.368 30 168.039 28.4123 170.71 26.904C175.626 24.1161 180.658 21.5228 185.806 19.1224V19.3549C185.806 38.5944 201.406 54.1936 220.645 54.1936Z" fill="#69D6F4"/>
<path d="M220.645 27.0968C220.645 31.3722 217.179 34.8387 212.903 34.8387C208.628 34.8387 205.161 31.3722 205.161 27.0968C205.161 22.8213 208.628 19.3549 212.903 19.3549C217.179 19.3549 220.645 22.8213 220.645 27.0968Z" fill="#FF826E"/>
<path d="M197.652 97.0067L212.671 112.026C210.93 114.078 209.11 116.052 207.212 117.949L201.29 123.871L185.806 108.387L191.728 102.465C193.626 100.568 195.599 98.7475 197.652 97.0067Z" fill="#FCD770"/>
<path d="M205.161 77.4194C181.626 77.4194 162.581 58.3745 162.581 34.8387C162.581 33.7557 162.658 32.7105 162.736 31.6652C147.794 40.9155 133.896 51.9103 121.316 64.491L67.897 117.91L122.091 172.103L175.509 118.685C188.09 106.104 199.085 92.2058 208.335 77.2644C207.29 77.3419 206.244 77.4194 205.161 77.4194Z" fill="#E6E9ED"/>
<path d="M201.29 123.871L126.194 198.967C126.077 198.502 125.884 198.039 125.729 197.574C123.136 190.838 121.858 183.793 121.858 176.864C121.858 175.277 121.935 173.691 122.09 172.103L185.806 108.387L201.29 123.871Z" fill="#CCD1D9"/>
<path d="M147.059 78.9674C132.078 80.4776 118.065 87.0968 107.419 97.742L103.936 101.225C94.0638 111.098 81.2526 116.827 67.897 117.91C59.4198 118.645 50.7101 117.445 42.4257 114.271C41.9607 114.116 41.4977 113.923 41.0327 113.806C38.5169 112.993 35.9615 112.606 33.3682 112.606C32.7105 112.606 32.0508 112.646 31.3931 112.683L127.317 208.607C127.355 207.949 127.394 207.29 127.394 206.632C127.394 204.039 127.007 201.483 126.194 198.967C126.077 198.502 125.884 198.039 125.729 197.574C123.136 190.838 121.858 183.793 121.858 176.864C121.858 175.277 121.936 173.691 122.091 172.103C123.174 158.747 128.903 145.936 138.775 136.064L142.258 132.581C152.903 121.936 159.522 107.922 161.033 92.941L162.581 77.4194L147.059 78.9674Z" fill="#AAB2BD"/>
<path d="M162.581 7.74194C158.322 20.4776 151.665 32.2058 142.993 42.3482L127.974 27.3293C138.117 18.6574 149.845 12.0004 162.581 7.74194Z" fill="#CCD1D9"/>
<path d="M127.974 27.3293L142.993 42.3482C141.252 44.4009 139.432 46.3741 137.535 48.2718L131.613 54.1936L116.129 38.7097L122.051 32.788C123.948 30.8903 125.922 29.0701 127.974 27.3293Z" fill="#FCD770"/>
<path d="M135.019 96.7742C139.548 96.7742 143.226 100.452 143.226 104.981C143.226 107.149 142.373 109.24 140.825 110.788L118.529 133.083C116.981 134.631 114.891 135.484 112.723 135.484C110.478 135.484 108.387 134.554 106.917 133.083C105.446 131.613 104.516 129.522 104.516 127.277C104.516 125.109 105.369 123.019 106.917 121.47L129.212 99.1746C130.76 97.6266 132.851 96.7742 135.019 96.7742Z" fill="#FF826E"/>
<path d="M131.613 54.1935L67.897 117.91C59.4198 118.645 50.7101 117.445 42.4257 114.271C41.9608 114.116 41.4977 113.923 41.0327 113.806L116.129 38.7097L131.613 54.1935Z" fill="#CCD1D9"/>
<path d="M96.7742 178.065L127.317 208.607C126.852 214.491 124.374 220.142 120 224.516L15.4839 120C19.8576 115.626 25.5091 113.148 31.393 112.683L96.7742 178.065Z" fill="#FCD770"/>
<path d="M104.516 162.581L96.7743 178.065L61.9355 143.226L77.4194 135.484L104.516 162.581Z" fill="#E6E9ED"/>
<path d="M104.516 209.032L85.6262 227.922C80.3603 233.188 73.2384 236.129 65.8064 236.129C65.8064 228.697 68.7474 221.575 74.0133 216.309L92.9032 197.419L104.516 209.032Z" fill="#FF826E"/>
<path d="M85.1612 189.677L54.1935 205.161L34.8386 185.806L50.3225 154.839L85.1612 189.677Z" fill="#E6E9ED"/>
<path d="M42.5805 147.097L23.6907 165.987C18.4248 171.253 11.3028 174.194 3.87085 174.194C3.87085 166.762 6.81188 159.64 12.0778 154.374L30.9676 135.484L42.5805 147.097Z" fill="#FF826E"/>
<path d="M121.27 135.816L143.559 113.528C145.838 111.247 147.097 108.213 147.097 104.985C147.097 98.3222 141.678 92.9032 135.015 92.9032C131.787 92.9032 128.753 94.162 126.472 96.4415L104.184 118.73C101.904 121.011 100.645 124.045 100.645 127.273C100.645 133.936 106.064 139.355 112.727 139.355C115.955 139.355 118.989 138.096 121.27 135.816ZM108.387 127.273C108.387 126.113 108.841 125.024 109.657 124.204L131.946 101.915C132.766 101.099 133.855 100.645 135.015 100.645C137.408 100.645 139.355 102.592 139.355 104.985C139.355 106.145 138.901 107.234 138.085 108.054L115.796 130.343C114.976 131.159 113.887 131.613 112.727 131.613C110.334 131.613 108.387 129.666 108.387 127.273Z" fill="black"/>
<path d="M240 11.6129C240 5.21106 234.789 0 228.387 0L227.446 0.115297C201.801 6.52659 177.533 17.2133 155.621 31.6066C160.025 24.4997 163.611 16.8882 166.251 8.96862L168.697 1.6255L161.354 4.07132C145.59 9.32586 131.052 18.3134 119.303 30.0624L39.8834 109.48C30.2004 107.253 19.9011 110.105 12.747 117.259L10.0101 120L25.494 135.484L9.34476 151.633C3.31716 157.661 0 165.669 0 174.194V178.065H3.87097C12.3954 178.065 20.4039 174.747 26.4314 168.72L42.5806 152.571L45.6124 155.6L30.1285 186.568L53.4318 209.871L84.3996 194.388L87.4294 197.419L71.2802 213.569C65.2526 219.596 61.9355 227.605 61.9355 236.129V240H65.8064C74.3309 240 82.3393 236.683 88.3669 230.655L104.516 214.506L120 229.99L122.737 227.253C129.895 220.095 132.747 209.8 130.52 200.113L209.941 120.694C221.69 108.945 230.674 94.4059 235.932 78.6423L238.378 71.2991L231.035 73.745C223.112 76.3855 215.5 79.9748 208.397 84.375C222.79 62.4628 233.477 38.1956 239.888 12.5504L240 11.6129ZM95.7138 171.53L68.4696 144.286L76.6576 140.194L99.8059 163.342L95.7138 171.53ZM78.1811 130.774L62.6972 138.516L42.6184 118.437C64.9124 126.321 89.8753 120.754 106.665 103.962L110.134 100.494C120.125 90.5028 133.367 84.2276 147.426 82.8232L158.252 81.7402L157.169 92.5668C155.763 106.626 149.49 119.868 139.498 129.859L136.03 133.327C119.242 150.115 113.676 175.084 121.556 197.376L101.477 177.297L109.219 161.813L78.1811 130.774ZM66.1826 114.15C60.1852 114.496 54.1085 113.834 48.1905 112.122L116.129 44.1835L126.139 54.1935L66.1826 114.15ZM125.854 173.814L185.806 113.861L195.817 123.871L127.882 191.806C126.171 185.891 125.508 179.811 125.854 173.814ZM128.388 160.331C130.959 152.368 135.355 144.955 141.508 138.805L144.976 135.336C156.224 124.088 163.293 109.173 164.875 93.3398L166.901 73.0985L146.66 75.1247C130.827 76.7068 115.915 83.7758 104.664 95.0239L101.195 98.4923C95.0447 104.645 87.6279 109.045 79.6648 111.615L124.045 67.2354C134.733 56.5467 146.42 47.013 158.906 38.7172C160.781 61.2342 178.766 79.215 201.283 81.0938C192.991 93.5761 183.453 105.267 172.765 115.955L128.388 160.331ZM206.11 73.4974C205.793 73.5144 205.483 73.5484 205.161 73.5484C183.816 73.5484 166.452 56.1838 166.452 34.8387C166.452 34.5174 166.486 34.2074 166.503 33.8899C171.682 30.739 176.997 27.8169 182.412 25.0876C184.909 41.7641 198.066 54.9647 214.935 57.5466C212.202 62.9769 209.269 68.3071 206.11 73.4974ZM142.653 36.5341L133.792 27.6733C140.57 22.362 147.983 17.856 155.884 14.4424C152.47 22.3431 147.961 29.7562 142.653 36.5341ZM127.886 32.7142L137.612 42.4408C136.669 43.4709 135.783 44.5539 134.794 45.5462L131.613 48.7198L121.603 38.7097L124.78 35.5324C125.769 34.5438 126.855 33.6574 127.886 32.7142ZM20.9577 163.246C17.408 166.796 12.953 169.103 8.11051 169.954C8.96106 165.115 11.2689 160.656 14.8185 157.107L30.9677 140.958L37.1069 147.097L20.9577 163.246ZM54.9553 200.451L39.5489 185.045L51.3829 161.373L78.6271 188.617L54.9553 200.451ZM82.8931 225.181C79.3435 228.731 74.8885 231.039 70.046 231.889C70.8965 227.051 73.2044 222.592 76.754 219.042L92.9032 202.893L99.0423 209.032L82.8931 225.181ZM119.752 218.791L21.209 120.248C23.8647 118.42 26.8794 117.267 30.0076 116.768L123.232 209.992C122.733 213.124 121.58 216.139 119.752 218.791ZM201.29 118.397L191.28 108.387L194.458 105.21C195.446 104.221 196.533 103.335 197.563 102.392L207.29 112.118C206.346 113.148 205.46 114.231 204.471 115.224L201.29 118.397ZM212.331 106.212L203.47 97.3507C210.248 92.0394 217.661 87.5334 225.561 84.1198C222.148 92.0205 217.638 99.4336 212.331 106.212ZM218.462 50.2111C203.086 49.1299 190.8 36.8044 189.778 21.5417C202.288 15.7976 215.334 11.1593 228.786 7.76084C230.6 7.94796 232.052 9.3939 232.239 11.2141C228.841 24.6623 224.202 37.7041 218.462 50.2111Z" fill="black"/>
<path d="M212.903 15.4839C206.501 15.4839 201.29 20.6949 201.29 27.0968C201.29 33.4986 206.501 38.7097 212.903 38.7097C219.305 38.7097 224.516 33.4986 224.516 27.0968C224.516 20.6949 219.305 15.4839 212.903 15.4839ZM212.903 30.9678C210.771 30.9678 209.032 29.2288 209.032 27.0968C209.032 24.9647 210.771 23.2258 212.903 23.2258C215.035 23.2258 216.774 24.9647 216.774 27.0968C216.774 29.2288 215.035 30.9678 212.903 30.9678Z" fill="black"/>
</g>
<defs>
<clipPath id="clip0">
<rect width="240" height="240" fill="white"/>
</clipPath>
</defs>
</svg>
