<svg width="243" height="243" viewBox="0 0 243 243" fill="none" xmlns="http://www.w3.org/2000/svg">
<g clip-path="url(#clip0)">
<path d="M239.063 51.5169C239.063 64.5517 233.785 76.3656 225.24 84.951L207.559 67.2687L176.056 35.7651L158.373 18.0848C166.959 9.53975 178.773 4.2616 191.807 4.2616C217.915 4.2616 239.063 25.4088 239.063 51.5169Z" fill="#69D6F4"/>
<path d="M231.187 90.8963L209.213 127.52C204.998 117.872 199.447 108.815 192.751 100.584L207.559 67.2687L225.24 84.951L231.187 90.8963Z" fill="#CCD1D9"/>
<path d="M219.294 174.933L219.373 197.221C219.373 199.388 218.506 201.357 217.048 202.774L160.304 146.028L183.932 90.8964L184.718 91.6847C187.554 94.519 190.231 97.5128 192.752 100.584C199.447 108.815 204.998 117.872 209.213 127.52C215.749 142.326 219.254 158.434 219.294 174.933Z" fill="#AAB2BD"/>
<path d="M160.304 146.028L217.048 202.774C215.631 204.231 213.662 205.097 211.497 205.097H189.562C173.22 205.097 157.193 201.711 142.504 195.292C130.927 190.291 120.176 183.438 110.685 174.893C109.07 173.476 107.534 172.018 106 170.482L103.873 168.355L74.9671 139.451L72.8423 137.325C71.306 135.79 69.8485 134.254 68.4314 132.639C59.8864 123.148 53.0334 112.397 48.0321 100.82C41.6138 86.1316 38.2277 70.1048 38.2277 53.7627V31.8272C38.2277 29.6217 39.0929 27.6527 40.5101 26.2356L97.2968 83.0204L160.304 146.028Z" fill="#E6E9ED"/>
<path d="M207.559 67.2687L192.752 100.584C190.231 97.5128 187.554 94.5189 184.718 91.6847L183.932 90.8963L151.601 58.566C148.765 55.7317 145.812 53.0532 142.741 50.5728L176.056 35.7651L207.559 67.2687Z" fill="#E6E9ED"/>
<path d="M195.745 142.09C195.745 146.439 192.219 149.966 187.869 149.966C183.518 149.966 179.994 146.439 179.994 142.09C179.994 137.74 183.518 134.214 187.869 134.214C192.219 134.214 195.745 137.74 195.745 142.09Z" fill="#FCD770"/>
<path d="M183.932 90.8964L160.304 146.028L97.2969 83.0205L152.428 59.3928L183.932 90.8964Z" fill="#E6E9ED"/>
<path d="M176.056 35.7651L142.741 50.5728C134.509 43.8775 125.453 38.3263 115.844 34.073L152.428 12.1375L158.373 18.0847L176.056 35.7651Z" fill="#CCD1D9"/>
<path d="M156.366 94.8343C156.366 99.1837 152.839 102.71 148.49 102.71C144.139 102.71 140.614 99.1837 140.614 94.8343C140.614 90.4848 144.139 86.9584 148.49 86.9584C152.839 86.9584 156.366 90.4848 156.366 94.8343Z" fill="#FCD770"/>
<path d="M152.428 59.3928L97.2969 83.0204L40.5101 26.2356C41.9292 24.8185 43.8981 23.9513 46.1036 23.9513H68.0373C84.6947 23.9513 100.958 27.4566 115.844 34.073C125.453 38.3263 134.509 43.8775 142.741 50.5728C145.812 53.0532 148.765 55.7317 151.601 58.566L152.428 59.3928Z" fill="#AAB2BD"/>
<path d="M142.504 195.292L113.049 212.973L97.2969 197.221L110.685 174.893C120.177 183.438 130.927 190.291 142.504 195.292Z" fill="#FCD770"/>
<path d="M109.111 55.4549C109.111 59.8043 105.584 63.3307 101.235 63.3307C96.8834 63.3307 93.3589 59.8043 93.3589 55.4549C93.3589 51.1054 96.8834 47.579 101.235 47.579C105.584 47.579 109.111 51.1054 109.111 55.4549Z" fill="#FCD770"/>
<path d="M103.873 168.355L77.6071 181.469L61.8553 165.717L74.9671 139.451L103.873 168.355Z" fill="#FCD770"/>
<path d="M68.4314 132.639L46.1036 146.028L30.3518 130.276L48.0322 100.82C53.0334 112.397 59.8864 123.148 68.4314 132.639Z" fill="#FCD770"/>
<path d="M104.969 152.752L110.539 147.183L118.413 155.057L112.845 160.626L104.969 152.752Z" fill="black"/>
<path d="M116.962 164.654C135.155 181.675 158.862 191.791 183.718 193.125L184.139 185.257C160.796 184.005 139.428 174.889 122.342 158.901L116.962 164.654Z" fill="black"/>
<path d="M230.654 84.7972C238.621 75.5234 243.001 63.8672 243.001 51.5169C243.001 23.2899 220.035 0.323669 191.808 0.323669C179.457 0.323669 167.801 4.70386 158.527 12.6701L153.038 7.18046L115.639 29.6217C100.781 23.3303 84.6716 20.0134 68.0527 20.0134H46.0863C39.5814 20.0134 34.2898 25.3069 34.2898 31.8272V53.7782C34.2898 70.1164 37.4798 85.9624 43.5597 100.609L25.389 130.887L45.4883 150.987L67.7104 137.652C68.4853 138.467 69.2429 139.298 70.037 140.098L70.1831 140.244L57.0579 166.494L76.8265 186.263L103.081 173.137L103.223 173.278C104.023 174.078 104.85 174.833 105.669 175.606L92.3341 197.832L112.433 217.932L142.712 199.765C157.366 205.845 173.212 209.035 189.546 209.035H211.497C214.651 209.035 217.62 207.806 219.848 205.57C222.079 203.333 223.303 200.368 223.294 197.213L223.244 174.926C223.203 158.445 219.908 142.472 213.685 127.724L236.148 90.2868L230.654 84.7972ZM191.808 8.19956C215.691 8.19956 235.125 27.6335 235.125 51.5169C235.125 61.7637 231.575 71.4585 225.086 79.2287L164.096 18.2386C171.866 11.7491 181.561 8.19956 191.808 8.19956ZM187.487 88.8851L154.372 55.7702C152.955 54.3531 151.509 52.9783 150.036 51.64L175.185 40.4645L202.864 68.1436L191.684 93.2961C190.327 91.7943 188.923 90.3214 187.487 88.8851ZM104.192 84.3472L151.526 64.0595L179.261 91.7943L158.975 139.128L104.192 84.3472ZM151.817 17.0965L169.214 34.4942L143.324 46.0042C137.305 41.2702 130.914 37.1438 124.213 33.6635L151.817 17.0965ZM145.417 58.1141L98.1948 78.3499L47.7342 27.8893H68.0527C96.9931 27.8893 124.274 38.5975 145.417 58.1141ZM46.7132 141.071L35.3089 129.666L47.5765 109.225C51.6356 117.172 56.5734 124.7 62.3746 131.674L46.7132 141.071ZM78.3821 176.677L66.6471 164.942L76.0631 146.114L97.218 167.265L78.3821 176.677ZM113.658 208.016L102.254 196.611L111.655 180.946C118.629 186.747 126.157 191.685 134.104 195.744L113.658 208.016ZM108.795 167.711L75.6094 134.529C54.0449 112.957 42.1657 84.2819 42.1657 53.7782V33.4578L209.867 201.159H189.546C159.046 201.159 130.368 189.28 108.795 167.711ZM215.414 195.571L164.975 145.126L185.21 97.907C204.617 118.966 215.301 146.131 215.368 174.937L215.414 195.571ZM209.642 119.152C206.165 112.438 202.041 106.039 197.313 100.016L208.826 74.1101L226.224 91.5078L209.642 119.152Z" fill="black"/>
<path d="M0 237.752L7.87396 229.878L13.4444 235.447L5.5685 243.321L0 237.752Z" fill="black"/>
<path d="M11.8138 225.938L59.0711 178.683L64.6396 184.251L17.3823 231.507L11.8138 225.938Z" fill="black"/>
<path d="M31.5035 225.938L39.3775 218.064L44.946 223.633L37.072 231.509L31.5035 225.938Z" fill="black"/>
<path d="M43.3154 214.126L63.0051 194.437L68.5736 200.007L48.8839 219.695L43.3154 214.126Z" fill="black"/>
<path d="M11.8138 206.248L19.6878 198.375L25.2582 203.943L17.3823 211.819L11.8138 206.248Z" fill="black"/>
<path d="M23.6257 194.437L43.3154 174.747L48.8839 180.317L29.1942 200.005L23.6257 194.437Z" fill="black"/>
<path d="M0 170.807L7.87589 162.933L13.4444 168.501L5.5685 176.377L0 170.807Z" fill="black"/>
<path d="M11.8157 158.993L27.5674 143.241L33.1359 148.81L17.3842 164.562L11.8157 158.993Z" fill="black"/>
<path d="M19.6897 170.807L35.4415 155.055L41.0119 160.624L25.2601 176.375L19.6897 170.807Z" fill="black"/>
<path d="M0.00195312 151.117L15.7537 135.365L21.3222 140.934L5.57045 156.686L0.00195312 151.117Z" fill="black"/>
<path d="M66.9451 237.752L74.819 229.878L80.3875 235.447L72.5136 243.322L66.9451 237.752Z" fill="black"/>
<path d="M78.7589 225.938L94.5107 210.186L100.079 215.755L84.3274 231.507L78.7589 225.938Z" fill="black"/>
<path d="M86.6348 237.752L102.387 222L107.955 227.569L92.2033 243.321L86.6348 237.752Z" fill="black"/>
<path d="M66.9451 218.062L82.6968 202.311L88.2673 207.879L72.5136 223.631L66.9451 218.062Z" fill="black"/>
<path d="M101.235 67.2686C107.747 67.2686 113.049 61.9693 113.049 55.4548C113.049 48.9422 107.747 43.641 101.235 43.641C94.7202 43.641 89.4209 48.9422 89.4209 55.4548C89.4209 61.9693 94.7202 67.2686 101.235 67.2686ZM101.235 51.5169C103.404 51.5169 105.173 53.2859 105.173 55.4548C105.173 57.6257 103.404 59.3928 101.235 59.3928C99.0639 59.3928 97.2968 57.6257 97.2968 55.4548C97.2968 53.2859 99.0639 51.5169 101.235 51.5169Z" fill="black"/>
<path d="M176.056 142.09C176.056 148.604 181.355 153.903 187.869 153.903C194.382 153.903 199.683 148.604 199.683 142.09C199.683 135.577 194.382 130.276 187.869 130.276C181.355 130.276 176.056 135.577 176.056 142.09ZM191.807 142.09C191.807 144.264 190.038 146.028 187.869 146.028C185.699 146.028 183.932 144.264 183.932 142.09C183.932 139.917 185.699 138.152 187.869 138.152C190.038 138.152 191.807 139.917 191.807 142.09Z" fill="black"/>
<path d="M148.49 83.0204C141.976 83.0204 136.676 88.3217 136.676 94.8343C136.676 101.349 141.976 106.648 148.49 106.648C155.003 106.648 160.304 101.349 160.304 94.8343C160.304 88.3217 155.003 83.0204 148.49 83.0204ZM148.49 98.7722C146.319 98.7722 144.552 97.0051 144.552 94.8343C144.552 92.6653 146.319 90.8963 148.49 90.8963C150.659 90.8963 152.428 92.6653 152.428 94.8343C152.428 97.0051 150.659 98.7722 148.49 98.7722Z" fill="black"/>
<path d="M178.517 18.6558L181.474 25.9568C183.676 25.0627 185.991 24.4647 188.358 24.1686L187.381 16.3523C184.337 16.7292 181.351 17.506 178.517 18.6558Z" fill="black"/>
<path d="M191.807 16.0754V23.9513C200.214 23.9513 208.059 27.7201 213.328 34.2884L219.475 29.3622C212.701 20.919 202.616 16.0754 191.807 16.0754Z" fill="black"/>
</g>
<defs>
<clipPath id="clip0">
<rect width="243" height="243" fill="white"/>
</clipPath>
</defs>
</svg>
