<svg width="280" height="280" viewBox="0 0 280 280" fill="none" xmlns="http://www.w3.org/2000/svg">
<path d="M275.484 13.5484L270.11 40.5107C268.213 49.9928 265.684 59.2963 262.522 68.3285L211.671 17.478C220.704 14.3158 230.007 11.7865 239.489 9.89007L266.452 4.51614C268.935 4.51614 271.193 5.51066 272.82 7.17995C274.489 8.80735 275.484 11.0654 275.484 13.5484Z" fill="#FCD770"/>
<path d="M211.671 17.4779C181.188 27.9546 153.414 45.2958 130.471 68.2381C118.006 80.7037 107.123 94.6579 98.1353 109.741C96.1926 112.994 94.3425 116.29 92.5806 119.677L160.662 187.419C162.693 186.381 162.581 185.252 167.097 184.123V184.076C185.161 174.685 198.551 163.077 212.099 149.528C226.957 134.67 239.346 117.735 249.192 99.3548C254.475 89.4185 258.95 79.0322 262.608 68.3285L211.671 17.4779Z" fill="#E6E9ED"/>
<path d="M225.806 198.71V200.244C225.806 208.465 224.181 216.459 221.109 223.864C218.038 231.271 213.521 238.091 207.742 243.871C200.833 250.78 192.883 256.562 184.303 261.078L163.438 240.213C167.231 232.942 171.974 226.168 177.529 220.071C178.521 218.942 179.56 217.859 180.645 216.774C192.207 205.213 207.876 198.71 224.271 198.71H225.806Z" fill="#E6E9ED"/>
<path d="M112.903 140L113.988 138.915C124.87 128.033 139.594 121.935 154.949 121.935H158.064V125.051C158.064 132.73 156.53 140.271 153.639 147.226C150.748 154.181 146.503 160.594 141.085 166.012C140.723 166.373 140.362 166.735 140 167.097C134.399 172.427 127.986 176.672 120.987 179.697L100.303 159.013C103.328 152.014 107.573 145.601 112.903 140Z" fill="#E6E9ED"/>
<path d="M198.71 49.6774C216.188 49.6774 230.322 63.8124 230.322 81.2903C230.322 98.7683 216.188 112.903 198.71 112.903C181.232 112.903 167.097 98.7683 167.097 81.2903C167.097 63.8124 181.232 49.6774 198.71 49.6774Z" fill="#69D6F4"/>
<path d="M212.258 81.2903C212.258 88.7724 206.192 94.8387 198.71 94.8387C191.228 94.8387 185.161 88.7724 185.161 81.2903C185.161 73.8083 191.228 67.7419 198.71 67.7419C206.192 67.7419 212.258 73.8083 212.258 81.2903Z" fill="#4FC1E9"/>
<path d="M184.303 261.078C183.807 261.349 183.309 261.574 182.813 261.845C173.69 266.408 163.8 269.523 153.548 270.968C155.083 260.174 158.47 249.741 163.438 240.213L184.303 261.078Z" fill="#FF826E"/>
<path d="M177.439 219.98L177.529 220.071C171.975 226.168 167.231 232.942 163.438 240.213L126.677 203.451L151.109 192.026C154.225 190.582 157.297 189.045 160.323 187.419C162.356 186.381 164.387 185.252 166.42 184.123L177.439 219.98Z" fill="#AAB2BD"/>
<path d="M140 167.097L160.323 187.419C157.297 189.045 154.225 190.582 151.109 192.026L126.677 203.451L117.419 207.742L94.8828 185.205L94.9291 185.161C103.961 185.161 112.859 183.265 120.987 179.697C127.986 176.672 134.399 172.427 140 167.097Z" fill="#CCD1D9"/>
<path d="M120.987 179.697C112.859 183.265 103.961 185.161 94.929 185.161L94.8827 185.205L94.8386 185.161V185.117C94.8386 176.444 96.5542 167.955 99.8068 160.098C99.9413 159.736 100.122 159.374 100.303 159.013L120.987 179.697Z" fill="#FF826E"/>
<path d="M92.5806 119.677L112.903 140C107.573 145.601 103.328 152.014 100.303 159.013C100.122 159.374 99.9414 159.736 99.8069 160.098C96.5543 167.955 94.8387 176.444 94.8387 185.117V185.161L72.2581 162.581L77.9936 150.252L87.9741 128.891C89.4185 125.775 90.9555 122.703 92.5806 119.677Z" fill="#CCD1D9"/>
<path d="M112.903 203.226L89.8704 218.58C88.7414 211.264 85.2639 204.761 80.2516 199.748C75.2393 194.736 68.7363 191.259 61.4197 190.129L76.7741 167.097L112.903 203.226Z" fill="#AAB2BD"/>
<path d="M60.0195 98.045L98.1354 109.741C96.1927 112.994 94.3425 116.29 92.5806 119.677C90.9554 122.703 89.4185 125.775 87.9741 128.89L77.9936 150.252L39.7874 112.045C47.0577 108.253 53.8319 103.509 59.9291 97.9546L60.0195 98.045Z" fill="#AAB2BD"/>
<path d="M89.8705 218.58C90.188 220.342 90.3226 222.194 90.3226 224.045C90.3226 238.632 81.1095 251.64 67.3803 256.471L13.5484 275.484C11.0654 275.484 8.80732 274.489 7.17992 272.82C5.51063 271.193 4.51611 268.935 4.51611 266.452L23.5288 212.62C25.9236 205.755 30.3934 200.02 36.0849 196C41.7742 191.98 48.6829 189.677 55.9554 189.677C57.8056 189.677 59.6579 189.812 61.4198 190.129C68.7364 191.259 75.2394 194.736 80.2517 199.748C85.264 204.761 88.7415 211.264 89.8705 218.58Z" fill="#FF826E"/>
<path d="M85.8064 215.012C85.8064 223.864 80.2053 231.723 71.8964 234.658L30.8455 249.154L45.3421 208.104C48.2771 199.795 56.1362 194.194 64.9877 194.194C76.4588 194.194 85.8064 203.541 85.8064 215.012Z" fill="#FCD770"/>
<path d="M81.2904 49.6774V51.2122C81.2904 67.6074 74.7874 83.2772 63.2259 94.8387C62.1409 95.9237 61.0582 96.9623 59.9292 97.9546C53.832 103.509 47.0578 108.253 39.7874 112.045L18.9224 91.1804C23.4385 82.6002 29.2204 74.6507 36.1291 67.7419C41.9088 61.9623 48.7293 57.4461 56.1363 54.3744C63.5412 51.3026 71.5348 49.6774 79.7556 49.6774H81.2904Z" fill="#E6E9ED"/>
<path d="M39.7873 112.045C30.2589 117.014 19.8264 120.401 9.03223 121.935C10.4766 111.684 13.5925 101.794 18.1549 92.6711C18.4261 92.1749 18.6511 91.6765 18.9223 91.1804L39.7873 112.045Z" fill="#FF826E"/>
<path d="M157.474 163.205L162.043 170.998C166.92 168.14 171.734 165.028 176.358 161.754L171.139 154.384C166.722 157.504 162.124 160.477 157.474 163.205Z" fill="black"/>
<path d="M195.779 133.583C189.931 139.431 183.649 144.946 177.119 149.972L182.623 157.13C189.47 151.868 196.046 146.097 202.17 139.969C205.552 136.586 208.858 133.032 212 129.409L205.173 123.495C202.17 126.957 199.007 130.348 195.779 133.583Z" fill="black"/>
<path d="M266.452 0L238.587 5.48198C196.271 13.9453 157.776 34.5479 127.256 65.0693C115.333 76.9903 104.94 90.177 96.1309 104.409L68.3792 95.8685C79.5968 83.6388 85.8064 67.9272 85.8064 51.2254V45.1613H79.7423C62.0615 45.1613 45.4369 52.0435 32.936 64.5489C17.6896 79.7952 7.60994 99.9502 4.56023 121.294L3.71125 127.256L9.67395 126.408C19.7978 124.961 29.6349 121.885 38.8303 117.474L72.5778 151.222L66.829 163.538L70.9659 167.675L59.197 185.329C58.1187 185.238 57.0382 185.161 55.9422 185.161C39.4808 185.161 24.7395 195.594 19.2575 211.116L0 265.68V266.452C0 273.92 6.07957 280 13.5484 280H14.3202L68.8842 260.742C84.4062 255.261 94.8387 240.519 94.8387 224.058C94.8387 222.962 94.7615 221.881 94.6755 220.807L112.33 209.039L116.467 213.175L125.706 208.862L158.014 241.17C153.604 250.365 150.527 260.202 149.083 270.326L148.234 276.289L154.194 275.44C175.542 272.39 195.693 262.315 210.939 247.064C223.44 234.563 230.323 217.939 230.323 200.258V194.194H224.258C207.557 194.194 191.845 200.403 179.615 211.621L171.789 186.178C187.488 176.901 201.951 165.723 214.935 152.744C245.452 122.224 266.055 83.7292 274.518 41.4126L279.914 14.4326L280 13.5484C280 6.07957 273.92 0 266.452 0V0ZM137.905 162.806C133.166 167.544 127.766 171.355 121.935 174.259L105.741 158.065C108.645 152.239 112.456 146.834 117.194 142.095C126.943 132.346 139.802 126.826 153.531 126.469C153.174 140.198 147.654 153.057 137.905 162.806ZM102.096 167.192L112.804 177.9C108.513 179.218 104.083 180.12 99.5268 180.464C99.8753 175.917 100.777 171.483 102.096 167.192ZM91.1275 175.06L77.6915 161.624L92.0713 130.809C92.6247 129.623 93.2312 128.465 93.8089 127.287L106.729 140.207C98.303 150.201 92.9776 162.201 91.1275 175.06ZM39.3221 70.935C49.3974 60.8597 62.5709 55.0117 76.6926 54.2751C75.9561 68.3969 70.1081 81.5704 60.0328 91.6457C54.2377 97.4408 47.6399 102.376 40.5371 106.409L24.5631 90.435C28.5919 83.3279 33.527 76.7301 39.3221 70.935ZM14.6179 116.35C15.9101 110.365 17.8396 104.535 20.2917 98.9359L32.0275 110.672C26.433 113.128 20.6026 115.058 14.6179 116.35ZM47.1614 113.033C52.0391 110.107 56.6589 106.757 60.981 103.04L91.4163 112.403C88.7415 117.161 86.2078 122.013 83.888 126.99L76.6441 142.512L47.1614 113.033ZM49.5826 209.594C51.8804 203.087 58.0636 198.71 64.9745 198.71C73.9693 198.71 81.2903 206.031 81.2903 215.026C81.2903 221.936 76.9197 228.12 70.4057 230.417L38.2239 241.776L49.5826 209.594ZM65.8764 252.226L12.9023 270.924C10.9243 270.644 9.35641 269.071 9.07636 267.098L27.7738 214.124C31.2557 204.26 39.6374 197.155 49.5738 194.97C45.7611 197.892 42.7356 201.856 41.0641 206.591L23.4252 256.575L73.4136 238.929C78.148 237.26 82.1128 234.234 85.0347 230.422C82.8494 240.367 75.74 248.744 65.8764 252.226ZM92.649 211.305C88.7459 200.114 79.8901 191.258 68.699 187.355L77.4776 174.186L105.818 202.527L92.649 211.305ZM104.936 188.873C117.794 187.022 129.795 181.697 139.788 173.276L152.708 186.195C151.535 186.773 150.373 187.38 149.187 187.933L118.372 202.313L104.936 188.873ZM164.808 247.968L176.544 259.704C170.945 262.156 165.114 264.09 159.13 265.378C160.426 259.397 162.356 253.567 164.808 247.968ZM221.209 203.307C220.472 217.429 214.624 230.603 204.549 240.678C198.754 246.473 192.156 251.408 185.053 255.441L169.079 239.467C173.108 232.365 178.043 225.767 183.843 219.972C193.913 209.892 207.087 204.044 221.209 203.307ZM172.444 219.019C168.726 223.337 165.381 227.961 162.451 232.839L134.41 204.798L153.006 196.116C156.647 194.418 160.206 192.595 163.732 190.707L172.444 219.019ZM208.547 146.36C194.452 160.453 178.526 172.323 161.127 181.838L146.287 166.998C156.772 155.476 162.581 140.719 162.581 125.038V117.419H154.962C139.277 117.419 124.518 123.228 113.002 133.718L98.1619 118.879C107.677 101.478 119.547 85.5484 133.64 71.4598C155.522 49.5782 181.688 33.0176 210.465 22.6622L257.342 69.5391C246.987 98.3118 230.426 124.474 208.547 146.36ZM265.662 39.6374C264.284 46.5152 262.551 53.2806 260.513 59.9291L220.071 19.4868C226.719 17.4493 233.485 15.716 240.363 14.3378L266.826 9.04549C269.021 9.22631 270.778 10.9794 270.954 13.1735L265.662 39.6374Z" fill="black"/>
<path d="M198.71 45.1613C178.788 45.1613 162.581 61.3691 162.581 81.2903C162.581 101.212 178.788 117.419 198.71 117.419C218.631 117.419 234.839 101.212 234.839 81.2903C234.839 61.3691 218.631 45.1613 198.71 45.1613ZM198.71 108.387C183.765 108.387 171.613 96.2346 171.613 81.2903C171.613 66.3461 183.765 54.1935 198.71 54.1935C213.654 54.1935 225.806 66.3461 225.806 81.2903C225.806 96.2346 213.654 108.387 198.71 108.387Z" fill="black"/>
<path d="M198.71 63.2258C188.747 63.2258 180.645 71.3275 180.645 81.2903C180.645 91.2531 188.747 99.3548 198.71 99.3548C208.673 99.3548 216.774 91.2531 216.774 81.2903C216.774 71.3275 208.673 63.2258 198.71 63.2258ZM198.71 90.3226C193.728 90.3226 189.678 86.2717 189.678 81.2903C189.678 76.3089 193.728 72.2581 198.71 72.2581C203.691 72.2581 207.742 76.3089 207.742 81.2903C207.742 86.2717 203.691 90.3226 198.71 90.3226Z" fill="black"/>
</svg>
